<svg xmlns="http://www.w3.org/2000/svg">
<defs>
<font id="Wkwkwk" horiz-adv-x="507" >
  <font-face 
    font-family="Wkwkwk"
    font-weight="400"
    font-stretch="normal"
    units-per-em="1000"
    panose-1="2 0 5 6 0 0 0 2 0 4"
    ascent="900"
    descent="-100"
    x-height="682"
    cap-height="694"
    bbox="-79.2632 -312.308 960.372 1055"
    underline-thickness="50"
    underline-position="-100"
    unicode-range="U+000D-2212"
  />
<missing-glyph horiz-adv-x="786" 
d="M445 575h126q5 0 10 0.5t8 -4.5q5 -6 2.5 -11.5t-6.5 -10.5q-7 -11 -15 -18t-17 -12q17 2 32 -3.5t29 -15.5q9 -9 9 -18q5 0 7.5 -3t3.5 -12q2 -26 4 -51.5t2 -50.5q0 -31 -1.5 -61.5t-3.5 -60.5h1q-1 -32 -2 -63t-3 -63v-10t-5 -7q-6 -5 -11.5 -2.5t-9.5 7.5
q-20 13 -28 31.5t-11 39.5q-2 7 -1.5 13.5t1.5 13.5q2 35 1 70.5t-4 70.5q-19 -15 -38 -32l-15 -14q-6 -6 -2 -15q6 -9 11 -17.5t10 -17.5q14 -23 18.5 -49t4.5 -53q1 -9 0.5 -18t-1.5 -18q21 -17 29 -47q2 -10 -7 -8q-8 1 -15.5 1.5t-15.5 2.5q-42 8 -84 8t-84 -5
q-41 -6 -78 -2q-8 2 -17 1t-17 -1q-16 -1 -32 -1.5t-32 1.5q-4 22 12 38q10 10 19 15q-5 1 -8.5 2t-7.5 3q-8 1 -13 9q-19 -23 -52 -29q-4 -1 -6.5 1t-0.5 6q1 8 2 15.5t3 15.5q18 81 10 168q-5 41 1 78q2 8 1.5 17t0.5 17v32t3 31q13 2 22 -2v1q3 16 13 25t22 17
q-4 4 -6.5 8.5t-3.5 12.5q-2 12 -1 16t14 6q26 3 51 6t50 4q31 2 61.5 1.5t60.5 -0.5v1zM136 243q-1 -32 -2 -63t-3 -63v-10t-5 -7q-6 -5 -11.5 -2.5t-9.5 7.5q-20 13 -28 31.5t-11 39.5q-2 7 -1.5 13.5t1.5 13.5q3 38 1.5 76.5t-5.5 76.5q-2 18 0.5 36t1.5 35q6 7 10 15.5
t8.5 16.5t11.5 14t19 8t16 0.5t5 -14.5q2 -26 4 -51.5t2 -50.5q0 -31 -1.5 -61.5t-3.5 -60.5h1zM435 45h126q5 0 10 0.5t8 -4.5q5 -6 2.5 -11.5t-6.5 -10.5q-12 -20 -30.5 -28.5t-39.5 -13.5q-7 -2 -13.5 -1.5t-13.5 0.5q-38 2 -76 -1.5t-76 -8.5q-18 -2 -36 -0.5t-35 -0.5
q-7 6 -16 9.5t-17 7.5t-14.5 10.5t-8.5 18.5t-1 16t14 6q26 3 51 6t50 4q31 2 61.5 1.5t60.5 -0.5v1zM208 590q-4 22 12 38q8 8 17.5 14.5t22.5 8.5q42 4 81.5 8.5t81.5 4.5q18 -1 35.5 -0.5t35.5 0.5q31 0 61 -19q27 -17 35 -52q2 -10 -7 -8q-8 1 -15.5 1.5t-15.5 2.5

<glyph glyph-name=".notdef" horiz-adv-x="786" 
d="M445 575h126q5 0 10 0.5t8 -4.5q5 -6 2.5 -11.5t-6.5 -10.5q-7 -11 -15 -18t-17 -12q17 2 32 -3.5t29 -15.5q9 -9 9 -18q5 0 7.5 -3t3.5 -12q2 -26 4 -51.5t2 -50.5q0 -31 -1.5 -61.5t-3.5 -60.5h1q-1 -32 -2 -63t-3 -63v-10t-5 -7q-6 -5 -11.5 -2.5t-9.5 7.5
q-20 13 -28 31.5t-11 39.5q-2 7 -1.5 13.5t1.5 13.5q2 35 1 70.5t-4 70.5q-19 -15 -38 -32l-15 -14q-6 -6 -2 -15q6 -9 11 -17.5t10 -17.5q14 -23 18.5 -49t4.5 -53q1 -9 0.5 -18t-1.5 -18q21 -17 29 -47q2 -10 -7 -8q-8 1 -15.5 1.5t-15.5 2.5q-42 8 -84 8t-84 -5
q-41 -6 -78 -2q-8 2 -17 1t-17 -1q-16 -1 -32 -1.5t-32 1.5q-4 22 12 38q10 10 19 15q-5 1 -8.5 2t-7.5 3q-8 1 -13 9q-19 -23 -52 -29q-4 -1 -6.5 1t-0.5 6q1 8 2 15.5t3 15.5q18 81 10 168q-5 41 1 78q2 8 1.5 17t0.5 17v32t3 31q13 2 22 -2v1q3 16 13 25t22 17
q-4 4 -6.5 8.5t-3.5 12.5q-2 12 -1 16t14 6q26 3 51 6t50 4q31 2 61.5 1.5t60.5 -0.5v1zM136 243q-1 -32 -2 -63t-3 -63v-10t-5 -7q-6 -5 -11.5 -2.5t-9.5 7.5q-20 13 -28 31.5t-11 39.5q-2 7 -1.5 13.5t1.5 13.5q3 38 1.5 76.5t-5.5 76.5q-2 18 0.5 36t1.5 35q6 7 10 15.5
t8.5 16.5t11.5 14t19 8t16 0.5t5 -14.5q2 -26 4 -51.5t2 -50.5q0 -31 -1.5 -61.5t-3.5 -60.5h1zM435 45h126q5 0 10 0.5t8 -4.5q5 -6 2.5 -11.5t-6.5 -10.5q-12 -20 -30.5 -28.5t-39.5 -13.5q-7 -2 -13.5 -1.5t-13.5 0.5q-38 2 -76 -1.5t-76 -8.5q-18 -2 -36 -0.5t-35 -0.5
q-7 6 -16 9.5t-17 7.5t-14.5 10.5t-8.5 18.5t-1 16t14 6q26 3 51 6t50 4q31 2 61.5 1.5t60.5 -0.5v1zM208 590q-4 22 12 38q8 8 17.5 14.5t22.5 8.5q42 4 81.5 8.5t81.5 4.5q18 -1 35.5 -0.5t35.5 0.5q31 0 61 -19q27 -17 35 -52q2 -10 -7 -8q-8 1 -15.5 1.5t-15.5 2.5
q-42 8 -84 8t-84 -5q-41 -6 -78 -2q-8 2 -17 1t-17 -1q-16 -1 -32 -1.5t-32 1.5zM662 479q11 2 20 -1.5t17 -11.5q8 -9 14 -18.5t7 -22.5q2 -42 5 -82t1 -81q-2 -18 -2 -35.5t-1 -35.5q-1 -32 -21 -61q-19 -26 -54 -32q-4 -1 -6.5 1t-0.5 6q1 8 2 15.5t3 15.5q18 81 10 168
q-5 41 1 78q2 8 1.5 17t0.5 17v32t3 31zM341 492q11 -9 19.5 -19.5t16.5 -21.5q5 -6 10 -13t13 -12q8 3 14 9.5t13 11.5l53 42q11 9 26 17q-5 -1 -9 -0.5t-9 0.5q-38 2 -76 -1.5t-76 -8.5q1 -2 5 -4zM277 313q-13 17 -25 34t-29 29q2 -29 3.5 -57t-0.5 -57q0 -2 -0.5 -2.5
t-0.5 -2.5l8 9q20 20 44 47zM391 170q-7 10 -17 1q-12 -11 -24 -21.5t-26 -18.5l-4 -3l46 4t47 2q5 -1 10.5 -1h10.5q-24 15 -43 37zM221 436q-4 8 -7 10q2 -3 4 -11q2 0 3 1zM182 299l7 -14l1 1q-3 4 -7 14zM182 307l7 -8l1 1l-7 7h-1z" />
    <glyph glyph-name="NULL" horiz-adv-x="0" 
 />
    <glyph glyph-name="NULL" horiz-adv-x="0" 
 />
    <glyph glyph-name="nonmarkingreturn" unicode="&#xd;" horiz-adv-x="296" 
 />
    <glyph glyph-name="space" unicode=" " horiz-adv-x="296" 
 />
    <glyph glyph-name="o" unicode="o" horiz-adv-x="494" 
d="M6 213q3 99 22 194t54 187q4 8 7 15.5t8 15.5q18 32 51 41q18 5 29 16q49 41 114 32q14 -2 27 -4t27 -6q48 -13 78.5 -44t47.5 -78q23 -60 23 -119.5t-15 -120.5q-12 -50 -33 -100q-22 -54 -49 -104.5t-59 -99.5q-13 -20 -28 -38t-32 -35q-20 -19 -42.5 -27.5t-50.5 -1.5
q-13 3 -26 0q-6 -1 -12 -1t-12 -1q-19 -2 -33.5 5t-26.5 21q-11 13 -19.5 27.5t-15.5 30.5q-14 33 -22 67.5t-11 70.5q-2 14 -1.5 28.5t0.5 28.5zM179 110q8 3 11 7t6 9q35 56 66 114.5t53 121.5q9 28 15 55q4 25 4 49t-8 49q-14 41 -59 50q-7 2 -10 -5q-2 -5 -3 -9t-4 -7
q-15 -13 -21.5 -30t-13.5 -34q-18 -51 -28.5 -102t-16.5 -103q-5 -33 -5.5 -66t4.5 -66q2 -8 3 -16.5t7 -16.5zM262 640h11q2 1 5 1.5t2 3.5q-2 5 -6 7q-7 5 -13.5 3.5t-12.5 -3.5q-2 -1 -4 -5q0 -2 3 -5q5 -1 8.5 -1.5t6.5 -0.5zM91 238h1v16h-1v-16zM417 470h2v3
q-1 2 -2 2t-1 -3q0 -1 1 -2z" />
    <glyph glyph-name="n" unicode="n" horiz-adv-x="606" 
d="M211 336q-7 -18 -9.5 -36.5t-5.5 -36.5q-10 -57 -19 -112t-18 -112q-12 -86 -73 -150q-2 -3 -5 -5t-5 -4q-2 -3 -2 -7.5t-5 -6.5q-7 -2 -11.5 2t-8.5 9q-20 24 -33 50.5t-10 60.5q3 26 4.5 52t-0.5 53q0 12 2 24.5t4 25.5q14 97 30 191.5t39 189.5q5 23 12.5 45.5
t14.5 45.5q7 22 22.5 33t37.5 14q17 2 32.5 0t31.5 -6q10 -4 15 -8q4 -5 7.5 -10.5t13.5 -0.5q1 1 4 -2t5 -6q23 -37 37 -83q17 -51 32.5 -100.5t34.5 -99.5q2 -5 4 -11t5 -11q0 -4 4 -4q6 -1 6 6q5 40 10.5 79.5t11.5 78.5q5 37 9.5 73t9.5 72q2 9 4.5 18t4.5 18q1 8 6 16
q2 3 4 6.5t4 3.5q7 1 11.5 5.5t8.5 10t9 10t13 4.5q10 1 20 0.5t20 -2.5q11 -3 14 -8.5t5 -16.5q2 -13 0 -25t-3 -25q-1 -2 0.5 -3t2.5 -1q4 -1 4 4q1 10 1.5 20t1.5 20q1 2 3.5 3.5t4.5 3.5q2 0 5 -3q10 -13 13.5 -27t3.5 -31q-2 -41 -8 -81t-11 -81q-8 -59 -16 -117.5
t-16 -117.5q-5 -34 -11.5 -67t-16.5 -66q-3 -11 -6 -21t-7 -21q-15 -34 -46 -52q-17 -10 -33 -14t-34 -4q-6 0 -12 1t-11 5q-18 14 -36 27.5t-26 36.5l-33 90q-15 42 -29.5 84.5t-29.5 85.5q-2 5 -3.5 10.5t-9.5 7.5zM82 -82q2 17 7.5 29t-0.5 29q-2 -16 -5.5 -28.5
t-1.5 -29.5zM470 615q5 16 8 28t-1 25q-4 -11 -7 -23.5t0 -29.5z" />
    <glyph glyph-name="g" unicode="g" 
d="M435 260q30 -42 31 -85t-13 -88q-12 -43 -34.5 -80t-51.5 -71q-12 -11 -23.5 -21.5t-25.5 -17.5q-14 -6 -29 -14t-29 -15t-27 -12.5t-23 -6.5q2 3 6.5 5t9 3.5t7 4t-0.5 7.5q-3 9 -14 6t-19 -3q-29 0 -57 -0.5t-56 10.5l-2 2l2 -3q-31 11 -48 33.5t-28 50.5
q-14 35 -18.5 71.5t-2.5 73.5q9 124 50.5 236.5t110.5 216.5q3 5 6.5 8.5t8.5 4.5l1 1h-2q8 19 20.5 33t26.5 27q6 5 12.5 10.5t13.5 10.5q11 9 25.5 14.5t30 7t30.5 -1t27 -9.5q16 -9 27 -27q14 -25 29 -49.5t30 -49.5q14 -24 21.5 -50t8.5 -54q0 -17 2.5 -34t4.5 -34
q0 -14 -14 -12q-42 7 -79 21.5t-69 43.5q-5 4 -9.5 7.5t-9.5 8.5q-2 0 -6 1q-34 -50 -57 -110q5 -8 10 -7t10 3q14 5 29 6t30 0q32 -2 61 -13.5t50 -37.5h1q-8 -12 1 -21q4 -4 7 -5t8 5zM274 154q-3 -1 -6.5 -1t-6.5 -2q-22 -7 -41 -17t-39 -21q-7 -4 -9 -9q-6 -38 7 -78
q3 -7 12 -5q2 1 3.5 1.5t3.5 1.5q32 23 52 54.5t31 68.5q1 5 -7 7zM320 269q-1 7 -10 10q-6 2 -8 -4q-2 -3 1 -6t9 -5t8 5zM433 139q-2 2 -2 6q-2 -2 -2 -4v-5q2 1 4 3z" />
    <glyph glyph-name="h" unicode="h" horiz-adv-x="600" 
d="M201 259q12 1 22 5.5t21 9.5q29 13 58.5 21t61.5 7q2 -1 3.5 -0.5t3.5 0.5l19.5 4.5t9.5 4.5t4 9.5t2 18.5q6 63 15.5 124t19.5 123q2 14 2.5 28t4.5 28q2 8 3.5 15.5t9.5 13.5q3 3 5 8q2 6 2 13.5t7 9.5q10 3 19.5 5.5t20.5 4.5q7 1 15 -7q5 -12 15 -2q5 5 12.5 3
t9.5 -10q3 -11 10.5 -19t15.5 -16q3 -3 4.5 -7t3.5 -9q3 -12 6 -24.5t7 -24.5q3 -11 -0.5 -21t-2.5 -21q0 -2 -1 -4t-3 -2q-8 -1 -11.5 -5t-5 -9t-1.5 -11t-1 -11q-18 -95 -28.5 -189.5t-14.5 -191.5q-1 -23 -3 -46.5t-4 -47.5q-5 -54 -22 -102q-9 -26 -18.5 -52t-16.5 -54
q-2 -4 -4 -7.5t-4 -8.5q-5 -8 -11 -2q-5 6 -8.5 11.5t-7.5 12.5q-29 51 -47 104q-6 17 -8 35t-2 36q-1 29 -0.5 58.5t2.5 58.5v8.5t-5 9.5q-16 -7 -32.5 -13.5t-33.5 -13.5q-16 -7 -31.5 -13.5t-32.5 -14.5q-14 -5 -26 -12.5t-23 -19.5q-3 -3 -7.5 -6t-9.5 -5
q-14 -5 -20 -16t-7 -25q-6 -66 -37 -119q-11 -16 -9 -39q0 -6 -4.5 -9t-9.5 0q-14 6 -25.5 14.5t-20.5 21.5q-25 35 -38.5 72.5t-12.5 82.5q1 33 4 66t8 67q14 109 36.5 214t45.5 211q2 11 5 21t6 21q2 9 5.5 17t10.5 15q10 12 14 25q3 11 11.5 16t16.5 4q10 -2 15.5 0.5
t10.5 9.5q4 4 8 4t9 -1q20 -6 35.5 -16.5t20.5 -33.5q2 -8 6 -13.5t7 -11.5q21 -32 8 -68q-5 -13 -14 -14q-10 -1 -12.5 -6t-4.5 -13q-17 -60 -28.5 -122t-25.5 -124q-2 -9 -3.5 -18.5t0.5 -20.5zM480 103q0 -2 -1 -3t-1 -3q-2 -45 -4 -89l-4 -88q-1 -15 0 -31t2 -31
q0 -6 4 2q0 60 5 120.5t-1 122.5zM76 -88q1 29 2.5 56t-3.5 56q-10 -26 -9.5 -55t10.5 -57zM168 660l2 -2l1 2h-3z" />
    <glyph glyph-name="i" unicode="i" horiz-adv-x="228" 
d="M7 123q-4 27 -0.5 53t7.5 52q10 77 21 153t22 153q2 12 2 24.5t2 25.5q1 7 2 13t11 7q4 1 4.5 4.5t0.5 6.5q2 9 2.5 17.5t1.5 16.5q6 39 45 44q3 1 6.5 1h6.5q41 0 31 -39q-2 -9 -3 -18t-3 -18q0 -4 0.5 -7t5.5 -6q2 11 3 20.5t3 19.5l3 24q1 2 1.5 4.5t4.5 2.5q7 0 9 -2
q5 -5 9.5 -10.5t6.5 -11.5q6 -22 12 -43.5t2 -45.5q-8 -43 -13.5 -85.5t-11.5 -85.5q-8 -60 -16.5 -118t-17.5 -117q-11 -72 -45 -135q-9 -17 -17.5 -34.5t-21.5 -33.5q-6 -8 -8 -18l-4 -20q0 -2 -1 -5t-4 -2q-7 2 -9 5q-7 7 -10.5 15.5t-6.5 17.5q-26 68 -20 140
q1 8 1 16.5v16.5q0 11 -14 2zM102 30q-2 -2 -5.5 -2.5t-2.5 -5.5v-4q3 -3 4 2v6t5 5q-2 1 -3.5 1.5t1.5 2.5q0 -1 0.5 -2t0.5 -3z" />
    <glyph glyph-name="j" unicode="j" horiz-adv-x="455" 
d="M338 673q13 6 25.5 4t23.5 -6q10 -4 15.5 -6.5t8 -6.5t3 -10.5t0.5 -16.5q0 -5 -0.5 -10t-0.5 -10v-8.5t1 -8.5q5 14 4.5 30t2.5 30q1 3 3 6t6 3q7 0 7 -6q8 -14 14 -29t2 -32q-2 -6 -2 -12.5v-13.5q8 -125 -7 -244q-7 -48 -19.5 -93.5t-32.5 -89.5q-31 -66 -76 -118
t-108 -90q-23 -14 -46 -26t-47 -22q-54 -25 -110 -9q-28 8 -48 27q4 8 9 5.5t9 -2.5q14 0 23 4q5 2 9.5 3.5t7.5 7.5h-48q-5 0 -10 0.5t-10 1.5q-10 3 -11 12q0 9 6 12q10 4 17 11t13 15q11 13 23.5 22t27.5 17l57 30q85 49 133.5 121.5t66.5 167.5q8 47 9 94.5t1 95.5
q1 1 1 3q-3 15 -17 11q-29 -8 -57 -18.5t-51 -33.5q-5 -5 -11 -8t-12 5q-7 5 -12 -2t-11.5 -7h-13.5q-15 0 -28 10t-1 22q2 2 5 4t7 4q7 7 9.5 12.5t-0.5 7.5q-6 2 -10 -2t-8 -6q-9 -8 -19 -4q-15 5 -12 17q2 8 3 15t0 15q-2 8 1 16t11 14q6 4 10.5 8.5t0.5 12.5q-2 3 1 6
l5 5q11 10 23.5 17t25.5 13q29 15 61 24t65 17q20 5 39.5 1.5t39.5 -6.5q10 -1 5 -17q0 -2 -2 -6q-12 8 -22 3q-7 0 -7 -5q0 -3 3 -3.5t5 -1.5q5 2 10.5 3.5t10.5 3.5zM414 489q-2 -32 -3.5 -63.5t-3.5 -63.5q7 15 8.5 31t1 32t-1.5 32t-1 32zM320 500q-3 -21 -5 -44.5
t-3 -44.5t-1 -37.5t2 -24.5q10 38 8.5 75.5t-1.5 75.5zM302 323l1 -2l1 2h-2z" />
    <glyph glyph-name="k" unicode="k" horiz-adv-x="538" 
d="M302 265q12 -5 22 -8.5t21 -7.5q14 -7 27 -14t18 -24q2 -4 5.5 -7t6.5 -5q5 -3 10.5 -5.5t10.5 -5.5q41 -24 56.5 -60t15.5 -81q0 -4 -2 -10q-3 -8 -10 -5q-3 0 -3 2q-14 16 -32 19.5t-36 6.5q-28 5 -55 13t-53 19q-19 8 -38 14.5t-39 10.5q-5 2 -10 2.5t-10 1.5
q-20 2 -28.5 -4.5t-12.5 -27.5q-9 -61 -41 -118q-11 -17 -20.5 -35t-19.5 -36q-4 -7 -10.5 -7.5t-11.5 4.5q-2 2 -3 4l-2 4q-18 42 -33.5 83.5t-17.5 88.5q-1 11 -1.5 22t1.5 22q8 103 21 203t36 200q7 32 15.5 63t22.5 61q15 33 49 43q8 2 13.5 -3.5t1.5 -11.5
q-4 -8 -5 -16.5t-6 -15.5q-2 -2 -3 -5.5t-2 -6.5q0 -7 4 -8q3 -1 5 4q2 10 5 19.5t6 19.5q1 2 1 4.5t1 4.5q7 16 24 12q14 -3 22.5 -11.5t16.5 -19.5q3 -5 1 -8l-4 -6q-4 -5 -3 -9.5t8 -6.5q11 -4 14.5 -11t3.5 -18q-1 -22 -10 -42q-13 -29 -19.5 -59.5t-10.5 -61.5l2 -2
q7 1 10 5.5t7 9.5q48 60 99.5 116t103.5 113q27 30 67 24q6 -1 11 -2.5t7 -9.5q2 -9 10 -4q7 4 11.5 1.5t9.5 -7.5l6 -10l6 -10q4 -6 0 -13q-6 -8 -7.5 -14t12.5 -9q2 -1 2.5 -4t1.5 -5q2 -12 0 -23t-10 -22q-6 -7 -11.5 -14.5t-12.5 -14.5q-63 -63 -120.5 -131t-114.5 -137
zM315 239q2 -1 1.5 -3t3.5 0q-4 2 -5 3q-7 5 -13.5 8.5t-15.5 1.5q-1 0 -1 -2v-1q12 -10 30 -7zM73 -61q5 23 5.5 46t-4.5 48q-7 -47 -1 -94zM216 159q-8 4 -14 6.5t-11 4.5t-10 -2q-1 0 -3 -5q-1 -3 2 -5q8 -2 16.5 -1.5t19.5 2.5z" />
    <glyph glyph-name="m" unicode="m" horiz-adv-x="756" 
d="M708 31q0 3 0.5 6.5t-0.5 6.5q0 5 -2 6q-3 2 -4.5 -0.5t-1.5 -4.5q-2 -15 -3.5 -30t-3.5 -31q-2 -11 -5.5 -21t-8.5 -20q-8 -14 -14 -28l-12 -28q-2 -2 -3.5 -5t-5.5 -3q-7 0 -11 8q-8 12 -12 26t-5 28q-2 11 -2 20.5t-1 20.5q-1 6 -1 13t-7 14q-2 -10 -1.5 -19t2.5 -18
v-14q0 -5 -3 -5q-4 -2 -8 4q-22 40 -26 83q-3 26 -4.5 51t0.5 51q2 49 3.5 97t3.5 97q0 8 0.5 15t-3.5 15q-5 2 -6 -1t-3 -6q-12 -28 -21.5 -57t-18.5 -58q-5 -16 -10 -31t-12 -30q-11 -26 -32 -43t-46 -28q-13 -6 -28 -4.5t-28 7.5q-22 11 -40.5 25t-30.5 36l-20 34t-19 34
q-12 21 -23 42l-22 42q-2 3 -4 7t-7 4q-3 -3 -3 -2q-2 -15 -3.5 -30t-3.5 -30l-24 -342q-1 -2 -1 -3.5t-1 -3.5q-2 -4 -4 -4q-2 -1 -3 0.5t-2 2.5q-3 8 -1.5 17t1.5 17q-1 3 -1 7t-1 11q-7 -14 -7.5 -24.5t-2.5 -21.5v-12t-1 -12q-2 -11 -9 -14q-13 -6 -25 -13t-28 -4
q-17 2 -22 7.5t-4 23.5q1 7 2 13.5t1 13.5q1 10 1.5 20t1.5 20q0 2 -1 5t-2 8q-6 -14 -7 -26.5t-2 -24.5q-1 -7 -1 -13.5t-1 -13.5q0 -8 -8 -10q-5 -3 -11 5q-8 11 -12.5 21.5t-5.5 24.5q-2 25 -0.5 49.5t3.5 49.5q9 119 18 237t23 237q2 20 5 40t11 40q5 15 13.5 28
t27.5 16q4 1 7 4.5t7 5.5l8 4t8 1q25 -1 47.5 -7t39.5 -29q14 -20 28 -40.5t25 -42.5q20 -39 40.5 -78.5t40.5 -78.5q5 -8 8.5 -16.5t11.5 -15.5q6 6 8 12t4 13q17 47 37 91.5t46 86.5q8 14 17.5 27t18.5 27q13 19 31.5 30.5t38.5 20.5q11 6 26 4q8 -1 15 -2t15 -3
q25 -3 38 -21q16 -20 28 -42.5t16 -48.5q9 -61 12 -125q2 -42 1.5 -84.5t-2.5 -85.5q-2 -40 -3 -79.5t-3 -79.5q-1 -14 -3 -28.5t-4 -29.5q0 -6 -9 -8h1zM611 112h1v128h-1v-128zM712 322q2 29 4 57.5t-1 57.5q-4 -2 -4.5 -5t-0.5 -5q0 -26 0.5 -52.5t1.5 -52.5zM708 227h-2
v-81h2v81zM619 368q-3 -15 -2.5 -29.5t2.5 -29.5v59zM606 43h1v25h-1v-25zM97 573h-3l1 -3z" />
    <glyph glyph-name="p" unicode="p" horiz-adv-x="499" 
d="M170 2q-3 23 -3.5 44.5t2.5 43.5q1 2 -0.5 3t-2.5 3q-1 -1 -2.5 -1.5t-2.5 -2.5q0 -7 -0.5 -13.5t-0.5 -13.5v-37.5t-1 -37.5q-1 -23 -6 -45t-19 -41q-3 -4 -7 -12q-12 -23 -29 -9q-23 19 -43.5 40t-30.5 50q-11 35 -11 67q0 45 1.5 90t5.5 90q5 55 11.5 109.5
t18.5 108.5q7 35 14.5 68.5t15.5 67.5q2 10 5 18t11 15q5 5 6.5 10.5t3.5 11.5q2 9 9 13q3 2 9 2q6 -2 4 -8t-4 -11.5t0 -11.5q0 -2 2 -2h3q6 5 8 14q3 15 6 23t8.5 11.5t14.5 3t25 -4.5q14 -4 32 1q46 14 89.5 9t86.5 -24q36 -16 61.5 -41t39.5 -63q10 -24 14 -47t0 -49
q-3 -26 -15 -52q-13 -26 -30 -49t-37 -44q-42 -42 -86.5 -79.5t-91.5 -73.5q-13 -10 -27 -17.5t-30 -12.5q-12 -4 -16 -11.5t-4 -18.5q1 -13 0.5 -25.5t-1.5 -25.5q-1 -8 -2.5 -16.5t-3.5 -16.5zM209 444q-9 -6 -8 -16q0 -5 0.5 -9.5t1.5 -9.5q-11 -5 -10.5 -13.5t2.5 -17.5
q-7 -3 -8 -9q-2 -10 -3.5 -18.5t-2.5 -18.5q-1 -6 -2 -12.5t3 -12.5q8 17 9 35.5t3 36.5q2 8 4.5 15.5t4.5 15.5q1 8 1.5 17t4.5 17q1 3 1 9q0 3 1.5 6t-4.5 5q1 -5 1.5 -10t0.5 -10zM198 331q1 -2 1.5 -5t2.5 -4q5 -2 9 2q34 27 65.5 56t58.5 63q7 8 14 19q8 17 -4 32
q-12 13 -33 23q-12 6 -23.5 2t-16.5 -18q-2 -7 -6.5 -12t-7.5 -11q-4 -7 -14 -7l-10.5 -1.5t-5.5 -2t-3.5 -4.5t-2.5 -9q-2 -11 -4.5 -20.5t-4.5 -19.5q-4 -21 -7.5 -41.5t-7.5 -41.5zM66 83q0 -16 -1.5 -32t-1.5 -31.5t2 -31.5t9 -31q2 32 1.5 63.5t-9.5 62.5zM303 599
q3 1 5.5 0.5t4.5 0.5t5 4q0 4 -2 6q-6 4 -12 6t-13 -2q-2 -2 -4 -3t-4 -3q4 -6 7 -7t6.5 -1t6.5 -1zM72 206q1 -1 2 -1v24h-2v-23zM68 174l-1 2l-1 -2h2z" />
    <glyph glyph-name="q" unicode="q" horiz-adv-x="491" 
d="M5 157q1 51 8 101t17 100q12 57 29 112t42 108q3 7 6 13.5t8 13.5q4 5 8.5 10t12.5 5q5 0 8 2.5t6 5.5l5 5t6 3q17 0 29 8.5t25 16.5q36 22 78 18q20 -2 40 -5.5t40 -10.5q19 -7 37 -23t32.5 -37t24.5 -44t13 -43q11 -71 2 -138t-33 -133q-35 -100 -93 -184
q-15 -21 -7 -44q6 -17 9.5 -34t2.5 -35q-1 -27 -12.5 -48t-28.5 -39q-8 -9 -14 -10t-15 7q-17 14 -35 26.5t-30 32.5t-34 14q-5 -1 -10 -0.5t-10 -0.5q-21 -4 -42.5 1.5t-41 17t-34.5 28t-23 34.5q-12 27 -18 55t-8 57v34zM327 445q0 5 -0.5 10.5t-1.5 11.5q-1 5 -1.5 10
t-1.5 10q-5 20 -13.5 26t-29.5 6h-4q-20 2 -26 -16q-2 -4 -3.5 -8t-3.5 -8q-19 -41 -32 -83.5t-23 -87.5q-4 -14 -6.5 -29t-5.5 -30q-1 -5 0.5 -8.5t6.5 -3.5q6 -1 9.5 -4t8.5 -5q3 -2 5 -1t3.5 3.5t2.5 4t4 1.5q3 -1 5.5 -0.5t4.5 -0.5q5 -2 10 -3.5t10 -3.5q12 -5 15 -4
t10 14q14 29 26 60t20 63q5 18 7.5 37t3.5 39zM277 589q2 0 3 -0.5t3 0.5t4 5q0 3 -1 3q-4 2 -7 4.5t-7 3.5q-6 2 -13.5 -1.5t-5.5 -7.5q2 -5 5.5 -5.5t8.5 -0.5q3 -1 10 -1zM462 444q7 11 1 25q-6 -10 -1 -25zM47 174l2 1v6l-2 -1v-6z" />
    <glyph glyph-name="u" unicode="u" horiz-adv-x="585" 
d="M449 -42q-14 1 -21.5 8t-12.5 15q-14 25 -25.5 50t-16.5 54q-1 9 -5 22q-7 2 -9.5 -1t-4.5 -6q-14 -23 -30.5 -45t-33.5 -43q-35 -41 -81 -66q-27 -16 -55 -13q-4 1 -7 1.5t-7 -0.5q-32 -2 -55 13t-40 40q-13 17 -20 37.5t-11 41.5q-8 45 -8.5 91t4.5 92q11 97 37 189.5
t63 183.5q4 10 9 19.5t10 19.5q6 12 15 20.5t20 15.5q1 1 1.5 1t1.5 1q7 4 14.5 4.5t15 -0.5t14.5 -2t15 1q10 2 19 -4t17 -13q13 -12 16 -25q2 -6 2.5 -12t-6.5 -12q-9 -9 -7.5 -13.5t12.5 -12.5q10 -8 7 -20q-3 -9 -9 -15q-11 -11 -17.5 -25t-11.5 -28q-25 -66 -44 -132.5
t-31 -135.5q-5 -25 -7.5 -50t-1.5 -51q1 -5 0 -9t4 -6q7 -3 10 1.5t6 8.5l21 30q40 61 75 126q45 81 86 162t82 164q4 8 7.5 17t8.5 17q7 12 17 20.5t23 15.5q17 9 32 -8q8 7 15.5 9.5t17.5 -2.5q11 -6 20 -13.5t14 -18.5q5 -10 8.5 -20.5t-1.5 -21.5q-1 -3 -1.5 -7t1.5 -6
q9 -14 5.5 -27t-6.5 -26l-28 -124t-25 -125q-8 -38 -14 -77t-11 -77q-5 -36 -16.5 -69.5t-31.5 -63.5q-11 -15 -20 -31.5t-14 -33.5zM83 195q1 -2 3 -8q3 2 3 8v4t-3 3q-1 0 -3 -7zM438 -11l1 -2l1 2h-2z" />
    <glyph glyph-name="v" unicode="v" horiz-adv-x="499" 
d="M126 578q5 12 6.5 24.5t2.5 24.5q1 11 1.5 22t1.5 22q2 9 10 6q37 -11 42 -51q1 -7 1.5 -13.5t4.5 -12.5t4 -13t-1 -13q-2 -41 -4.5 -80.5t-6.5 -79.5q-5 -50 -8.5 -99.5t-1.5 -100.5q0 -7 0.5 -13.5t0.5 -13.5t4 -8q5 -2 6.5 0.5t3.5 5.5q10 23 20 45t19 45
q24 66 48 131t48 131q5 12 9.5 24t9.5 23q20 45 61 76l42 30q7 5 15.5 2t11.5 -11q4 -11 5 -20q2 -14 4.5 -28.5t5.5 -28.5q12 -59 -8 -117q-31 -90 -62.5 -178t-69.5 -175q-12 -29 -26.5 -57t-31.5 -55q-18 -30 -45 -54q-12 -11 -25.5 -16.5t-30.5 -0.5q-9 2 -18 2t-18 -2
q-50 -10 -83 35q-11 16 -19 33.5t-13 36.5q-10 38 -14 76t-6 76q-2 54 1 108.5t9 108.5q3 36 6 72.5t5 73.5q0 34 6 67q1 10 9 19t18.5 15.5t22 9t21.5 -0.5q8 -1 8 -10q0 -5 -0.5 -10t-0.5 -10q-1 -15 -1.5 -30.5t-1.5 -30.5q0 -4 2 -12zM128 545q-1 2 -1 6q-1 -1 -1 -2v-4
h2zM108 299l-2 -2l2 -1v3zM114 257l-1 2l-1 -2h2z" />
    <glyph glyph-name="w" unicode="w" horiz-adv-x="779" 
d="M475 -19q7 15 -5 21q-13 5 -18.5 14.5t-10.5 20.5q-15 32 -25 65t-19 67q-8 31 -15 61.5t-15 60.5q0 6 -6 8q-5 0 -7 -5q-5 -8 -9.5 -16.5t-9.5 -16.5q-29 -54 -57.5 -107.5t-57.5 -107.5l-10 -18l-10 -18q-10 -20 -26 -33.5t-34 -24.5q-15 -10 -31.5 -10t-33.5 5
q-12 4 -19.5 13t-6.5 23q1 5 0 11t-1 12q-24 2 -31 8.5t-9 29.5q-3 20 -3 39t1 39q2 66 9.5 130.5t16.5 129.5q6 44 11 87.5t6 88.5q0 14 4 27.5t10 27.5q6 11 17 5q5 -3 8.5 -3t8.5 5q8 10 18 11.5t22 -0.5q10 -2 19 -5.5t19 -6.5q3 -1 6 -3.5t6 -0.5q12 9 16.5 3t8.5 -13
q6 -13 8.5 -25.5t-5.5 -26.5q-2 -3 -2.5 -6.5t-0.5 -6.5q-2 -44 -7 -86.5t-12 -85.5q0 -2 0.5 -5t0.5 -5q8 3 11 9.5t6 11.5q14 23 28 46.5t28 46.5q6 11 13 20t14 19q6 8 13.5 13.5t17.5 5.5q10 1 16 6t14 9l-1 1q8 -7 16 -7.5t17 1.5q8 1 16 0t16 -6q10 -6 23 -3
q10 2 16.5 -2.5t11.5 -12.5q18 -28 27 -62q6 -23 11 -46l10 -46q6 -26 11.5 -51.5t10.5 -51.5q2 -7 4 -13t4 -13q8 4 9 10t3 11q17 69 33.5 137t33.5 137q4 17 9 34t13 34q7 16 15.5 31t25.5 25q4 2 6 6t4 7q4 5 7.5 9.5t8.5 8.5q20 20 29 18t20 -27q5 -10 6 -20t0 -20
q-1 -8 -1.5 -15.5t-1.5 -15.5q-2 -6 -3.5 -12.5t1.5 -14.5q7 12 9 25t2 26q7 2 9 -1t3 -7q7 -22 7.5 -43.5t-3.5 -43.5q-11 -56 -24 -110t-27 -109q-15 -62 -31 -123t-36 -122q-6 -18 -12 -35.5t-16 -33.5q-19 -29 -44.5 -45t-62.5 -14q-34 3 -56 33q-2 3 -3 5.5t-5 3.5z
M633 5q3 -3 -1 -5l-2 1q-3 3 2 3q2 0 2 -0.5t-1 -0.5q-3 2 -2 0.5t2 1.5zM47 192q-1 1 -2 1q-2 -19 -3.5 -37t-3.5 -37q-1 -8 -0.5 -15t1.5 -15q0 -1 1.5 -2t2.5 -2q4 -1 4 3v104zM184 578h-5q-1 -11 -2 -21t-2 -21q0 -3 1 -4t1.5 -2t2.5 -2q4 -2 4 4v46zM87 583
q-7 -29 -7 -50q0 -7 6 -5q3 0 3 4q1 11 1.5 22.5t-3.5 28.5zM79 471q0 8 3.5 17t-3.5 20v-37zM666 544v3q0 2 -1 3q-2 -2 -2 -3q0 -2 0.5 -3t0.5 -2zM658 515v2l-1 1v-3h1zM645 462l-2 -1l1 -2z" />
    <glyph glyph-name="x" unicode="x" horiz-adv-x="514" 
d="M253 520q11 5 16.5 12.5t10.5 13.5q24 29 49.5 58t52.5 55q10 10 20.5 18.5t22.5 15.5q9 5 18 8.5t20 -0.5q5 -1 13 -1q26 2 42 -7t27 -30q1 -4 2 -7l2 -6q7 -16 -9 -20q-5 -1 -9 -1t-7 -4q-3 -2 -3 -5q0 -5 3 -5q5 -2 10 -2.5t10 -2.5q14 -5 12 -21q-1 -16 -14 -27
q-7 -9 -16 -12q-24 -11 -42 -28t-35 -36q-29 -33 -56 -67t-53 -68q-14 -20 -4 -41q17 -41 36 -80.5t40 -78.5q12 -23 22.5 -46t18.5 -47q6 -18 9.5 -36t3.5 -37q0 -11 0.5 -22t1.5 -22q0 -14 -12 -14h-10.5t-10.5 2q-46 13 -82.5 38t-59.5 69q-16 29 -31 58.5t-30 58.5
l-9 18q-8 -1 -10.5 -5t-5.5 -8l-32 -50t-31 -51q-23 -38 -51.5 -70.5t-66.5 -58.5q-11 -8 -21.5 -16t-19.5 -19q-5 -6 -14 -4.5t-11 9.5q-2 5 -2.5 10t-1.5 10q-8 45 -4 88t22 85q7 16 15 31t16 29q30 51 61 98.5t65 95.5q8 11 9 21t-4 23q-14 34 -28 67.5t-28 67.5
q-5 12 -8 24t-4 25q-1 6 -1.5 12t4.5 11q5 6 6.5 11t-2.5 13q-5 9 -1.5 16t9.5 14q20 19 45 23q7 1 13 -0.5t10 -9.5q7 -17 14 0q0 1 3.5 1t5.5 -1q22 -6 29 -26q7 -15 13.5 -29.5t12.5 -29.5l12 -28t12 -30z" />
    <glyph glyph-name="y" unicode="y" horiz-adv-x="584" 
d="M610 592q6 1 12 1h12q6 -1 9.5 -7t0.5 -11q-5 -10 -11.5 -17.5t-17.5 -8.5q-7 -1 -10.5 -3t-8.5 -7q-16 -16 -26 -35q-27 -42 -47 -83q-95 -192 -146 -398q-8 -32 -19 -61.5t-28 -58.5q-8 -11 -16 -23t-19 -22q-10 -8 -14.5 -19t-9.5 -22t-16 -4q-15 11 -23 29
q-11 27 -17 53.5t-6 55.5q3 90 28 175q4 14 7.5 28.5t8.5 29.5q-11 2 -19 -1.5t-16 -5.5q-20 -8 -42 -11.5t-44 -4.5q-12 -1 -24 2q-17 4 -29 13t-18 26q-2 8 -5.5 12.5t-11.5 6.5q-11 3 -17 11t-11 18q-5 14 -7.5 28t-3.5 29q0 27 3 54t7 54q8 48 20 93.5t26 90.5
q2 8 6 15.5t16 2.5q3 -1 5 3q6 9 13 13.5t15 5.5t16 0t16 -1q7 0 13.5 -2.5t12.5 -4.5q5 -1 7 1t5 4q7 9 14 0q8 -8 14 -17t9 -20q2 -7 2.5 -14t-6.5 -14q-10 -9 0 -21q6 -6 0 -15q-9 -11 -12.5 -24t-7.5 -26q-20 -62 -27 -126q-2 -8 -2 -17t-1 -17q0 -5 3 -6t6 -1l6 2t7 3
l59 29.5t60 28.5q9 5 14 11.5t10 15.5q12 26 24.5 53.5t25.5 53.5q14 27 29.5 53.5t33.5 51.5q5 5 9 10.5t8 11.5q14 21 34.5 28.5t45.5 4.5q11 -2 21 -1t21 8q21 11 37 -7q9 -11 16.5 -22t7.5 -25q1 -10 -2 -13.5t-12 -5.5q-11 -3 -14 -5t-9 -12zM36 348h-2q-1 -5 -1.5 -11
t-1.5 -12v-6.5t1 -6.5q1 -4 2 -7.5t8 -1.5zM192 237q-2 -1 -3.5 -1t-3.5 -1q-6 -2 -5 -7q0 -7 6 -5q5 0 8 1t7 3q4 0 4 4q-2 4 -4 5q-6 0 -9 1zM148 226q-2 0 -3 -1q-4 -3 -2.5 -5.5t3.5 -5.5q2 -7 7 -4q3 3 2 6q0 6 -7 10z" />
    <glyph glyph-name="z" unicode="z" horiz-adv-x="562" 
d="M374 521q-5 3 -8 2l-6 -2q-23 -10 -45.5 -19.5t-45.5 -19.5q-11 -5 -21 -11.5t-18 -14.5q-8 -7 -16 -11t-17 -7q-10 -5 -19 1q-8 6 -12 3q-6 -5 -12 -5t-11 2.5t-10 5.5t-11 4q-9 1 -14 8t-9 15q-2 4 -4 7.5t-4 7.5q-4 8 3 15q5 5 10 9t10 7q2 6 -2 7q-20 4 -22.5 8
t4.5 21q10 19 23 30q5 4 9.5 7t9.5 6q65 38 132.5 65.5t141.5 43.5q24 5 48.5 5t49.5 -2q20 -1 35.5 -11t26.5 -26q9 -14 15.5 -30t3.5 -34v-7q6 -27 -2 -50t-21 -46q-20 -37 -44.5 -70.5t-50.5 -66.5q-48 -58 -97.5 -113t-100.5 -111q-12 -14 -24.5 -27.5t-25.5 -27.5
q-2 -2 -3 -4t0 -5q2 -4 8 -4q13 1 25.5 1.5t25.5 2.5q22 3 44 4t44 1q15 -1 30.5 -2.5t30.5 -4.5q24 -6 47.5 -11t49.5 -6q20 0 12 -20q-3 -7 -10 -14q-37 -35 -79 -60.5t-93 -36.5q-11 -3 -23 -4t-24 -3q-51 -5 -101.5 -8.5t-101.5 -3.5q-11 0 -21 0.5t-20 2.5
q-25 5 -45.5 16.5t-31.5 37.5q-2 3 -3.5 6t-1.5 6q2 14 1 28.5t-1 28.5q0 12 5.5 23.5t13.5 22.5q11 15 21.5 29t21.5 28q29 32 58 64.5t58 64.5q49 54 97.5 108.5t94.5 111.5q6 8 12.5 15.5t9.5 16.5zM394 20q-2 -1 -3 -2t-3 -1q-24 -2 -48.5 -4t-49.5 -4q-31 -2 -62 -3.5
t-63 -3.5q-9 0 -16 -4q-8 -2 -6 -11q1 -4 8 -4q15 2 30 3t30 3q44 5 86.5 10t85.5 10q5 1 7 4t4 7q24 -6 38.5 -4.5t35.5 11.5q-18 -5 -36.5 -5.5t-37.5 -1.5z" />
    <glyph glyph-name="r" unicode="r" horiz-adv-x="550" 
d="M447 136q26 -1 45.5 -15.5t27.5 -39.5q2 -5 -1 -9.5t-9 -4.5q-5 -1 -10.5 -1h-10.5h-119q-34 1 -67.5 -3t-67.5 -10q-5 -1 -9.5 -3t-9.5 -7q21 -3 42 -1.5t41 1.5q22 -1 44 -0.5t44 -0.5q21 -1 42.5 2t44.5 -6q-16 -11 -31 -16.5t-31 -7.5q-13 -2 -25.5 -2.5t-25.5 -0.5
q-32 1 -64.5 -0.5t-64.5 -4.5l-22 -2t-20 -7q-13 -8 -23.5 -18t-12.5 -28q-2 -11 -7 -22l-10 -22q-9 -17 -18 -33t-14 -34q-12 0 -19.5 4.5t-13.5 12.5q-32 37 -50 78.5t-16 91.5q2 63 6.5 125.5t12.5 125.5t17 124.5t18 124.5q2 17 6 37.5t17 49.5q5 9 12.5 14.5t15.5 10.5
q14 9 20.5 8t19.5 -15q5 6 10.5 11.5t16.5 2.5q10 -3 19 0t18 5q45 11 89 12t89 -10q24 -6 46.5 -15.5t42.5 -25.5q26 -22 43 -49t19 -63q0 -4 1 -7q9 -36 0 -68.5t-29 -62.5q-21 -32 -46 -60t-51 -54l-69 -66q-2 -2 -3 -4t2 -5q2 -2 5 -2q11 0 20.5 -0.5t20.5 -0.5l10 -2
t8 -9q-11 -2 -21.5 -1t-21.5 2q-8 0 -15 1t-15 1q-9 2 -15 -2.5t-11 -10.5q-3 -3 -1 -6q2 -4 5 -4q8 0 15 -0.5t15 -0.5q25 -1 49.5 -1t49.5 -1zM84 -27q5 -2 3 3q0 1 -0.5 1.5t-0.5 1.5q-4 0 -4 -4q0 -2 2 -2zM288 588q-3 0 -3 -5q0 -1 1.5 -2t2.5 -2q5 0 9.5 -0.5
t3.5 -0.5q14 0 17 1q4 0 8 -0.5t7 4.5q2 2 -3 5.5t-11 5.5q-8 2 -16 -0.5t-16 -5.5zM198 271q39 35 76.5 70t71.5 75q10 11 18 22.5t16 23.5q11 16 -4 26q-17 11 -35.5 16.5t-38.5 0.5q-11 -3 -21.5 -5.5t-21.5 -4.5q-24 -5 -34.5 -20.5t-15.5 -36.5q-1 -3 -1 -6.5t-1 -7.5
q-5 -32 -9 -65t-9 -66q-1 -6 -1 -12v-14q5 2 7 2.5t3 1.5z" />
    <glyph glyph-name="one" unicode="1" horiz-adv-x="286" 
d="M180 649q6 -1 11 -2.5t10 -1.5q4 1 7.5 2t8.5 -1q21 -5 34 -18t21 -33q2 -5 -4 -8q-3 -1 -6.5 -1.5t-3.5 -5.5q1 -5 4 -6t5 -3q15 -12 18 -31.5t-11 -30.5q-12 -10 -18.5 -21.5t-11.5 -25.5q-14 -45 -25.5 -91t-20.5 -93q-9 -48 -15.5 -97t-12.5 -98l-4 -30t-7 -30
q-9 -33 -30 -60q-10 -14 -19.5 -26t-19.5 -25q-13 -15 -26 -1q-1 0 -3 2q-29 38 -44.5 79.5t-10.5 90.5q12 118 33.5 232t57.5 226q5 17 11.5 32t13.5 31q5 14 15.5 23.5t24.5 16.5q5 2 9.5 3t8.5 2zM81 -56q-2 4 -3 7l-2 -4t-1 -4v-4q0 -1 1 -2q4 -1 4 1.5t1 5.5z" />
    <glyph glyph-name="two" unicode="2" horiz-adv-x="487" 
d="M278 -11q7 -1 13.5 0.5t12.5 -2.5q-1 -7 -8 -10q-42 -21 -85 -31.5t-89 -12.5h-10q-18 2 -23 6t-10 24q0 2 -1 3l-3 3h-9.5t-9.5 1q-21 3 -34.5 16.5t-15.5 35.5q-2 29 12 55q13 26 27.5 49.5t31.5 46.5l76 98l76 98q20 26 38.5 51.5t35.5 53.5q7 11 12.5 21t8.5 22
q1 3 -1.5 6t-6.5 2q-7 -2 -13 -4t-13 -4q-43 -19 -80 -50q-7 -6 -11.5 -13t-5.5 -16q0 -7 -2 -13t-4 -13q-2 -9 -6 -12t-12 -3q-18 1 -19 -18q-3 -21 -26 -19q-14 2 -16 15v9t1 8q0 4 1.5 7.5t-0.5 5.5q-6 13 -4.5 25.5t2.5 24.5q1 2 -0.5 3.5t-2.5 1.5q-5 0 -6 -3
q-5 -11 -10.5 -22.5t-7.5 -24.5q-2 -9 -8.5 -11.5t-13.5 2.5q-11 9 -18 20.5t-8 25.5q0 27 12 53q38 78 101 123t147 64q25 6 49 4.5t48 -8.5q32 -10 55 -33q5 -5 9.5 -10.5t6.5 -11.5q6 -23 16.5 -44.5t8.5 -46.5q-3 -55 -27 -104q-17 -35 -38.5 -66.5t-44.5 -62.5
q-32 -42 -64 -83t-64 -83q-3 -4 -5.5 -7t-1.5 -10q10 -2 19.5 0.5t18.5 1.5q11 0 21 0.5t20 0.5h41q2 -7 -1 -9t-7 -4q-5 -2 -10 -4.5t-10 -6.5q23 2 45.5 7t44.5 10q9 2 18.5 6.5t19.5 -4.5q-1 -11 -8.5 -16t-13.5 -13q-2 -3 -5.5 -5.5t-6.5 -5.5q-59 -66 -143 -87
q-2 0 -2.5 -1.5t-2.5 -2.5q-11 1 -24 -2q-26 -7 -52.5 -11.5t-53.5 -4.5q-10 0 -17 -3q-2 -1 -4 -3t-2 -4t1.5 -4t3.5 -4q5 -4 11 -4t12 2q26 5 52.5 11.5t52.5 15.5q5 2 10.5 3.5t8.5 8.5zM306 638q6 -4 12 -3.5t13 2.5q2 0 2 5t-2 5q-17 5 -25 -9zM385 644q-2 1 -2.5 2
t-2.5 1q-5 0 -1 -4l2 -2q4 0 4 3zM322 546q-4 5 -8 1q-2 -1 -2.5 -2t-2.5 -2q3 -1 10 -1q3 0 3 4z" />
    <glyph glyph-name="three" unicode="3" horiz-adv-x="433" 
d="M87 438q-15 -5 -13 -21q0 -17 -13 -9q-5 2 -11 6t-4 10q3 12 -2 16t-14 6q-8 2 -12 7t-7 11q-8 18 -5 35.5t13 33.5q12 20 26 39t32 35q48 40 101 65.5t115 34.5q23 3 44 -2.5t41 -16.5l6 -4t4 -4q5 -15 15.5 -26t18.5 -24q13 -19 10 -45q-2 -22 -7 -42t-16 -39
q-15 -27 -32.5 -52t-34.5 -51q-5 -8 -10.5 -15.5t-10.5 -15.5q-5 -6 2 -11q8 -6 16.5 -10.5t13.5 -11.5q15 -18 29.5 -36t22.5 -39q26 -67 -11 -134q-31 -56 -73 -98q-21 -23 -43.5 -43.5t-45.5 -40.5q-33 -30 -77 -42q-10 -2 -19.5 -3.5t-19.5 5.5q-8 5 -16.5 2.5
t-16.5 -3.5q-10 -1 -19 -2t-18 3q-13 4 -8 18q2 5 4.5 9t4.5 9q10 33 28 60t39 53q7 8 14 15l14 14q20 19 39 36.5t38 35.5q16 15 27 35q11 21 -9 29q-15 7 -32 13q-13 5 -24 12t-17 21q-2 5 -5.5 8.5t-7.5 6.5q-14 10 -19 23.5t-4 30.5q3 33 21 60q12 20 24.5 39t24.5 38
q6 10 16 23q-5 5 -8.5 2.5t-6.5 -4.5q-9 -5 -17 -11.5t-11 -16.5q-2 -10 -6.5 -15t-14.5 -6q-6 -1 -8.5 -6t-1.5 -10q3 -17 -9 -23q-18 -8 -36 -1q-5 2 -7 11q-1 6 -1 12t-1 11q4 -1 4 2h-1h-1q-1 0 -1 -2zM62 455h-1q1 0 1 1l-1 1zM288 662q4 0 6 1q7 2 6 7q-2 5 -8 5
q-7 0 -9 -2t-2.5 -4t-2.5 -4l6 -3h4zM82 478q5 4 4 8.5t1 9.5q0 1 -1.5 2.5t-2.5 0.5q-2 0 -5 -3q-2 -8 4 -18zM345 670q2 10 -7 13q-6 4 -8 1q-1 -2 -1 -6q4 -8 7 -11q2 -2 5 -2q2 1 2.5 2.5t1.5 2.5zM208 252q-2 7 -7 5q-1 0 -2 -2t0 -2q1 -3 6 -5q1 1 1.5 2t1.5 2z" />
    <glyph glyph-name="four" unicode="4" horiz-adv-x="485" 
d="M231 67l6 57q1 13 -10 14q-7 2 -10 1q-31 -2 -59 6t-57 16q-16 5 -30 12.5t-27 17.5q-39 29 -38 82q1 37 14.5 66.5t35.5 56.5q26 35 55 66.5t59 63.5q25 25 49 50l48 50q13 13 26.5 23.5t33.5 12.5q5 0 7.5 3.5t4.5 6.5q15 21 37 30q7 3 14 2.5t11 -10.5q2 -5 4.5 -4
t4.5 5q7 13 23 8q17 -7 29 -17.5t15 -29.5q1 -5 1.5 -10t-1.5 -10q-3 -8 -3 -14.5t8 -12.5q3 -3 3 -7.5t-2 -8.5q-16 -46 -22.5 -92.5t-14.5 -94.5t-16 -96.5t-16 -97.5q-6 -38 -12 -77t-12 -77q-5 -34 -19.5 -61.5t-42.5 -47.5q-2 -1 -5 -4q-17 -14 -25 -14t-23 15
q-24 26 -35.5 56t-8.5 65zM280 393q-25 -20 -47 -45.5t-32 -44.5q13 -5 25 -9.5t25 -9.5q9 -4 11 4q6 25 10.5 50.5t7.5 54.5zM398 662l1 -2v2h-1z" />
    <glyph glyph-name="five" unicode="5" horiz-adv-x="537" 
d="M509 631q-4 -3 -7 -2.5t-6 0.5q-38 8 -74.5 7.5t-74.5 -5.5q-19 -2 -37.5 -3.5t-36.5 -6.5q-7 -2 -4 -7q0 -3 5 -3q8 0 17 0.5t17 1.5q99 4 197 3q5 0 10 -0.5t10 -1.5q9 0 11 -6t-1.5 -8t-6.5 -4q-15 -7 -28 -16.5t-27 -17.5q-11 -7 -22.5 -11.5t-25.5 -5.5
q-29 -3 -57.5 -6t-57.5 -6q-3 0 -6.5 -0.5t-6.5 -0.5q-14 -2 -21.5 -3t-12.5 -4.5t-9 -10.5t-10 -20l-24 -54t-24 -55q-4 -11 9 -14q14 -2 27 -4t26 -5q26 -5 50.5 -15t46.5 -26q33 -23 49 -59q2 -5 5.5 -19.5t6.5 -31.5t5 -32t1 -20q-2 -18 -9 -34.5t-17 -31.5
q-18 -27 -41 -49.5t-49 -41.5q-56 -40 -114 -68q-26 -12 -53 -17.5t-56 -1.5q-11 2 -21 6.5t-19 9.5q-13 8 -16 17.5t1 23.5q2 8 4 15l4 14q11 31 34 50q22 16 43 27l46 26t44 29q14 10 25.5 20.5t21.5 23.5q6 8 5.5 12.5t-8.5 9.5q-25 16 -53 20q-34 8 -64 8q-14 1 -27 2.5
t-27 2.5t-24.5 7t-19.5 16q-35 38 -24 88q10 41 25 79.5t32 76.5q6 14 13 29t5 32q0 6 4 10.5t9 8.5q7 5 8 11q-2 1 -4 5q-4 3 -9 4.5t-7 7.5q-2 7 1.5 11t8.5 9q9 11 20.5 17.5t24.5 11.5q38 14 76 18q33 4 66 7t66 5q43 2 82 -11t75 -36q2 -1 2.5 -3.5t2.5 -4.5zM181 300
q3 1 7 1q5 0 3 4t-10.5 5t-10.5 -2q0 -3 2 -5zM80 311l-3 -6q0 -1 1 -1t1 -0.5t1 -0.5q1 2 3 4q0 1 -3 4z" />
    <glyph glyph-name="six" unicode="6" horiz-adv-x="472" 
d="M436 351q2 0 3 -1q13 -22 23 -44.5t10 -49.5q-1 -59 -30 -110q-31 -55 -73.5 -97t-100.5 -68q-20 -9 -43 -7q-43 2 -85 0q-15 0 -28.5 2t-25.5 13q-4 4 -9 5q-20 5 -30.5 18t-18.5 29q-9 18 -14 36.5t-7 38.5q-6 77 17 155q14 50 32.5 97.5t40.5 95.5q9 20 20 38t23 35
q16 23 30.5 45.5t28.5 45.5q14 22 33 39t39 32q17 13 36 14t39 -5q1 -1 1.5 -1t1.5 -1q3 -1 4 -4t1 -6t0.5 -5.5t3.5 -3.5q5 -2 10 0.5t9 -2.5q2 -2 3 -4t-2 -5l-16 -12t-16 -13q-7 -5 -2 -12q5 -5 12 -3q5 2 10.5 5.5t10.5 5.5q10 4 16.5 -1t5.5 -16q0 -5 -0.5 -10
t-0.5 -10q0 -22 -17 -30q-15 -9 -27 -21t-23 -25q-42 -51 -73 -114l-6 -12v-7q6 -4 12 -1.5t11 2.5q25 3 49.5 3t48.5 -8q19 -8 36 -18t28 -29q-2 -2 -6.5 -3.5t-0.5 -7.5q0 -2 2 -2q5 2 3.5 5t-0.5 6q0 2 1 3zM306 258q-28 -2 -54 -4.5t-51 -10.5q-15 -3 -19 -16
q-5 -22 -9 -43t-3 -44q0 -2 0.5 -5t0.5 -5q2 -13 6 -15t16 4q19 11 34 22q9 8 17.5 16t16.5 17q17 17 29.5 36.5t15.5 47.5zM237 336q25 0 48.5 4t46.5 -1q4 0 4 4q2 3 -1 6q-6 8 -14 8q-12 -1 -24 -1t-23 -2q-10 -2 -19.5 -4.5t-17.5 -13.5zM40 180q-6 -19 -4 -33.5
t2 -28.5q3 13 4.5 21t1.5 14t-1 11.5t-3 15.5zM136 172q-3 -3 -3 -4q0 -5 3 -5q6 -2 4 5q0 2 -4 4zM432 228l1 -2l1 2h-2z" />
    <glyph glyph-name="seven" unicode="7" horiz-adv-x="421" 
d="M118 625q-10 5 -19 7t-20 -1q-13 -3 -26 -4t-27 -2q-23 0 -12 23q5 10 12.5 17.5t18.5 12.5q7 3 14 5.5t15 4.5q38 8 76.5 13.5t77.5 8.5q20 2 40.5 1.5t41.5 -2.5q28 -3 48 -14q55 -29 58 -89v-9t1 -8q5 -20 2.5 -39t-9.5 -38q-11 -32 -23 -63.5t-24 -63.5
q-24 -66 -48.5 -132t-47.5 -133q-16 -42 -38.5 -79t-54.5 -69q-10 -9 -18.5 -19.5t-17.5 -20.5q-3 -3 -6 -6.5t-6 -5.5q-9 -7 -15 2q-2 4 -3.5 7.5t-2.5 8.5q-11 42 -16 84t6 86q7 27 13 53t16 52q28 76 56 151.5t56 150.5q2 8 5 15t5 14t-5 7q-2 1 -7 1q-26 -5 -52 -7.5
t-51 -10.5q-5 -2 -10 -3t-10 0q-21 6 -40 0q-6 -2 -12.5 -1.5t-10.5 4.5q-5 8 -14 10.5t-14 11.5q-7 14 -11 23t-2.5 14.5t9.5 8.5t26 6q16 2 31 4.5t30 4.5l8 2t7 6zM184 634q0 -2 -0.5 -3.5t-0.5 -3.5h74q4 0 4 5q0 2 -2 6q-5 6 -16 4q-15 -2 -29.5 -4t-29.5 -4zM347 637
h-2q-1 -1 -1 -3q1 -2 2 -1.5t1 2.5v2z" />
    <glyph glyph-name="eight" unicode="8" horiz-adv-x="457" 
d="M342 9q0 -6 -3.5 -9.5l-6.5 -6.5q-58 -54 -131 -78q-39 -13 -84 -7q-22 3 -39.5 13t-24.5 34q-2 7 -7 11.5t-10 9.5q-12 10 -18.5 23.5t-8.5 29.5q-5 23 -3 47t7 47q10 45 26 86.5t37 81.5q2 4 4 7.5t5 7.5q12 18 1 37q-22 35 -23 74q-1 38 11 70.5t35 61.5
q26 32 55 60.5t63 51.5q33 24 72 36q16 5 32 5.5t32 -1.5q11 -1 19.5 -5.5t12.5 -15.5q6 -11 18 -13q11 -2 17 -8.5t11 -14.5q8 -17 12.5 -34t1.5 -35q-2 -15 -4.5 -30t-7.5 -30q-11 -39 -25.5 -77t-31.5 -75q-5 -11 -11.5 -21t-17.5 -15q-8 -4 -11.5 -10.5t-8.5 -12.5
q-8 -11 -8 -14t7 -12q9 -12 18.5 -24.5t17.5 -25.5q15 -25 22.5 -52.5t2.5 -57.5q-7 -51 -40 -96q-1 -3 -8 -5l1 -1q-6 -4 -8 0q2 0 2 -2q0 -3 -2 -5zM418 579q1 2 2 2.5t1 2.5q1 1 -2 4q0 -1 -1 -2t-1 -2q0 -2 2 -6q-2 0 -3 1h2zM46 115q-3 0 -4 -1q-16 -27 1 -58
q1 15 1 30t1 30q2 4 2 6q0 1 -0.5 2t-0.5 2q-2 -4 -2 -5q0 -2 2 -6zM247 457q-15 -15 -17 -21.5t3 -22.5q5 12 10 22.5t3 22.5l2 1zM209 189q-12 -19 -18.5 -37t-11.5 -36q-2 -8 -6 -16.5t4 -13.5q6 -4 13 1.5t14 9.5q3 2 5.5 4t5.5 4q34 29 9 66q-2 4 -6 8t-9 10zM102 415
v35q0 5 -4 3q-5 -3 -5 -4q-2 -8 -1.5 -16.5t10.5 -17.5zM308 669h14.5t11.5 1q4 0 6 2.5t0 6.5q-3 5 -7 5q-7 0 -13 -2.5t-12 -12.5zM178 -38l-2 2q-1 1 -1 2q-6 -2 -8 -4q-1 0 -0.5 -2.5t1.5 -2.5q7 -3 10 5zM141 -38q-8 0 -6 -6q0 -9 10 -9q6 1 6 7q0 8 -10 8z" />
    <glyph glyph-name="nine" unicode="9" horiz-adv-x="493" 
d="M203 -36l-3 -9q0 -2 -1 -2.5t-2 -2.5q-5 2 -5 4q-2 7 -3 13.5t-1 13.5q-2 31 2.5 61t13.5 59q8 26 16.5 51.5t16.5 51.5q2 5 3.5 10t-1.5 10q-9 -2 -15 -7t-14 -10l-26 -16t-27 -13q-37 -13 -77 1q-22 7 -26 24q-2 9 -7 14t-13 10q-10 6 -15.5 15.5t-8.5 20.5
q-7 26 -4 54q5 53 19 102t38 96q10 18 24 37q14 18 29 35.5t30 34.5q21 23 47.5 37t57.5 22q24 5 47 0.5t46 -12.5q10 -4 13 -10q9 -15 23.5 -24.5t23.5 -23.5q5 -8 12 -11.5t16 -4.5t11 -4t2 -12v-3q0 -6 -1 -12t4 -11q6 -6 10.5 -1.5t9.5 6.5q9 4 14 -5q12 -20 10 -46
q-2 -24 -6 -47t-10 -46q-6 -25 -13 -49.5t-15 -48.5q-20 -63 -41 -126l-42 -126q-8 -26 -19.5 -51.5t-28.5 -48.5q-8 -11 -15.5 -20.5t-19.5 -15.5q-8 -4 -11.5 -10.5t-6.5 -13.5q-7 -14 -16 -26t-18 -25q-4 -5 -8.5 -3.5t-7.5 6.5q-7 14 -9 28t-1 28q1 13 2 25.5t2 25.5
q-2 0 -3 0.5t-2 0.5zM200 409q6 -1 9 3t7 8q14 16 28 31.5t28 31.5q5 5 8.5 10.5t8.5 10.5q3 5 -1 9q-1 2 -3.5 3.5t-4.5 0.5q-12 -4 -22.5 -9.5t-18.5 -14.5q-11 -12 -23 -37.5t-16 -46.5zM48 364q-9 -20 -10.5 -36.5t2.5 -34.5q4 9 6 15t2.5 12.5t0.5 16.5t-1 27zM254 644
q10 -4 18.5 -3.5t16.5 0.5q2 0 4 4q0 5 -2 6q-2 2 -5 4t-6 2q-14 0 -26 -13zM212 -8q-2 8 -2 0q0 -2 1 -3q0 2 1 3z" />
    <glyph glyph-name="zero" unicode="0" horiz-adv-x="495" 
d="M494 453q3 -46 -8 -94q-17 -74 -44.5 -142.5t-68.5 -133.5q-16 -25 -34 -48.5t-39 -44.5q-17 -18 -37 -32t-42 -26q-13 -7 -27 -10.5t-29 -1.5q-3 1 -6.5 1h-6.5q-41 -2 -68.5 17.5t-47.5 51.5q-17 26 -23 54.5t-7 58.5q-1 37 3 73t12 72q10 48 23.5 94t30.5 92
q13 33 25.5 66.5t20.5 68.5q5 21 17 37q5 7 8 14.5t8 14.5q16 26 38 40t54 15q25 1 49 -0.5t48 -8.5q63 -19 103.5 -68t45.5 -115q1 -11 1.5 -22.5t0.5 -22.5zM166 130v-21q0 -3 3 -6q3 -2 9 2q13 12 24 26t21 29q32 47 54.5 97.5t39.5 104.5q5 18 9.5 36t7.5 37q5 30 -4 57
q-9 28 -38 34q-11 2 -14 -6q-4 -9 -7 -20q-8 -32 -18.5 -61.5t-21.5 -60.5q-11 -30 -21 -60.5t-19 -61.5q-10 -31 -16.5 -62.5t-8.5 -63.5zM268 606q0 5 -5 7q-2 0 -6 -2q2 -2 3 -3.5t3 -2.5q3 -3 5 1zM88 143l1 -3l1 3h-2z" />
    <glyph glyph-name="numbersign" unicode="#" horiz-adv-x="718" 
d="M714 453q-13 2 -26 3t-27 3q-5 0 -10.5 0.5t-10.5 0.5q-2 -1 -4.5 -1t-4.5 -2q-6 -3 -6 -11q1 -6 7 -6q4 -1 10 -1q9 1 17.5 1.5t16.5 0.5q11 0 21 2.5t21 -3.5q-4 -11 -12 -16.5t-16 -12.5q-17 -17 -37 -27t-43 -15q-21 -3 -26 -22q-4 -11 -8.5 -22t-9.5 -22
q-3 -9 -2 -13.5t9 -10.5q11 -8 22 -17t22 -17q-2 -7 -5 -7h-6l-48 6h-6.5t-5.5 -4q-3 -3 -3 -9q0 -4 5 -4q10 0 20 0.5t20 -0.5q6 0 12 1t12 -6q-19 -12 -37 -24t-38 -20q-11 -4 -16 -10.5t-7 -16.5q-6 -22 -12 -43.5t-13 -44.5l-8 -24t-9 -24q-16 -40 -51 -67
q-7 -5 -14 -11t-15 -12q-8 -7 -17 -6.5t-16 9.5q-18 23 -28.5 49t-8.5 57q2 40 10 74l2 10t3 10q5 19 1.5 22.5t-23.5 1.5q-14 -2 -28.5 -3.5t-28.5 -5.5q-15 -4 -23.5 -4.5t-13 -3.5t-6.5 -11.5t-6 -26.5q-17 -74 -62 -131q-14 -17 -25.5 -34.5t-24.5 -34.5q-4 -5 -8 -4.5
t-6 8.5q-18 43 -25.5 87.5t-9.5 90.5q0 10 -0.5 20t-5.5 20q-3 9 -12 7q-5 -1 -8 2t-5 7q-9 10 -10 21q0 5 7 7q8 2 16 4.5t16 4.5q10 2 12 5q5 5 5 13q0 4 -7 6q-9 2 -18 3.5t-18 -3.5q-3 -2 -6.5 -2t-8.5 -1q1 19 5.5 33t24.5 21q15 16 41 21q9 3 13 15q1 5 2.5 9.5
t2.5 9.5q4 14 2 17t-16 3q-8 0 -10.5 5.5t-6.5 5.5q-20 0 -28 11.5t-14 25.5q-4 10 -2 13.5t12 5.5q17 5 34.5 8t34.5 7q10 3 16 7q-1 0 2 5q0 2 -3 2q-7 2 -13.5 1.5t-13.5 -1.5q-14 -1 -28.5 -1.5t-29.5 -1.5q-14 0 -10 13q5 22 20 33.5t35 16.5q17 4 34.5 7t35.5 7
q14 1 19 16q8 19 16.5 37.5t16.5 36.5q30 67 69 133q7 11 14.5 22.5t15.5 22.5t19 16t25 -3q7 -3 11.5 -1.5t9.5 5.5q20 12 42.5 6t33.5 -26q5 -10 4 -23.5t-9 -22.5q-2 -3 -5 -6.5t-5 -6.5q-4 -6 -3.5 -8.5t7.5 -7.5l8 -4t6 -8q-23 -26 -40 -55.5t-34 -60.5
q-2 -4 -3.5 -7.5t-3.5 -7.5q-7 -13 -5 -16.5t16 -3.5q22 0 44 0.5t44 0.5q17 0 23 16q9 25 18.5 49.5t18.5 48.5q6 14 11.5 28.5t11.5 28.5q13 31 46 42q12 5 18 -6q2 -2 2 -6t5 -3q2 1 4 3t3 4q5 13 19 8q19 -7 30.5 -18.5t15.5 -31.5q1 -5 1.5 -8.5t-1.5 -7.5
q-4 -9 -4 -16t8 -15q5 -5 3 -11t-4 -11q-6 -17 -12 -33.5t-13 -33.5q-2 -5 -3.5 -9.5t-3.5 -9.5q-4 -12 -2 -16.5t13 -10.5q14 -8 27 -19.5t21 -28.5zM281 219q17 1 33.5 1.5t33.5 2.5q7 0 13 3q5 2 5 8q-1 5 -7 5q-20 -2 -38.5 -5t-37.5 -10q-1 -1 -1 -2.5t-1 -3.5
q-6 2 -12.5 1.5t-16.5 -2.5q19 -4 29 2zM270 311q14 2 27.5 2.5t27.5 2.5q14 1 28.5 2t28.5 1q16 1 20 15q1 5 2.5 8.5t2.5 7.5q4 11 -9 11q-23 -2 -45.5 -3.5t-45.5 -3.5l-18 -3t-10 -4.5t-6 -10t-5 -18.5q0 1 2 -7zM370 431v2q14 0 27 -0.5t27 0.5q7 0 13 3q6 1 6 11
q0 6 -9 8h-3q-26 -2 -52 -5t-52 -5q-2 -1 -4.5 -2t-4.5 -2q-5 -2 -3 -6q1 -1 2 -2.5t2 -1.5h51z" />
    <glyph glyph-name="asciitilde" unicode="~" horiz-adv-x="597" 
d="M167 419q18 -1 36.5 -2t37.5 1q11 2 20.5 -1.5t18.5 -9.5q12 -8 24.5 -17t24.5 -18t23.5 -17t23.5 -16q12 -7 22 0q12 9 23.5 17.5t22.5 18.5q27 25 57.5 30t65.5 -3q8 -2 11 -7q10 -13 16 -27.5t1 -31.5q-3 -10 -6.5 -19.5t-2.5 -20.5q1 -6 -2.5 -11t-7.5 -9
q-32 -33 -68 -57t-81 -33q-68 -14 -129 16q-19 10 -36.5 21.5t-34.5 25.5q-5 5 -10.5 8.5t-10.5 7.5q-8 7 -16 -1q-11 -11 -22 -23l-22 -24q-4 -4 -7.5 -8.5t-8.5 -8.5q-4 -4 -8.5 -8t-7.5 -3q-13 2 -21.5 -6t-19.5 -9q-15 0 -28.5 4t-24.5 15q-9 8 -10 13t6 15l4 6t4 5
q6 9 4.5 11.5t-14.5 4.5q-8 2 -8 8q-1 6 0.5 12t-0.5 12q-4 21 10 38q36 45 83 84q15 13 32.5 15.5t35.5 1.5zM396 247l6 3q-2 1 -2.5 2t-2.5 1t-3 -1t-3 -2q4 -2 5 -3z" />
    <glyph glyph-name="degree" unicode="&#xb0;" horiz-adv-x="402" 
d="M6 525q-3 87 44 161q7 9 14 16.5t17 13.5q9 5 11.5 16t10.5 17q4 3 7.5 6.5t8.5 5.5q12 7 12 15q2 11 8 16t14 8q26 13 52 15.5t54 -0.5q20 -2 38 -8.5t33 -20.5q0 -1 1 -1l1 -1q27 -32 47.5 -65t21.5 -78q2 -50 -10 -94.5t-43 -84.5q-14 -17 -29 -32
q-13 -13 -26.5 -24.5t-27.5 -22.5q-23 -22 -54 -34q-46 -18 -97 -6q-20 5 -33 22q-5 6 -9.5 11.5t-10.5 10.5q-26 17 -38.5 42t-15.5 55q-2 11 -1.5 20.5t0.5 20.5zM169 512q35 23 50.5 50.5t17.5 63.5q0 6 -2 16q-1 7 -11 5q-6 -2 -8 -5q-23 -27 -35.5 -58t-11.5 -72z
M173 765q18 -2 31 -2h26q8 1 15 2.5t15 -0.5q1 -1 2.5 0.5t1.5 2.5q1 3 -2 6q-8 10 -20 10q-17 0 -33 -4t-36 -15zM50 567q-7 -20 -4.5 -36t0.5 -32q-1 -7 0.5 -13.5t7.5 -11.5q8 5 5.5 11t-2.5 11t0.5 10t0.5 10q0 12 -0.5 24t-7.5 27zM165 378q-11 0 -14 -1
q-4 0 -8.5 -0.5t-2.5 -6.5q2 -10 12 -10q15 0 26 11q1 1 0.5 3t-1.5 2q-10 2 -12 2zM146 520l3.5 21t2.5 17q0 1 -3 4q-2 -1 -5 -4q-2 -8 -2.5 -16.5t4.5 -21.5zM373 629q2 -9 0 -16t5 -15q1 8 1.5 15t-6.5 16z" />
    <glyph glyph-name="asterisk" unicode="*" horiz-adv-x="524" 
d="M97 767q9 5 16 2t12 -8q17 -15 35 -27t38 -24q0 6 0.5 11t0.5 10q1 8 4 14.5t12 9.5q8 4 10 15t5 13.5t12 3.5q4 1 8 1h8q11 1 15.5 -2.5t3.5 -14.5q-2 -17 1 -32t4 -32q0 -2 1.5 -4.5t4.5 -1.5q6 1 6 7q1 8 1 15.5t1 15.5q2 12 12 15q14 3 21 -7q3 -5 6.5 -10t7.5 -11
q9 1 17 5l16 8q11 5 22 9.5t23 2.5q7 0 13 3q17 8 33.5 4t32.5 -8q10 -3 15.5 -11t6.5 -17q1 -7 -2.5 -14t-6.5 -14q-1 -2 -5 -3t-7 -3q-9 -5 -19.5 -9t-19.5 -13q12 -7 24 -7.5t23 -1.5q10 -1 13 -9t-2 -16q-10 -13 -30 -21l-99 -45q-4 -2 -7.5 -4t-7.5 -4q-8 -6 -1 -11
q5 -6 11 -11t11 -10q30 -28 42 -63t15 -75q1 -3 -1 -10q-3 -9 -12 -7q-33 8 -66 15t-64 23q-9 5 -17 -6q-7 -8 -14.5 -16.5t-12.5 -18.5q-6 -10 -16 -14t-15 -15q-2 -5 -6.5 -4t-7.5 5q-15 17 -28 36t-18 42q-2 8 -4 13l-1 1q-1 0 -2 1q-4 2 -7.5 0.5t-7.5 -3.5
q-32 -16 -65.5 -15.5t-67.5 -1.5q-5 0 -10.5 7.5t-4.5 12.5q0 12 3 23q11 32 26 61t42 51q5 4 9.5 7.5t9.5 8.5q-5 10 -12.5 16.5t-15.5 13.5q-5 5 -10.5 8.5t-10.5 8.5q-2 2 -3 4t1 4q11 6 7.5 11t-8.5 10t-11 9t-10 12q-5 14 -1.5 26.5t10.5 24.5q2 4 6 4.5t9 0.5
q10 0 22 -7q10 -6 16 5q3 7 9.5 6.5t11.5 1.5q6 2 8 5q2 4 -4 8q-3 3 -6 5.5t-7 5.5z" />
    <glyph glyph-name="asciicircum" unicode="^" horiz-adv-x="380" 
d="M71 398q-10 0 -14 -5.5t-8 -13.5q-6 -11 -19 -10q-10 0 -16 9q-9 14 -8 29q2 10 4 17q11 34 22.5 67.5t24.5 66.5q14 35 34 65t43 59q16 20 37.5 29.5t44.5 11.5q26 1 47.5 -8.5t37.5 -35.5q23 -37 36.5 -76.5t21.5 -81.5q5 -21 9 -42t8 -41q4 -15 4 -30.5t-1 -30.5
q-2 -23 -13.5 -40t-26.5 -32q-6 -7 -15 -2q-14 7 -27.5 14t-24.5 17q-21 18 -35 39.5t-19 48.5q-2 12 -4.5 23.5t-4.5 23.5q-2 6 -3 11.5t-5 10.5q-7 -1 -8 -5.5t-3 -8.5q-6 -16 -11.5 -31.5t-10.5 -32.5q-5 -20 -15 -37.5t-18 -36.5q-4 -10 -18 -15q-5 -2 -10 -2h-10
q-22 0 -17 20q2 6 3.5 11.5t3.5 11.5q2 5 -4 7q-4 0 -6 -2q-9 -13 -14 -31q-2 -10 -9 -8q-6 2 -5.5 5.5t2.5 7.5q5 14 8.5 28t11.5 26v10q0 1 -0.5 2t-0.5 2q-2 -2 -2 -5zM237 684l2 2l-2 1v-3z" />
    <glyph glyph-name="multiply" unicode="&#xd7;" horiz-adv-x="456" 
d="M101 313q-15 21 -30 41t-40 31q-12 6 -16.5 18.5t-8.5 24.5q-1 7 8 9q8 2 15 -1.5t16 0.5q-5 11 -13 15l-16 8q-8 5 -9 8t1 11q4 18 16 28t26 18q4 2 7 1q7 -3 14 -3.5t13.5 0.5t13.5 1.5t14 -2.5q14 -5 27.5 -12t25.5 -17q11 -9 19.5 -19.5t16.5 -21.5q5 -6 10 -13
t13 -12q8 3 14 9.5t13 11.5q13 11 26 21t27 21q15 14 33 20t38 10q17 3 33 -2.5t30 -16.5q12 -11 9 -27q-1 -5 -2 -8.5t-5 -5.5q-2 -1 -3.5 -1t-2.5 -2q-7 -6 -16.5 -9.5t-7.5 -14.5q2 -8 11 -7t16 0q5 -1 9.5 -1.5t6.5 -7.5q5 -15 -2 -26q-3 -4 -7.5 -7t-8.5 -5
q-23 -14 -44.5 -31t-41.5 -35l-7.5 -7.5t-7.5 -6.5q-6 -6 -2 -15q6 -9 11 -17.5t10 -17.5q14 -23 18.5 -49t4.5 -53q1 -11 0.5 -22t-1.5 -22q-1 -20 -20 -13q-38 15 -74.5 32t-65.5 49q-7 10 -17 1q-12 -11 -24 -21.5t-26 -18.5q-26 -17 -54 -19.5t-57 6.5q-11 3 -15 13
q-2 5 -3.5 11t-1.5 12q1 32 9 60.5t31 51.5q20 20 44 47z" />
    <glyph glyph-name="plus" unicode="+" horiz-adv-x="490" 
d="M374 370q8 0 15 -0.5t14 0.5q28 3 48 -20q3 -4 6.5 -7.5t6.5 -7.5q10 -12 9.5 -19t-18.5 -12q-6 -2 -13 -2t-14 -1q-20 -2 -39 -2.5t-39 -2.5q-3 0 -6 -1.5t-3 -5.5q-1 -7 2.5 -8.5t7.5 -1.5l22 -2t22 4q6 2 13 1.5t14 0.5t13 1.5t13 2.5q4 -7 0.5 -11t-6.5 -7
q-33 -32 -79 -35q-13 -1 -19 -2t-9 -4t-4 -9t-2 -18q-2 -17 -5 -33.5t-8 -33.5q-7 -31 -25 -59q-5 -8 -9 -16.5t-9 -16.5q-8 -17 -25 -7q-5 3 -9 7t-9 8q-29 30 -45 65t-13 78q1 13 0.5 19.5t-4 8.5t-10 1t-18.5 -2q-13 -2 -25.5 -3t-24.5 -3q-17 -2 -30.5 4.5t-24.5 17.5
q-6 5 -4 12t10 9q17 4 35 6.5t36 3.5q12 0 23.5 0.5t23.5 1.5q7 0 13 3q3 0 3 5q0 4 -4 4q-18 -1 -36 0t-35 6q-5 2 -11.5 0.5t-11.5 -2.5q-12 -2 -24 -2.5t-24 -1.5q-8 -1 -14 4.5t-2 14.5q1 1 1 3q3 15 6 24.5t9 15.5t15 9t23 5q20 3 40.5 4t40.5 2q5 1 10.5 0.5t10.5 0.5
q14 2 20 5.5t10 19.5q6 26 15 52t22 50q15 28 30 33.5t44 -5.5q3 -2 6.5 -3t6.5 -3q5 -4 8.5 -2.5t8.5 5.5q31 24 51 -8q11 -17 12 -35t-4 -37q-3 -8 -6.5 -17t-3.5 -18t-6.5 -14.5t-8.5 -16.5zM261 79h2v66h-2v-66z" />
    <glyph glyph-name="hyphen" unicode="-" horiz-adv-x="424" 
d="M259 295h126q5 0 10 0.5t8 -4.5q5 -6 2.5 -11.5t-6.5 -10.5q-12 -20 -30.5 -28.5t-39.5 -13.5q-7 -2 -13.5 -1.5t-13.5 0.5q-38 2 -76 -1.5t-76 -8.5q-18 -2 -36 -0.5t-35 -0.5q-7 6 -16 9.5t-17 7.5t-14.5 10.5t-8.5 18.5t-1 16t14 6q26 3 51 6t50 4q31 2 61.5 1.5
t60.5 -0.5v1zM22 310q-4 22 12 38q8 8 17.5 14.5t22.5 8.5q42 4 81.5 8.5t81.5 4.5q18 -1 35.5 -0.5t35.5 0.5q31 0 61 -19q27 -17 35 -52q2 -10 -7 -8q-8 1 -15.5 1.5t-15.5 2.5q-42 8 -84 8t-84 -5q-41 -6 -78 -2q-8 2 -17 1t-17 -1q-16 -1 -32 -1.5t-32 1.5z" />
    <glyph glyph-name="greater" unicode="&#x3e;" horiz-adv-x="343" 
d="M80 471q-5 8 -12 12.5t-13 9.5q-9 7 -10 10.5t3 14.5q5 16 15.5 24.5t23.5 16.5q5 3 13 1q8 -3 16.5 -4.5t17.5 3.5q4 2 9.5 0t9.5 -4q47 -28 89 -59.5t71 -78.5q6 -9 10 -18t9 -19q2 -5 5 -11t2 -11q-2 -8 -1.5 -15.5t2 -15t2.5 -15t0 -14.5q-2 -10 -6 -18t-9 -16
q-15 -23 -35 -41q-34 -32 -68.5 -63.5t-66.5 -65.5q-10 -11 -22 -18.5t-26 -12.5q-20 -8 -39 -5.5t-36 12.5q-16 9 -24 22.5t-3 33.5q1 5 1 14q-2 20 5.5 36.5t21.5 30.5q16 17 33 33.5t34 33.5q14 14 29.5 28t29.5 28q11 9 1 17q-10 9 -19 17.5t-20 16.5l-24 18t-25 17
q-6 5 -11 9t-8 11q-4 8 -9 15.5t0 15.5q5 10 13.5 6t16.5 -4z" />
    <glyph glyph-name="braceright" unicode="}" horiz-adv-x="371" 
d="M292 285q21 -11 36.5 -23.5t17.5 -38.5q-5 -5 -12.5 -4t-13.5 -6q-3 -4 -3 -9t5 -7t9 -4t9 -4q19 -7 9 -26q-10 -18 -27 -25q-19 -8 -29 -22t-15 -34q-4 -17 -7.5 -33t-6.5 -33l-6 -30t-8 -30q-7 -23 -23 -41.5t-37 -30.5t-44 -18t-43 -3q-7 2 -10 1q-17 -5 -30 2.5
t-27 13.5q-14 5 -20 17t-11 25q0 5 1 7q6 5 12 11t13 1q4 -3 6.5 -2t4 3.5t3 4.5t4.5 0q5 -2 9.5 -3.5t9.5 0.5q4 2 5 4q2 7 -4 7q-11 0 -20.5 -0.5t-20.5 0.5q-5 0 -10 -0.5t-10 4.5q2 23 16 35.5t34 21.5q2 1 7 1q23 0 32 12t11 32q5 34 13 67t22 64q5 8 0 16
q-16 31 -13 63t8 64q5 29 14.5 57t18.5 57q8 23 16 46.5t16 46.5q4 13 5 23q5 27 -21 25q-6 0 -12.5 -2t-11.5 6q-4 7 -11.5 5.5t-12.5 3.5q-8 8 -12.5 17.5t-8.5 20.5q-4 10 8 15q11 5 27 5h24h21q-2 11 -9 15.5t-15 5.5t-15 0t-15 -1q-5 0 -10 -0.5t-10 -0.5q-8 2 -7 10
q9 41 49 52q30 9 60.5 9t59.5 -12q37 -17 55.5 -46t25.5 -68q8 -48 -0.5 -94.5t-23.5 -91.5q-8 -26 -17 -50t-18 -50q-4 -13 -7.5 -26t-8.5 -28z" />
    <glyph glyph-name="bracketright" unicode="]" horiz-adv-x="447" 
d="M5 -44q3 26 17 40t34 21q43 16 90 18q11 0 13 12q5 105 26 205.5t44 202.5q8 32 16.5 64t16.5 64q-7 5 -9.5 0t-6.5 -7q-10 -3 -15 -7q-11 -9 -21 -10t-20 11q-3 4 -6.5 3t-4.5 -4q-5 -9 -10 -8.5t-11 5.5q-8 6 -12 7q-17 5 -24 18.5t-12 27.5q-2 6 1 11t7 10q8 6 1 11
t-7 11t2 13q7 20 20 31q39 32 83 51.5t97 17.5q21 -1 39.5 -8.5t32.5 -24.5q5 -5 10 -8.5t11 -7.5q17 -9 25.5 -24.5t13.5 -32.5q2 -4 0.5 -7t-3.5 -5q-6 -11 1 -23q5 -10 1 -19q-18 -55 -34 -110t-30 -112q-20 -85 -36.5 -169.5t-28.5 -170.5q-9 -63 -48 -114
q-5 -5 -8.5 -11t-7.5 -11q-8 -11 -16 -19.5t-24 -4.5q-2 0 -3 -1q-21 -14 -45.5 -17t-47.5 -11q-8 -2 -15 -3t-15 3q-3 1 -6.5 1.5t-6.5 -0.5q-15 -6 -22 7q-1 0 -1.5 0.5t-2.5 0.5q-18 0 -25.5 11t-13.5 25q-4 11 -1.5 16t14.5 9q18 5 36 8.5t37 5.5q3 1 6.5 1.5t6.5 2.5v2
v3q-6 4 -9 5q-8 2 -15 1t-15 -3q-28 -7 -63 -4zM167 -44q-1 -1 -2 -1.5t-2 -2.5q1 0 1.5 -0.5t1.5 -0.5l3 3z" />
    <glyph glyph-name="parenright" unicode=")" horiz-adv-x="328" 
d="M5 -111q1 8 1 14t2 12q2 10 2.5 19t-1.5 20q-2 12 0.5 24t7.5 23q5 16 12.5 31t16.5 30l16 28l16 28q33 54 50.5 112.5t27.5 120.5q5 35 7.5 69.5t0.5 69.5q-1 14 -2.5 28.5t-4.5 28.5q-3 11 -6.5 21t-14.5 17q-10 6 -7 17q7 29 -22 40q-7 2 -4 4q6 5 4.5 7t-4.5 3.5
t-6.5 3t-1.5 5.5q3 8 6 15t11 13q21 17 44 17.5t46 -3.5q8 -2 14.5 -3t14.5 2q9 4 17 0.5t13 -10.5q11 -13 17 -26q43 -75 49 -164q3 -66 -5 -129.5t-21 -126.5q-15 -77 -45.5 -146t-72.5 -134q-22 -35 -53.5 -56t-71.5 -30q-13 -3 -25.5 -0.5zM173 327q2 2 4.5 3.5t3.5 3.5
q4 24 7.5 48t7.5 49q2 11 1.5 22t-3.5 22q-5 -6 -5 -12v-12q-4 -31 -6 -62t-10 -62q0 -6 -1 -10v-3q3 -2 2 4q0 6 -1 9zM288 423q3 11 3.5 22.5t-2.5 27.5q-5 -15 -4.5 -27t3.5 -23z" />
    <glyph glyph-name="slash" unicode="/" horiz-adv-x="508" 
d="M6 14q1 19 6 41.5t15 45.5q20 45 40.5 88.5t43.5 85.5q45 81 91 161t95 159q14 23 29.5 44t32.5 41t39 32q5 2 10 3t9 -2q13 -11 23 -1q2 2 6 2.5t7 -0.5q11 -4 21.5 -9.5t16.5 -16.5q8 -11 10.5 -23t-9.5 -25q-5 -6 -4 -9.5t10 -8.5q12 -7 9 -19q-2 -8 -6.5 -14
t-9.5 -12q-25 -29 -45.5 -61t-40.5 -65q-36 -61 -71 -121.5t-70 -122.5q-51 -90 -90 -186q-5 -12 -10 -23t-13 -22q-18 -23 -40 -36.5t-52 -12.5q-16 0 -27 11q-14 14 -21 32t-5 44z" />
    <glyph glyph-name="exclam" unicode="!" horiz-adv-x="286" 
d="M179 666q6 2 7 6.5t3 9.5q3 11 6 21.5t7 20.5q5 11 16 9q15 -2 27 -8t20 -20q3 -7 1.5 -10t-2.5 -8q-2 -11 -1 -14t12 -9q10 -6 10 -16q1 -8 0.5 -15t-3.5 -15q-17 -41 -26 -84t-19 -86q-9 -40 -16.5 -79.5t-12.5 -80.5q-2 -13 -5 -25t-6 -25q-4 -20 -12.5 -36.5
t-21.5 -32.5q-10 -13 -20.5 -25.5t-18.5 -26.5q-6 -12 -20 -2q-3 3 -6 5.5t-6 6.5q-26 35 -40 74t-8 84q3 26 6.5 52t8.5 52q10 57 22.5 113t27.5 112q5 19 11.5 37t13.5 37q5 12 13 21t19 17q10 6 19 5q4 0 6.5 -1.5t0.5 -6.5q-3 -8 -4 -17.5t-6 -17.5q-2 -5 -5 -10.5
t2 -11.5zM103 143q13 30 7 59q0 2 -4 4q-4 0 -4 -4q-5 -31 1 -59zM6 -82q-1 37 9.5 70.5t24.5 66.5q13 29 44 45q14 7 22 -2q6 -7 10 -5t9 7q4 4 13 2q41 -9 50 -53q2 -7 -1 -12t-5 -10q-1 -5 -2 -9t4 -7q9 -5 10 -11.5t-3 -14.5q-10 -19 -16 -39t-13 -40q-7 -24 -23 -37.5
t-38 -21.5q-5 -2 -11 -2t-9 8q-5 9 -9 1q-5 -7 -12 -6q-22 5 -38.5 26t-15.5 44z" />
    <glyph glyph-name="question" unicode="?" horiz-adv-x="521" 
d="M202 69q8 -5 14 -9t11 -9q11 -12 16 -26t-4 -31q-4 -6 -3.5 -11t9.5 -8q5 -2 6 -5.5t0 -8.5q-2 -4 -3 -8t-3 -8q-5 -11 -11 -21t-11 -21q-9 -17 -23 -29t-31 -20q-16 -8 -32 -7.5t-31 5.5q-18 5 -30.5 24t-11.5 36q2 27 7.5 52.5t19.5 48.5q10 16 20 30t27 22q14 8 10 22
q-11 51 -1.5 98t35.5 91q27 47 54.5 93t53.5 92q12 21 24 41.5t23 41.5l6 10t2 12q-3 3 -6.5 2.5t-6.5 -1.5q-37 -14 -70.5 -33.5t-62.5 -45.5q-9 -8 -17 -17q-9 -11 -13 -21t5 -24q5 -7 5.5 -13.5t-7.5 -14.5q-4 -4 -1 -9t5 -10q9 -17 6 -29t-18 -23q-2 -1 -2.5 -2t-2.5 -2
q-14 -8 -21.5 -12t-12.5 -3.5t-10 6l-15 16.5q0 1 -4 1q-1 -3 -1 -6.5t-1 -6.5q-4 -12 -12 -7q-24 14 -33.5 22t-19.5 24q-11 19 -17.5 38.5t-5.5 42.5q0 14 1 27t3 27q2 19 10 35.5t19 32.5q19 27 40 45q48 42 101 72.5t113 50.5q27 9 55 10.5t56 -2.5q42 -6 70 -29.5
t38 -65.5q7 -26 8.5 -54t-8.5 -56q-11 -34 -25 -60q-16 -29 -32 -57.5t-33 -57.5q-23 -42 -48 -82.5t-48 -82.5q-20 -36 -47.5 -65.5t-65.5 -47.5q-2 -2 -4 -3.5t-7 -5.5zM87 392q2 5 -2 8q-2 0 -2 -2q-2 -5 2 -8z" />
    <glyph glyph-name="equal" unicode="=" horiz-adv-x="420" 
d="M257 399q-23 2 -48 0.5t-51 -11.5q-8 -3 -15.5 -6.5t-12.5 -10.5q-6 -9 -13.5 -10.5t-15.5 -1.5q-8 -1 -15.5 -0.5t-15.5 0.5q-12 0 -18 7q-5 7 -10.5 11t-14.5 6q-10 3 -14.5 13t-6.5 20q-2 12 10 17q8 5 16.5 8t17.5 8q6 2 2 8q-2 5 -6 8q-2 2 -4.5 1.5t-3.5 -2.5
q-2 -8 -7.5 -9t-11.5 -1q-11 0 -10 13q2 17 11 28t23 20q41 25 84 35.5t91 9.5q18 -1 35.5 -2t35.5 -2q84 -6 125 -81q8 -14 5.5 -23.5t-16.5 -19.5q-29 -20 -60.5 -30t-66.5 -5q-4 1 -7.5 1t-11.5 1zM379 470q0 -2 -0.5 -2.5t-0.5 1.5q1 0 2 -1q-17 8 -34.5 12.5t-36.5 5.5
q-16 1 -31 1t-30 2q-28 3 -56 -8q-8 -3 -7 -10q6 -2 10 -2q39 2 78.5 1t79.5 -3q7 0 13.5 1t12.5 2zM189 249q35 -5 68.5 -5t67.5 3q11 1 22 1.5t22 0.5q4 0 8 -4q2 -4 0 -6.5t-4 -4.5q-15 -14 -32.5 -22.5t-37.5 -10.5q-15 -2 -30 -2.5t-31 -1.5q-18 -1 -35.5 -2.5
t-34.5 -5.5q-11 -2 -21 -4.5t-18 -7.5q-14 -10 -28.5 -11t-30.5 1q-7 1 -13 4t-8 10q-4 12 -15 9q-3 -1 -6 2q-2 2 -3.5 4.5t-1.5 4.5q0 5 5 7q8 5 16 6q19 6 37.5 11t38.5 8q8 1 19 5q2 2 0 6q0 3 -2 3q-5 2 -8.5 -0.5t-6.5 -4.5q-16 -7 -26 -1q-12 7 -25 5t-25 2
q-7 2 -15 -6q-9 -5 -16 -4q-7 0 -8 4q-4 12 -2 23t7 22q5 10 11.5 14t14.5 6q39 13 78.5 21t81.5 10q22 1 44 1.5t44 0.5h15t15 -1q32 -2 52 -19.5t33 -44.5q5 -11 -8 -11q-11 1 -20.5 1.5t-20.5 1.5q-39 5 -78 0.5t-77 -14.5l-6 -2z" />
    <glyph glyph-name="bullet" unicode="&#x2022;" horiz-adv-x="345" 
d="M283 452q28 -24 43.5 -54.5t17.5 -65.5q2 -42 -7.5 -79.5t-37.5 -69.5q-9 -11 -17.5 -22.5t-18.5 -22.5q-28 -28 -62 -39t-72 -6q-29 3 -50.5 17t-32.5 43q-6 18 -18 33q-17 22 -21 46.5t0 50.5q6 37 17 72.5t34 66.5q5 6 8 13t7 14q11 23 30 34t42 16q21 3 41 0
q20 -5 39.5 -9.5t36.5 -16.5h1q-10 -3 -5 -12q7 -12 19 -9h-1q2 2 4 3.5t4 -3.5h-1zM23 250q0 6 -1 9q0 2 -2 2q-1 -1 -2.5 -1.5t-1.5 -2.5q0 -3 2 -9l2 -2q2 2 3 4zM129 138q-8 -2 -6 -8q2 -3 3.5 -5.5t6.5 -0.5q6 2 3 8t-7 6zM159 472q-8 2 -10 -7q0 -3 2 -5q4 -2 8.5 1
t3.5 7q0 2 -1.5 2.5t-2.5 1.5zM182 458q-1 -1 -1.5 -1t-1.5 -1q1 0 1 -1t1 -1q4 0 3 3q-1 1 -2 1z" />
    <glyph glyph-name="periodcentered" unicode="&#xb7;" horiz-adv-x="225" 
d="M222 328q-2 -5 -1 -10l2 -10q6 -32 -7 -57.5t-36 -45.5q-7 -6 -14 -9.5t-15 -8.5q-17 -10 -33 -6q-8 2 -15 2t-15 -2q-6 -2 -9 1q-13 7 -26 13t-23 17q-11 13 -18 27t-7 31q0 16 1 32t4 32q7 36 30 58t59 27q31 5 59 -1q29 -7 46.5 -32.5t17.5 -57.5z" />
    <glyph glyph-name="germandbls" unicode="&#xdf;" horiz-adv-x="564" 
d="M215 -14q5 11 12.5 13t9.5 10q-12 -1 -23.5 -2t-22.5 -1q-15 -2 -18.5 -4.5t-1.5 -17.5q1 -5 1.5 -9t2.5 -8q9 -14 7.5 -28t-3.5 -28q-1 -10 -9 -13.5t-16 1.5q-2 1 -3 2t-3 2q-6 3 -8.5 11.5t-11.5 6.5q-8 -2 -8 -10.5t-8 -13.5q-7 -5 -3 -16l2 -8t2 -9q-10 -2 -19 0.5
t-18 4.5q-7 1 -11 11q-6 15 -15 26.5t-24 17.5q-8 4 -12 16q-4 8 -5 17.5t-2 18.5q-2 32 -1 64.5t3 64.5q4 52 9.5 103.5t16.5 102.5q42 190 166 338q27 32 58.5 58.5t69.5 46.5q20 11 40 18t43 11q29 5 54 -3.5t49 -21.5q9 -5 15 -14q8 -19 19.5 -35.5t13.5 -38.5
q5 -44 -11 -87q-9 -28 -22.5 -53t-29.5 -49q-18 -29 -38 -55t-41 -52q-8 -11 -7.5 -13.5t12.5 -10.5l22 -16t20 -18q16 -18 28 -39t18 -44q9 -32 2.5 -62.5t-33.5 -55.5q-9 -9 -21 -18q-43 -29 -86.5 -55.5t-91.5 -48.5q-17 -8 -33.5 -7.5t-35.5 0.5zM456 315q3 -4 -1 -2
q2 0 2 2q2 -3 3 -0.5t0 -1.5l-2 -2q-3 0 -2 4zM365 587q-4 -8 -9.5 -12.5t-10.5 -9.5q-50 -50 -83 -110q-2 -3 -4 -7t3 -9q10 11 19 22l18 22q17 20 32 41t31 42q4 5 6 10t-3 11h1zM207 308q-6 -16 -12.5 -45.5t-11 -61.5t-7 -62t-0.5 -47q5 19 18 30.5t29 19.5q22 11 43 22
l42 22q8 4 14.5 8.5t13.5 9.5q3 2 3.5 5.5t-3.5 5.5q-13 7 -26 12.5t-27 11.5q-9 4 -16.5 9.5t-9.5 17.5q-1 5 -4 8l-6 6q-8 8 -17.5 15.5t-22.5 12.5zM28 -20h7v128q0 2 -0.5 4.5t-0.5 5.5q0 1 -0.5 1.5t-0.5 1.5l-3 -3q0 -34 -4 -68.5t2 -69.5zM129 117q-1 0 -1 0.5
t-1 0.5q-2 -13 -3.5 -25t-2.5 -25q-2 -8 -1.5 -17t0.5 -17t9 -8v91zM128 -40q1 3 1 5q1 13 -1.5 20.5t-5.5 3.5q-5 -7 -3 -13l4 -12q2 -2 5 -4zM510 745q-6 -2 -2 -8q3 -5 7 -6q2 -1 3.5 3t-0.5 7q-4 5 -8 4zM7 1055q1 -4 -1 -2.5t2 0.5q1 0 1 1t-2 0v1z" />
    <glyph glyph-name="cent" unicode="&#xa2;" horiz-adv-x="481" 
d="M116 -68q-23 8 -32.5 25.5t-10.5 40.5q0 21 6 41q2 10 0.5 17.5t-12.5 13.5q-25 15 -37 38.5t-19 50.5q0 2 -0.5 3.5t-0.5 3.5q-3 45 -4 88t5 88q4 26 12 50t19 47q22 45 48 87.5t55 83.5l10 12l10 12q20 23 43.5 40t55.5 19q2 29 11 54.5t19 50.5q5 16 15.5 26.5
t24.5 18.5q13 8 33 6q7 0 10 -7q5 -13 14 -4q4 4 8 3.5t8 -2.5q15 -5 25 -20t6 -39q-1 -5 -1.5 -9.5t4.5 -9.5q8 -8 7.5 -16.5t-4.5 -18.5q-7 -17 -13 -33t-13 -33q-2 -8 -3 -14.5t4 -14.5q20 -35 21.5 -72.5t-6.5 -75.5q-1 -6 -1.5 -12t-2.5 -12q-2 -11 -9.5 -17.5
t-16.5 -11.5q-8 -4 -11 5q-2 8 -2 15.5t1 15.5q2 12 0.5 23.5t-3.5 23.5q-2 6 -8 5q-3 -7 -0.5 -13t3.5 -13q0 -11 0.5 -23t-1.5 -24q-3 -20 -8 -24t-25 -3q-11 1 -19.5 5t-17.5 10q-18 11 -15 28q4 16 0.5 30.5t-5.5 29.5q-5 2 -7.5 -1.5t-5.5 -6.5q-37 -47 -66.5 -97.5
t-50.5 -107.5q-8 -21 -11.5 -42.5t0.5 -44.5q3 -17 17 -8q22 14 44 28.5t44 29.5q45 33 99 51q29 11 60.5 18t64.5 21q-8 -14 -6 -24.5t-2 -19.5q-3 -9 -6.5 -17.5t-7.5 -17.5q-4 -7 -7 -19q-7 -29 -22.5 -52.5t-38.5 -43.5q-23 -19 -47 -36.5t-50 -31.5
q-20 -11 -30.5 -26.5t-15.5 -36.5q-3 -12 -6.5 -24t-6.5 -25q-2 -8 -5.5 -15.5t-10.5 -13.5q-2 -2 -4 -3t-4 0q-3 0 -3 3v5q-2 4 -3 9q-5 -7 -7 -13.5t-4 -13.5q-7 -19 -21 -26.5t-31 -11.5q-7 -1 -16 4q-6 4 -7 9.5t-3 11.5q2 21 3 41.5t3 41.5l-4 -2q-3 -2 -3 -5
q-13 -37 1 -76z" />
    <glyph glyph-name="at" unicode="@" horiz-adv-x="961" 
d="M681 237q5 5 8 7.5t5 4.5q40 50 68.5 105t42.5 118q13 54 -16 101q-5 8 -10.5 16.5t-12.5 16.5q-47 60 -125 66q-61 6 -120 -17q-65 -24 -118.5 -63t-98.5 -90q-113 -126 -144 -292q-5 -26 -4 -52t10 -52q5 -13 9.5 -25.5t9.5 -25.5q12 -29 24.5 -57.5t25.5 -57.5
q4 -10 8 -16.5t9 -12.5t12.5 -12.5t19.5 -15.5q-1 -3 -3.5 -4t-5.5 -1t-5.5 -1t-3.5 -5q4 -5 9.5 -4t10.5 -3q-6 -8 -14.5 -11t-17.5 -5q-46 -10 -93 9q-31 13 -55 33t-40 50q-23 45 -38 92.5t-18 98.5q-1 5 -0.5 9t-0.5 8q-8 60 2 117t30 113q103 282 375 411q75 35 152 40
t157 -11q40 -8 74 -28.5t63 -49.5q45 -46 69.5 -100.5t28.5 -120.5q4 -104 -35 -203q-26 -63 -62 -119t-84 -104q-20 -19 -41 -35q-21 -17 -45 -24t-50 -9q-15 -2 -32.5 2.5t-33.5 14.5t-28 24.5t-18 34.5q-5 14 -6.5 28t-2.5 29q-2 13 -12 4q-11 -9 -22.5 -18t-22.5 -17
q-17 -13 -35.5 -24t-38.5 -19q-38 -16 -76 -7q-17 3 -31 12.5t-28 18.5q-3 2 -7 8q-14 31 -25 62t-5 67q8 49 23.5 94.5t39.5 87.5q38 64 99 101q15 9 30.5 14.5t33.5 7.5t36.5 4t37.5 3q39 1 75 -18q8 -4 15 -7t15 -8q7 -5 13.5 -6.5t14.5 5.5q2 2 5.5 2.5t6.5 2.5
q19 5 36 -2t36 -5q12 -8 22 -17.5t8 -26.5q5 -8 1 -11.5t-8 -8.5q-5 -8 -4.5 -10.5t7.5 -8.5q12 -9 13 -16.5t-10 -18.5q-25 -26 -40.5 -56.5t-29.5 -62.5q-5 -10 -8.5 -21t-5.5 -27zM403 288q2 2 4 3t4 3q26 26 49 53t46 56q1 2 2 3t2 3v6q-2 3 -6 2q-7 -4 -13.5 -7
t-12.5 -8q-21 -15 -37 -34.5t-31 -39.5q-9 -13 -11 -35q-1 -1 4 -5zM578 741h71q4 0 7 0.5t6 0.5l2 2q0 6 -2 6q-22 12 -43 9t-41 -18zM552 465q0 2 -1 3q-6 9 -17 4q-3 -3 -3 -6q0 -4 4 -4q4 -1 13 -1q1 0 2 1.5t2 2.5zM272 122q-2 4 -2.5 7.5t-2.5 7.5q0 2 -2 2.5t-3 0.5
q-3 -2 -3 -6q-2 -8 5 -14q0 -1 2 -1q1 0 1 -1q2 1 5 4z" />
    <glyph glyph-name="semicolon" unicode=";" horiz-adv-x="238" 
d="M168 269q2 2 4 6q7 8 10.5 6.5t8.5 -6.5q2 -2 6 -8q5 -7 6.5 -13t-6.5 -14q-5 -4 -4.5 -8.5t8.5 -6.5q9 -3 11 -15q1 -11 -0.5 -20.5t-8.5 -17.5q-10 -14 -16.5 -28t-13.5 -29q-23 -56 -66 -93q-13 -11 -24 -24t-19 -28q-2 -4 -4.5 -7t-4.5 -7q-3 -4 -7.5 -3.5t-6.5 4.5
q-11 20 -17.5 39t-4.5 42q0 4 0.5 8t1.5 9q2 14 -9 18q-5 2 -6 6t-1 9q0 9 0.5 18t3.5 19q7 28 21 57q8 15 14.5 30.5t14.5 30.5q3 7 7 13t7 14q11 23 34.5 28.5t48.5 -1.5q6 -2 8 -9q2 -5 3 -10l2 -10q-2 2 -4 2.5t-2 -4.5q4 2 5 3zM150 225q-1 -4 -4 -1q2 4 4 1
q0 2 -0.5 4t-0.5 4q0 -2 0.5 -4t0.5 -4zM37 541q-5 28 8.5 52.5t27.5 49.5q6 10 15 16t19 11q10 4 20 -1q8 -4 13 -2q16 8 28.5 1.5t23.5 -15.5q20 -16 31 -37t11 -47q0 -6 0.5 -12t1.5 -12q5 -28 -5 -50t-30 -40q-8 -7 -18 -12.5t-20 -10.5q-3 -2 -7.5 -3.5t-8.5 0.5
q-10 3 -19.5 4t-19.5 -3q-2 -1 -3.5 0t-3.5 1q-35 16 -53 42t-11 68z" />
    <glyph glyph-name="colon" unicode=":" horiz-adv-x="244" 
d="M213 194q-2 -14 -2.5 -28.5t-5.5 -28.5q-2 -4 -3 -8t-3 -8q-3 -5 -5 -10t-6 -6q-9 -3 -15.5 -9t-12.5 -12.5t-12 -12.5t-15 -9q-10 -3 -18 -0.5t-10 12.5q-5 19 -15.5 22.5t-27.5 -1.5q-10 -3 -18 1t-15 12q-11 12 -15 27q-9 29 -8.5 56.5t17.5 54.5q3 4 5.5 8.5t4.5 9.5
q25 52 84 49q6 -1 12 -1h12q8 -1 15.5 -3t12.5 -8q1 -2 4 -3.5t5 -4t2 -5.5t-5 -7q-3 -3 1 -7t8 -6q17 -11 23 -27.5t5 -36.5q0 -7 1 -10zM244 564q-2 -12 -3.5 -24t-3.5 -23t-6 -21t-9 -20q-14 -22 -27.5 -27t-38.5 3q-15 5 -26 1t-23 -5t-24 0q-14 0 -23.5 8t-10.5 22
q-2 15 -3 30.5t6 30.5q4 6 2 13q-6 17 1.5 28t18.5 21q2 2 3 2.5t2 1.5q13 8 21 26q16 36 60 36q10 0 15 -5q4 -7 8 -5q14 5 28 -7q6 -6 10.5 -13t5.5 -16q0 -12 7 -19q8 -8 9 -17.5t1 -20.5zM184 632q-2 7 -5 7t-3 -5q0 -6 1 -9q2 -5 4 -1q2 2 2 4t1 4z" />
    <glyph glyph-name="bar" unicode="|" horiz-adv-x="324" 
d="M240 858q-2 -10 -5 -18t-5 -16q0 -2 1.5 -4.5t3.5 -3.5q8 -6 11 3q3 6 5.5 12.5t5.5 12.5q2 4 4.5 7.5t7.5 1.5q4 -2 3 -5t-2 -7q0 -2 -1 -3t0 -3q2 -7 5 -8q4 -2 8 -1.5t9 -0.5q19 -5 26 -17t6 -28q-2 -17 -6 -30q-14 -32 -21.5 -66t-15.5 -68q-29 -141 -63 -282
q-17 -74 -28.5 -148.5t-19.5 -149.5q-5 -40 -15.5 -78t-28.5 -74q-11 -22 -20.5 -43.5t-20.5 -42.5q-2 -4 -4 -7.5t-4 -7.5q-3 -3 -9.5 -2.5t-8.5 4.5q-1 2 -2 4.5t-2 4.5q-12 31 -22.5 62.5t-18.5 63.5q-7 26 -7.5 52t1.5 52q10 94 23 186t36 183q19 77 35.5 153.5
t32.5 154.5q5 24 11.5 48t15.5 47q4 9 9 17.5t16 12.5q7 2 11 12q6 16 17.5 18t25.5 2zM79 -155q-1 2 -1 5t-1 3q-3 1 -3 -1.5v-4.5q0 -4 2 -8q1 1 3 6z" />
    <glyph glyph-name="florin" unicode="&#x192;" horiz-adv-x="510" 
d="M176 -68q-9 -9 -10 -17q-3 -20 -10.5 -38t-17.5 -35q-5 -7 -7.5 -14.5t-6.5 -15.5q-2 -4 -3 -6.5t-5 -3.5q-5 -1 -8.5 2t-5.5 7q-7 13 -11 24q-4 16 -6.5 31.5t-0.5 32.5q1 10 1 20.5t-3 24.5q-6 -18 -4.5 -33.5t-0.5 -29.5q-6 -1 -8 3t-3 7q-26 66 -19 133
q7 57 15.5 111.5t18.5 110.5q2 11 0.5 13t-14.5 4q-12 2 -22 7.5t-20 11.5q-8 5 -12 15t-7 20q-2 9 8 14q14 5 29 8t30 5q4 1 7 1t7 1q16 2 13 10q-2 6 -7 6.5t-10 -0.5l-32 -4l-32 -4t-11 15q5 20 19 31t32 18q11 4 21.5 6t21.5 4q13 2 19.5 8.5t10.5 18.5q13 46 30.5 90
t39.5 87q12 24 26 47t31 44q16 20 35 35t42 26q39 18 79 6t62 -50q1 -2 0.5 -3.5t0.5 -3.5l1 1v-9l-1 1q16 -16 22.5 -35t8.5 -40q5 -70 -32 -126q-4 -6 -8 -4q-2 1 -1.5 4t0.5 5v6h-4t-2 -1q-7 -20 -21.5 -25t-32.5 -3q-2 0 -3.5 0.5t-3.5 0.5q-11 0 -17 1t-8.5 3.5t-1.5 8
l3 16.5q1 1 1 4q0 7 -3 8q-2 0 -5 -3q-2 -4 -4 -7.5t-4 -7.5q-6 -11 -17 -6q-5 2 -9 -1t-6 -8l-33 -78q-4 -11 7 -17q15 -10 30 -19t30 -19q4 -3 8 -6.5t6 -9.5q-10 -3 -18.5 -1.5t-16.5 2.5q-13 2 -25 3.5t-25 2.5q-3 1 -6.5 0t-6.5 -2q-1 -1 -4 -6q-2 -7 4 -7q10 -3 21 -3
h27t27 1h11.5t10.5 -5q1 -5 -4 -8q-27 -12 -52 -27.5t-54 -25.5q-12 -4 -14 -17q-5 -26 -10 -50.5t-9 -49.5q-8 -44 -14 -87.5t-13 -87.5q-4 -20 -9 -38.5t-15 -35.5q-2 -6 -8 -2q-5 5 1 9q0 11 2 22.5t-3 22.5q2 2 5 2.5t3 2.5q2 14 5.5 27t1.5 27q-9 -14 -9 -30t-5 -30
q-2 -11 -2.5 -22t2.5 -22zM389 594q0 1 -2 5q-1 -2 -2 -2.5t-1 -2.5q0 -3 2 -5q1 1 3 5zM481 605q2 0 2 1q1 1 0 3q-2 5 -3 -1q0 -1 0.5 -1.5t0.5 -1.5z" />
    <glyph glyph-name="section" unicode="&#xa7;" horiz-adv-x="567" 
d="M48 200q-10 7 -13 16q-4 18 -15 33t-13 35q-2 12 -1.5 24t4.5 23q11 37 27 70t44 59q13 12 6 27q-8 18 -7.5 36.5t8.5 36.5q13 29 26.5 58.5t31.5 56.5q33 48 76.5 79t100.5 43q50 11 94.5 1t86.5 -38q14 -10 24 -24q13 -19 22 -39t13 -41q13 -76 -24 -149q-2 -4 -4 -5
q-5 -9 -17 -7q-11 3 -11 15q0 8 2.5 15t-2.5 15q-5 1 -6 -2.5t-3 -5.5q-4 -7 -7 -14t-7 -14q-7 -11 -19 -10l-22 2t-22 -1q-5 0 -8.5 5t-2.5 10q1 8 2 14.5t3 14.5q-8 4 -9.5 0t-3.5 -7q-2 -2 -3.5 -5t-6.5 -1t-7 11q-2 8 0 16.5t6 16.5q5 11 8 22.5t3 23.5q0 7 -1 13t-9 10
q-2 1 -2 2t-1 3q-4 17 -13 13q-35 -17 -63.5 -41.5t-48.5 -59.5q-2 -2 -2 -4.5t-1 -4.5q7 -6 15 -8l16 -4q38 -11 75.5 -25t71.5 -35q20 -13 35 -29t23 -39q2 -4 3 -7t3 -6q10 -15 12.5 -34t-2.5 -37.5t-16 -35.5t-28 -27q-15 -10 -30 -19.5t-29 -19.5q-1 -8 3.5 -11.5
t7.5 -8.5q26 -39 28.5 -80t-13.5 -83q-2 -3 -3.5 -6.5t-3.5 -5.5q-16 -15 -23 -40q-2 -8 -7.5 -15t-11.5 -13q-11 -10 -23.5 -18.5t-26.5 -15.5q-42 -20 -84.5 -32.5t-87.5 -19.5q-14 -2 -27 0t-27 5q-11 3 -21 8.5t-18 16.5q-3 3 -5 6.5t0 8.5q3 6 8 5.5t10 -2.5
q8 -2 13 -3q16 -6 31.5 -6t31.5 5q11 2 21 5t21 9q-8 5 -15 5.5t-13 -0.5q-27 -2 -54 -1.5t-54 -0.5q-6 0 -12.5 0.5t-9.5 6.5q-4 7 -5 15.5t4 16.5q14 22 38 26q37 7 70 15q19 5 37.5 11t35.5 17q-9 2 -17.5 0.5t-17 -3.5t-17.5 -3.5t-19 1.5q25 5 47 10.5t42 13.5
q5 2 11 4t11 5q19 10 21 33q0 15 -11 19t-22.5 7.5t-23.5 5.5q-23 6 -46 11t-46 11q-51 10 -90 45q8 3 8 8.5t-2 10.5q0 7 -6 6q-6 0 -4 -7q1 -5 2 -9.5t3 -9.5zM107 539q-2 -5 -4.5 -10.5t-1.5 -11.5q0 -6 5 -6l3 5q2 6 0.5 11.5t-3.5 10.5q2 0 1 -1v2zM308 370q2 -1 6 -1
l2 2q-3 2 -5 0.5t-4 -2.5q-5 11 -10 14t-25 1q11 -5 19.5 -8t16.5 -6zM250 292h10q6 -1 10 0.5t2 9.5q-2 11 2.5 18t12.5 14q7 6 15 10t12 12q-5 5 -10.5 7t-10.5 4q-14 4 -27.5 10t-27.5 1q-17 -6 -29.5 -19t-23.5 -27q-6 -8 -5 -12.5t9 -15.5h-6q-3 -1 -5 -1.5t-3 -3.5
q-1 -4 5 -8q16 -7 32 -11t33 -6q2 -1 5 0t5 2q5 3 0 8q-2 2 -4 3.5t-1 4.5zM355 741q14 -2 23.5 -3.5t18.5 0.5q4 2 4 5q1 1 -2 4q-11 8 -21 6t-23 -12zM53 325l-3 6l-2 -4l-2 -4q0 -2 0.5 -5t3.5 -1q2 0 2 3t1 5zM423 117l1 2l-1 1v-3z" />
    <glyph glyph-name="yen" unicode="&#xa5;" horiz-adv-x="553" 
d="M86 -23q14 3 26.5 6t26.5 6q2 0 6 2t4.5 5t1.5 7q0 9 -8 9q-12 1 -24 1t-24 1h-20q-5 2 -5 4q0 3 3 6q2 2 4 2.5t4 2.5q-4 1 -7 1t-6 1q-14 3 -11 13q5 14 10 26q3 7 11 7q17 0 33.5 4.5t33.5 2.5q5 -1 10 0t9 6q4 6 4 12q0 2 -3 3.5t-5 1.5q-6 2 -13 2t-16 1q8 4 12 7
t9 5q1 4 -3 4q-15 0 -22 1t-10.5 4.5t-6.5 10.5t-9 19q-10 19 13 19q14 1 27 0.5t27 0.5h9t8 2q5 2 6 5.5t2 7.5q0 8 -9 8q-18 1 -36 0.5t-35 0.5q-20 0 -13 18q6 20 22.5 32.5t37.5 13.5q11 1 20.5 1h20.5q10 -1 14.5 4t6.5 13t2 13q-6 4 -10 1t-8 -5q-38 -22 -78 -18
q-14 2 -27.5 3t-27.5 9q-32 17 -47 43.5t-19 60.5q-4 59 8 119q10 49 26 94.5t42 89.5q8 14 17 25.5t23 19.5l18 10t20 -8q3 -3 6.5 -1t5.5 4q8 9 18 4q17 -7 30.5 -17t14.5 -32q7 -9 1 -14.5t-8 -11.5q-5 -13 6 -16q14 -4 9 -18q-2 -7 -5.5 -12.5t-7.5 -11.5
q-20 -28 -31.5 -58.5t-20.5 -62.5q-1 -2 1 -11q10 6 17 13.5t14 15.5q38 41 73.5 84t71.5 87q10 12 20 24.5t20 25.5q7 8 14 15t16 13q3 2 6 3.5t6 3.5q3 1 7 2.5t6 0.5q7 -4 14 -4t13.5 1.5t13.5 2t14 -3.5t13.5 -8t11.5 -9q5 -7 8.5 -14.5t7.5 -15.5q4 -10 -1 -19t-2 -17
q4 -8 7 -16.5t0 -18.5q-3 -6 -5.5 -12.5t-4.5 -12.5q-14 -30 -27.5 -60.5t-27.5 -60.5q-24 -53 -46 -106t-42 -107q-2 -4 -2.5 -8t-2.5 -8q-7 -12 7 -20q14 -6 23 -16.5t17 -23.5q2 -2 2 -4.5t1 -4.5q-7 -5 -13.5 -4t-13.5 2l-33 3q-6 0 -10 -3q-5 -3 -5 -12q1 -6 7 -6h21
q11 1 23 2l24 2q-1 -15 -6 -26t-18 -22q-26 -20 -61 -28q-5 -2 -9.5 -1.5t-6.5 -3.5q-8 -14 -8 -30q1 -7 8 -10q11 -6 19 -14.5t16 -17.5q9 -14 -6 -19q-8 -2 -16.5 -3.5t-16.5 -3.5q-4 -1 -8 -1t-9 -1q-7 0 -5 -7q0 -5 7 -5q3 -1 6.5 -0.5t6.5 -0.5q8 0 6 -9q-2 -10 -9 -14
q-5 -4 -10 -7t-10 -5q-5 -3 -10 -6.5t-7 -9.5q-11 -26 -30.5 -43.5t-37.5 -36.5q-5 -5 -14 -4t-16 8q-11 11 -19.5 22t-14.5 24q-5 9 -6 16q-2 11 -8.5 14.5t-16.5 3.5t-18 3t-13 13q-3 5 -8.5 4.5t-7.5 5.5zM85 369q0 -2 -1 -2q0 -2 0.5 -3t0.5 -3l2 2q0 2 -2 6z" />
    <glyph glyph-name="sterling" unicode="&#xa3;" horiz-adv-x="540" 
d="M92 -83q-2 8 -6.5 11.5t-13.5 1.5t-17.5 -4.5t-18.5 -4.5q-12 -2 -21.5 6t-8.5 21q1 16 7 28.5t23 19.5q23 9 44 19q-3 4 -6 4.5t-6.5 0t-7 0t-6.5 3.5q12 6 23.5 11t23.5 10q9 4 13.5 9t2.5 16q-2 13 -1 25.5t3 25.5q0 6 1.5 12t-0.5 11q-2 8 -8.5 6.5t-11.5 2.5
q-7 5 -14.5 8.5t-14.5 7.5q-12 7 -17 18.5t-9 24.5q-2 5 1 8t7 5q10 5 20.5 9t23.5 9q-12 0 -22 0.5t-20 1.5t-8 12q3 16 11.5 27t20.5 19q26 17 60 23q18 3 22 21q8 36 16 71.5t17 70.5q8 30 16.5 59.5t18.5 58.5q9 28 22.5 54.5t33.5 49.5q17 20 36.5 35t45.5 23
q32 10 62 5t59 -20q6 -3 11 -7.5t9 -9.5q10 -13 17 -33q8 -20 13 -38.5t0 -39.5q-3 -17 -14 -30q-11 -11 -25.5 -11t-25.5 11q-4 6 -3 13v8.5t-3 7.5q-2 4 -5 4t-6 -3q-6 -41 -48 -42q-9 0 -13 -9l-9.5 -19t-7.5 -18q-17 -46 -28.5 -92.5t-21.5 -94.5q-2 -13 -0.5 -16
t12.5 -8q8 -5 16 -9.5t16 -9.5q11 -9 21.5 -18t21.5 -18q-2 -8 -6 -8h-8q-13 2 -25.5 3t-25.5 2q-8 1 -15 1.5t-15 -0.5q-11 0 -9 -12q0 -8 8 -8q15 1 29.5 1h28.5h41q-41 -53 -105 -67q-20 -5 -23 -25q-1 -5 -1.5 -10t-1.5 -10q-1 -11 -5.5 -22t4.5 -19q8 -7 18.5 -2.5
t20.5 5.5q17 2 34 1t35 -11q-22 -7 -42.5 -9t-40.5 -7q-6 -2 -12 -3t-11 -4q-2 -1 -2.5 -2.5t-2.5 -3.5q13 0 25 -1t23 1q24 3 47.5 2.5t47.5 1.5q11 1 21.5 -11t11.5 -23q0 -10 -7 -20.5t-17 -12.5q-17 -4 -33.5 -7t-33.5 -6q-20 -4 -39.5 -8t-38.5 -12q2 -6 5.5 -6h6.5
q26 6 52 8t50 13q2 1 5 0.5t5 0.5q3 0 3 -3q0 -1 0.5 -2.5t-0.5 -2.5q-11 -14 -30 -22l-24 -8t-25 -6q-23 -4 -46.5 -8.5t-46.5 -9.5t-45.5 -13t-44.5 -17q-6 -3 -12.5 -5.5t-12.5 -5.5q-20 -10 -39.5 -6.5t-39.5 8.5q-3 1 -5 4t-4 5h1q3 2 6.5 2.5t4.5 5.5t4 5t6 1l-1 1
q4 -6 7.5 -4.5t7.5 4.5v-1q3 2 6.5 4t7.5 4l-1 -1q4 1 8 4q-4 1 -8 4zM134 249l-3.5 3.5t-3.5 2.5q-8 3 -12 -2q-4 -6 2 -8t13 0zM262 -48q4 2 6 2q-2 1 -3 2t-2 1h-4t-2 -3zM463 721q-3 -3 -3 -4v-5t5 -1q3 3 2 5q0 2 -1.5 2.5t-2.5 2.5zM231 -51q-1 0 -1.5 -0.5t-1.5 -0.5
h5q-1 1 -2 1z" />
    <glyph glyph-name="Euro" unicode="&#x20ac;" horiz-adv-x="447" 
d="M363 420q10 -6 10.5 -8t-5.5 -8q-17 -19 -40 -28t-46 -16q-8 -2 -16.5 -3.5t-16.5 -3.5q-12 -3 -18 -12t-4 -20q0 -2 2 -4t4 -3q4 -2 8 -2t9 -1q35 -7 64 -24.5t53 -44.5q-5 -7 -9.5 -5.5t-8.5 3.5q-33 11 -65.5 10.5t-65.5 -8.5q-4 0 -6 -7q0 -7 6 -7q4 -1 14 -1l32 2
t32 1q15 1 30.5 0.5t30.5 -0.5q2 0 5 -1t2 -4q0 -6 -5 -8q-21 -13 -41.5 -26t-42.5 -25q-9 -5 -18.5 -7t-20.5 -3q-5 -1 -10 -1t-10 -1q-10 -1 -10 -12q0 -12 0.5 -24t2.5 -23q6 -41 48 -44q6 -1 12 -0.5t12 1.5q24 4 48.5 6t48.5 8q5 1 9 1h8q6 -2 5 -8q0 -7 -2 -9
q-9 -14 -16 -29.5t-19 -28.5q-5 -5 -9 -11t-6 -12q-5 -11 -12 -18t-17 -14q-50 -33 -106 -24q-16 2 -32 5.5t-31 9.5q-19 8 -33 20t-22 32q-2 5 -5 10.5t-7 9.5q-20 20 -27.5 43.5t-10.5 49.5q-5 28 -6 57q0 11 -9 11q-13 -1 -16.5 7t-7.5 17q-2 8 6 11q5 2 9.5 3.5t9.5 3.5
q8 2 10 6.5t3 10.5q2 16 -15 13q-4 -1 -7.5 -2.5t-8.5 0.5q-4 24 19 38q11 6 17.5 16.5t7.5 24.5q2 13 5 25t6 25q2 11 2 19.5t-11 16.5q-10 7 -5 22q1 4 1.5 8t2.5 8q3 11 8.5 18t17.5 9q9 2 13.5 8t9.5 15q17 36 35.5 71.5t41.5 67.5l18 22t19 22q27 32 61.5 43t75.5 5
q11 -2 20.5 -3t20.5 0q26 3 37 -23q4 -8 7.5 -16.5t2.5 -18.5q-1 -18 -17 -15q-11 2 -17.5 3t-11 -1t-9.5 -7.5t-12 -14.5q5 -5 11 -2t11 2q6 -1 12 -1t11 -1q9 0 9 -9q0 -8 -8 -11q-2 -1 -4.5 -1t-4.5 -1q-3 -1 -6 -1t-3 -2q-7 -14 -18 -16t-23 -2q-11 0 -17 -9
q-6 -7 -12.5 -14t-11.5 -15q-5 -9 -12 -17.5t-9 -19.5q10 -8 20.5 -6.5t20.5 2.5q44 2 72 -25q13 -12 -1 -22q-11 -7 -21 -13t-22 -8q-3 -1 -5.5 -2t-4.5 -6q-19 3 -36.5 -2t-35.5 -10q-5 -2 -4.5 -5.5t-0.5 -6.5q-5 2 -10.5 4t-13.5 -4h24q5 5 11 5t11 1q15 2 29 5.5
t26 13.5zM84 304q5 6 5.5 12.5t-1.5 17.5q-4 -11 -4.5 -17.5t1.5 -12.5h-1zM289 -24q-13 3 -23 2t-20 -1q-3 1 -6 0t-3 -6q0 -4 7 -6q12 -6 22.5 -2.5t22.5 13.5zM167 117q5 5 4.5 8.5t-0.5 7.5q0 2 -2 6q-3 -3 -3 -5q0 -4 0.5 -8t0.5 -9zM193 -30q-1 2 -1 3t-1 2
q-2 2 -5 -1q2 -5 3 -5q2 -4 4 1zM76 221q-1 1 -1 2t-1 3q-1 -2 -2 -2.5t-1 -2.5t3 -5q0 1 2 5zM76 118q0 2 -2 6q-1 -2 -2 -2.5t-1 -2.5t1 -3t2 -3q1 2 1 3t1 2z" />
    <glyph glyph-name="dollar" unicode="$" horiz-adv-x="464" 
d="M289 469q-33 -26 -59 -58t-48 -68q-6 -9 5 -13q12 -6 28 -13q25 -10 49.5 -21.5t48.5 -24.5q14 -8 26.5 -16t23.5 -19q23 -24 33 -52t-4 -62q-4 -10 -4 -16q1 -17 -7 -28t-19 -21q-3 -3 -6.5 -6t-6.5 -6q-7 -6 -10 -13t3 -16q5 -7 0 -16q-8 -14 -10 -28t-5 -28
q-5 -23 -17.5 -41t-36.5 -28q-2 -1 -4 -2.5t-4 -2.5q-24 -14 -38 -11t-31 25q-4 5 -5 10.5t-2 11.5q0 10 -1 19t-1 18q0 11 -1 16t-4.5 7.5t-9 3t-13.5 1.5q-11 2 -21.5 3t-20.5 6q-5 2 -8.5 4.5t-2.5 7.5q4 15 -11 15q-9 0 -14 1q-4 1 -7 5t-1 8q14 30 31.5 57t52.5 41
q11 4 21 10t21 12q14 7 1 14q-11 5 -21.5 10.5t-21.5 10.5q-14 6 -27 11.5t-26 10.5q-14 6 -26.5 13t-24.5 16q-9 7 -16.5 16t-10.5 21q-3 9 -8 19q-12 17 -12.5 34.5t4.5 36.5q5 21 13.5 40t19.5 38q23 42 53.5 78.5t66.5 68.5q7 7 18 15q10 9 10 24q-1 19 -1 37.5t-2 36.5
q-1 14 -0.5 26t2.5 25q2 11 3.5 22.5t-0.5 26.5q-7 -17 -9.5 -32t-0.5 -29q2 -17 -0.5 -32t-4.5 -30q-8 -2 -8.5 1.5t-1.5 5.5q-5 26 -3 51t9 50q2 8 5 15.5t13 11.5q4 2 6 7q7 18 20 22t30 1q11 -2 21.5 -4t16.5 -14q2 -2 6 -2q11 8 16 2.5t10 -12.5q7 -11 11.5 -22
t-2.5 -25v-3q4 -14 1.5 -28t-4.5 -28t-2.5 -28.5t-2.5 -29.5q12 -4 24 -3.5t23 1.5q26 2 43.5 -9.5t30.5 -31.5q22 -32 23 -70q2 -42 -7.5 -80.5t-26.5 -76.5q-8 -17 -21 -27t-30 -15t-22 10q-1 4 -4.5 4.5t-5.5 -3.5q-8 -13 -23 -5q-3 1 -9 5q-14 8 -15.5 13.5t2.5 22.5
q2 6 2 9q-3 5 -4 6q-18 5 -22 11.5t1 23.5q2 8 4.5 14.5t5.5 14.5q2 4 2.5 7.5t-1.5 8.5q2 -2 3 -2t0 2q-1 0 -1.5 -0.5t-1.5 -0.5zM279 732q4 10 6.5 17t3 12.5t-0.5 12t-3 15.5q-5 -14 -6.5 -27.5t0.5 -29.5z" />
    <glyph glyph-name="percent" unicode="%" horiz-adv-x="642" 
d="M600 539q8 -3 13.5 1t11.5 5q7 1 13 -4q5 -5 2 -15q-5 -9 -11 -15.5t-13 -13.5q-44 -42 -86 -84t-84 -87l-10.5 -10.5t-7.5 -13.5q6 -4 12.5 -3.5t13.5 0.5h27q29 1 56 -12q37 -17 55.5 -46.5t23.5 -67.5q1 -7 0.5 -14t0.5 -14q5 -67 -22 -118.5t-78 -92.5
q-10 -8 -21 -14l-22 -12q-14 -7 -27.5 -10.5t-28.5 -1.5q-2 0 -5 0.5t-5 0.5q-29 -4 -52 7.5t-42 29.5q-41 40 -43 101q0 47 10 88q2 5 2.5 11t2.5 12q-7 2 -9.5 -2t-5.5 -6q-23 -28 -47 -55.5t-47 -56.5q-17 -20 -38 -33.5t-44 -24.5q-9 -5 -19 -6t-21 0q-26 2 -36 15.5
t-8 43.5q0 4 1.5 8t2.5 8q1 2 1 5.5t-1 3.5q-13 6 -9 13.5t6 15.5q4 14 11.5 26t17.5 23q31 36 61.5 72.5t61.5 72.5q11 12 21 24t21 25q4 4 2 9q-1 3 -8 3q-17 -1 -32.5 0.5t-32.5 4.5q-29 4 -52 18t-38.5 34t-22 45.5t-2.5 54.5q8 61 33 114q8 18 18 32q15 23 37.5 34
t48.5 13q24 1 50 6q35 6 67 -3t61 -29q8 -6 14.5 -14.5t8.5 -18.5q3 -15 10.5 -27.5t14.5 -26.5q6 -11 7 -23.5t3 -24.5q7 -2 10 1.5t6 5.5q16 16 31 31.5t32 30.5q22 20 46 40q8 7 17.5 10t20.5 0q5 -2 10 -2h10q20 2 27 -17q2 -7 6 -7q18 -1 22.5 -12.5t8.5 -25.5
q-11 -9 -20.5 -18t-20.5 -18q2 1 2.5 0t-0.5 -1q-4 0 -1.5 -0.5t0.5 2.5zM191 482q2 1 3.5 1t2.5 1q18 11 29 33q5 11 -4 18q-4 2 -9.5 1.5t-8.5 -5.5q-14 -17 -19 -42q-1 -5 6 -7zM190 616q10 -5 18 -2q3 0 3 4q0 2 -3 5q-9 3 -15 -3q1 0 -3 -4zM371 499q0 3 -2 5
q-3 -3 -3 -5q1 -2 1.5 -2.5t1.5 -2.5q2 4 2 5zM63 434q0 1 2 1q0 3 -1 3q-3 3 -3 -2z" />
    <glyph glyph-name="ampersand" unicode="&#x26;" horiz-adv-x="495" 
d="M108 -44q-47 8 -70 32t-30 69q-6 32 4 67q14 55 38.5 104t57.5 94l16 22l16 22q4 6 -2 12q-5 5 -9 8t-9 7q-33 25 -47 66q-3 9 -4.5 18t0.5 18q7 25 14.5 49t25.5 44q22 23 45 43.5t52 35.5l12 6t12 7q10 5 10 16q2 15 4.5 30t0.5 32q-11 -13 -10 -28t-4 -29q-10 2 -10 9
q-2 8 -3 15t-1 15q1 34 11 71q3 9 8 10t16 -7q2 11 4 20t4 19q1 9 5.5 14t12.5 9q13 6 25.5 6.5t25.5 -9.5q8 -7 8 -17q0 -5 -1 -7q-10 -16 -4 -29.5t14 -28.5q3 19 7 32q5 14 18 12q6 0 9 -3.5t5 -8.5q6 -12 6 -27q-1 -16 -1.5 -32t-8.5 -30q-2 -3 -2 -6.5t-1 -7.5
q0 -7 7 -10q5 -2 10 -2t10 -2q43 -11 65 -46q6 -8 8 -18q3 -16 11 -32q4 -8 5 -16.5t1 -16.5q-1 -19 -2.5 -37.5t-6.5 -36.5q-6 -18 -11 -36t-11 -36q-12 -31 -40 -29q-8 0 -14.5 4t-12.5 8q-4 2 -4 5.5t1 7.5q4 14 3.5 28.5t4.5 28.5l-3 8q-5 -14 -9.5 -27t-8.5 -26
q-3 -8 -7 -15.5t-11 -13.5q-10 -9 -21 -7.5t-19 12.5q-12 17 -16.5 36t5.5 40q2 6 3.5 12.5t3.5 13.5q2 6 5 13t-3 12q-5 3 -10.5 -1.5t-10.5 -7.5q-16 -9 -28 -19q-17 -13 -17 -17.5t14 -17.5q24 -22 30 -52q2 -8 4 -13q15 -31 10 -60t-20 -57q-11 -20 -23.5 -37.5
t-25.5 -35.5q-14 -21 -28 -42.5t-25 -44.5l-9 -18q-1 -2 -1.5 -4.5t2.5 -4.5q6 -2 10 -1q5 2 11 4.5t11 4.5q26 11 50 22q62 26 131 31q22 2 43.5 3t43.5 7q14 4 9 -12q-10 -29 -25 -54t-33 -49q-30 -39 -77 -59q-13 -5 -25 -11t-26 -10q-30 -10 -33 -41q-2 -14 -5 -27
t-5 -27q-2 -11 -4 -21.5t-4 -21.5q-7 -32 -33 -58q-5 -5 -9.5 -10t-9.5 -10q-9 -11 -15 -12.5t-19 4.5q-35 17 -54 48.5t-16 73.5q2 14 4 28.5t4 28.5q1 4 1 15zM175 -191q7 10 1 22q-4 -5 -3.5 -11t2.5 -11zM341 764q0 1 -0.5 1.5t-0.5 1.5l-3 -3q1 -1 1 -2q1 1 1.5 1
t1.5 1zM88 52q-1 -1 -2.5 -1.5t-1.5 -1.5q0 -4 2 -6q6 -2 6 5q0 1 -1.5 2t-2.5 2zM333 742q-2 0 -2 -2l1 -2q2 0 2 2z" />
    <glyph glyph-name="quotesingle" unicode="'" horiz-adv-x="235" 
d="M46 624q-3 36 13 65.5t32 59.5q5 9 13 15t17 11q10 6 14 5.5t15 -10.5q7 -7 10 0q6 10 13 10t16 -4q14 -7 23.5 -17t14.5 -27q2 -9 0.5 -15.5t-4.5 -13.5q-2 -5 -2 -9t7 -7q8 -5 6 -18v-3q-12 -23 -23 -47t-30 -43q-20 -20 -44 -28.5t-51 -10.5q-11 -2 -17 8
q-12 18 -20 37t-3 42z" />
    <glyph glyph-name="quotedbl" unicode="&#x22;" horiz-adv-x="445" 
d="M216 573q-5 0 -8.5 -2.5t-6.5 -5.5q-20 -18 -42.5 -31t-43.5 -29q-3 -2 -6.5 -1.5t-4.5 4.5l-16 50t-2 52q2 5 3 10.5t-1 9.5q-6 14 -2 25t8 23q10 29 21.5 56t24.5 54q8 17 19.5 31t28.5 24q24 14 49 13q5 0 10 -0.5t9 -4.5q4 -6 9.5 -7t11.5 -1q10 0 18 -8q9 -9 0 -17
q-4 -4 -8 -7t-7 -6q-2 -2 -2 -7q3 -3 5 -3q7 0 14.5 -1t12.5 2q12 8 25 6.5t26 6.5q8 5 17.5 2.5t17.5 -7.5q3 -2 6.5 -4.5t7.5 -4.5q13 -9 -1 -20l-6 -3q-4 -7 1 -8q4 -2 7.5 -3t8.5 -3q16 -5 20.5 -11t3.5 -23q-1 -8 -2 -15t-3 -15q0 -7 -4 -9q-15 -4 -18.5 -16.5
t-11.5 -22.5q-8 -8 -13 -19l-10 -22q-12 -28 -33 -50q-16 -17 -35 -27t-41 -16q-7 -2 -16 2q-8 4 -13 10t-10 13zM229 812q-1 -4 -1.5 -8t-1.5 -8q-1 -2 -3.5 -2t0.5 -3q1 2 1 3t1 3q6 2 5.5 6t-2.5 9l3 -1zM247 833h-2l2 -1v1zM85 1026h9q2 -2 4 -2q-2 -1 -6 -1l-4 2l-4 2z
M94 1030q-1 -1 -5 -7h-3q-6 2 1 2q2 1 4 1.5t3 3.5zM113 1034q-15 -7 -29 -4q8 1 14.5 1.5t14.5 1.5v1zM86 1034q-2 -1 -2.5 0t1.5 1q3 0 1 0.5t0 -2.5v1zM84 1027v1l1 -2z" />
    <glyph glyph-name="copyright" unicode="&#xa9;" horiz-adv-x="642" 
d="M641 386q3 -62 -19 -126q-25 -75 -67.5 -136t-106.5 -109q-21 -16 -43.5 -29t-47.5 -23q-80 -34 -163 -19q-61 11 -103 44.5t-63 93.5q-15 42 -19.5 85.5t-2.5 88.5q3 60 24 112.5t54 101.5q19 28 42.5 52t55.5 40q12 5 22 20q18 26 46 39q51 23 103 33.5t108 -0.5
q94 -18 141 -101q34 -60 39 -129q1 -10 0.5 -19t-0.5 -19zM282 540q2 -4 4.5 -4.5t6.5 -1.5q5 -2 9.5 -3.5t9.5 -3.5q10 -5 9.5 -13.5t-8.5 -16.5q-4 -4 -8 -4t-8 1t-8 1t-7 -4q-3 -3 -7.5 -1t-7.5 4q-9 8 -17 6.5t-16 -8.5q-20 -16 -37 -35t-31 -40q-23 -35 -36.5 -73
t-23.5 -77q-19 -73 12 -147q17 -42 56 -63t84 -13q58 9 105 45q57 44 97.5 98t60.5 125q28 95 -28 177q-11 16 -26.5 30.5t-35.5 24t-43 12.5t-48 -3q-6 -2 -12 -3.5t-9 -9.5q-1 -4 -4.5 -4t-7.5 1q-6 2 -11.5 5.5t-13.5 -2.5zM331 592q20 2 37.5 2.5t34.5 1.5q2 0 2.5 1.5
t2.5 3.5q-5 5 -11 8t-12 1q-13 -2 -26.5 -4t-27.5 -14zM207 -3q34 -20 60 -5q2 1 2.5 2t2.5 2q-2 1 -2.5 2t-2.5 1q-14 1 -28 1.5t-32 -3.5zM256 533q-1 1 -2 1h-2q0 -2 2 -2q1 1 2 1zM591 387h-2l1 -2zM444 261q-17 -44 -35 -75q-13 -21 -29 -33q-43 -31 -88 -51
q-19 -8 -38 -8.5t-39 4.5q-35 11 -47 45q-20 60 -1 117q16 52 45 95t67 80q22 21 53 30q39 11 68.5 -9t31.5 -61v-15.5t-2 -15.5q-4 -28 -12 -59q-5 -17 -21 -20q-12 -3 -14 10q0 7 4 13t-1 13q-5 -2 -6 -5.5t-3 -8.5q-1 -3 -1.5 -7.5t-7.5 -2.5q-4 2 -2.5 5.5t1.5 6.5
q2 7 0 10q-12 5 -10.5 12.5t3.5 15.5q3 10 -1 19q-2 5 -7 7t-9 -2q-4 -3 -10 -9q-26 -29 -47 -60.5t-35 -68.5l-4 -16l-4 -16q-1 -6 3 -9.5t10 -2.5q11 2 20 6.5t18 9.5q23 13 47 22t50 16q12 3 24.5 8t28.5 10zM193 136q0 2 -2 2q-1 0 -1 -1h4q0 -2 -1 -4t4 -2q-1 2 -4 5z
M262 140q-3 -1 -6 0.5t-4 -3.5q-1 -2 1.5 -4t4.5 -2q7 2 9 5q2 5 -0.5 4t-4.5 0z" />
    <glyph glyph-name="registered" unicode="&#xae;" horiz-adv-x="475" 
d="M180 763q2 -5 -2.5 -8.5t-2.5 -8.5l-1 1h1q8 0 15.5 2t12.5 12q7 11 19 14.5t25 4.5q14 1 27 0.5t26 -0.5q1 6 -5 8q-1 1 -3 5q1 0 1 1t1 1q5 -1 9 -0.5t8 -1.5q33 -14 62 -33t52 -49q49 -65 49 -148q0 -26 -1 -51t-9 -50q-26 -78 -77.5 -128.5t-128.5 -76.5
q-26 -8 -51.5 -11.5t-52.5 -0.5q-38 3 -72 27t-50 59q-36 82 -24 172q4 32 12.5 63t22.5 60q14 30 34 51q14 17 29.5 32.5t32.5 29.5q10 8 19.5 14.5t21.5 8.5v1zM155 314q-1 0 -2 1.5t-2 -2.5q2 1 2.5 1t2.5 1q-1 -7 7 -10q20 -8 37.5 -3.5t34.5 14.5q-20 0 -40 -2.5
t-40 0.5zM288 719l-4 -2q-8 -19 -23 -27q-11 -5 -20 -1.5t-17 9.5q-9 7 -23 2q-17 -7 -31 -21q-15 -17 -29 -35t-24 -39q-21 -41 -28.5 -83.5t-3.5 -87.5q3 -32 15 -62q10 -26 33 -40t50 -12q32 3 61.5 12.5t56.5 27.5q28 19 44 46q23 42 33.5 85.5t5.5 90.5q-5 48 -28 82.5
t-68 54.5zM29 487q1 8 2.5 14t-6.5 11q2 -6 0.5 -12t3.5 -13zM408 547l2 2v9q-1 2 -2 1.5t-1 -3.5q0 -2 0.5 -4.5t0.5 -4.5zM27 466l2 3h-3zM180 762q2 1 2.5 2t1.5 2q6 2 4 -3q0 -2 -2 -2t-6 2v-1zM203 405q-8 -4 -9.5 -11.5t-5.5 -13.5q-5 -7 -7.5 -15.5t-11.5 -14.5
q-8 22 -11.5 44t-0.5 45q4 26 10 51.5t11 51.5q2 5 3 11t-1 12q-8 2 -11.5 -2.5t-8.5 -7.5q-3 -2 -5.5 -6t-7.5 0q-2 1 -0.5 5t2.5 7q1 9 -7 6q-4 -1 -10 -3q-5 -1 -8 2.5t-1 8.5q2 6 4.5 12t7.5 11q25 23 52 41t61 25q26 6 50 -2q41 -15 29 -56q-7 -23 -17.5 -44t-25.5 -40
q-11 -13 -22 -25.5t-22 -25.5q-2 -2 -4.5 -5t-1.5 -9q21 -8 43 -13.5t42 -19.5q-4 -5 -9 -6.5t-10 -1.5q-20 -2 -40.5 -2.5t-40.5 4.5q-9 2 -11.5 -3t-4.5 -10zM239 550q12 10 20 22t14 26q7 17 -8 27q-10 -18 -17 -36.5t-9 -38.5zM172 415q0 1 -0.5 1.5t-0.5 1.5
q0 -1 -0.5 -1t-0.5 -1q0 -2 0.5 -2.5t0.5 -1.5q1 1 1 3zM184 494v-3l1 2zM203 405h14q5 2 3 -2q-3 0 -4 1q-8 0 -13 1z" />
    <glyph glyph-name="trademark" unicode="&#x2122;" horiz-adv-x="477" 
d="M403 593q-5 -11 -7 -18t-4 -12q-6 -14 -15 -23t-27 -10q-34 -1 -48 29l-12 27q-2 3 -5 3q-5 0 -5 -3q-5 -12 -9 -24l-8 -24q-2 -7 -4 -13.5t-7 -11.5t-10 -8t-12 5q-1 1 -3 1.5t-2 -0.5q-7 -9 -15 -5q-5 3 -9 7.5t-3 11.5q1 14 0.5 27t5.5 26q15 34 18 72q1 12 5 23t9 22
q11 21 33.5 26t41.5 -10q13 -10 23 -29q3 -5 6 -9t8 -6q7 5 10 11.5t8 12.5q6 8 12.5 15t14.5 12q20 13 42.5 7t29.5 -29q13 -43 10.5 -85t-29.5 -81q-11 -14 -21 2q-7 13 -11.5 27.5t-10.5 33.5zM437 626h-1v-15h1v15zM232 529l2 2l-3 1zM50 674q10 6 19 7t15 8
q-2 7 -6 5.5t-7 -0.5q-5 2 -8.5 2t-8.5 1q-4 1 -8 2.5t-8 1.5q-8 0 -17 -3q-8 -2 -13 7q-5 11 -0.5 22.5t16.5 17.5q5 2 9.5 4t9.5 3q34 7 68.5 12t69.5 4q25 -1 42.5 -8.5t37.5 -27.5q0 -5 -3 -5.5t-6 -1.5q-3 -2 -6.5 -2.5t-6.5 -1.5q-11 -1 -20.5 -1.5t-20.5 -2.5
q-9 -1 -15 -4.5t-2 -15.5q-17 -32 -24.5 -66.5t-15.5 -68.5q-13 -47 -47 -82q-3 -3 -5 -4q-5 -4 -11.5 -2.5t-8.5 7.5q-4 11 -7.5 21t-3.5 21q-1 17 -0.5 34t4.5 34l12 60q3 17 0 19.5t-24 3.5z" />
    <glyph glyph-name="ordmasculine" unicode="&#xba;" horiz-adv-x="219" 
d="M5 577q7 41 20.5 81t48.5 72q5 5 8 11q11 16 29 14q12 -1 9 13q-2 5 2.5 8.5t9.5 3.5q20 -2 32 -11q6 -4 12 -8.5t11 -10.5q20 -28 28 -57.5t-3 -64.5q-18 -56 -57 -103q-11 -12 -23.5 -21.5t-28.5 -15.5q-22 -9 -44.5 -3t-36.5 26q-10 14 -13.5 30t-3.5 36zM136 651
l-3 30q-1 5 -3 9.5t-8 5.5q-5 1 -7 -3l-4 -8q-7 -16 -14 -31t-12 -31t-9.5 -31t-3.5 -32q0 -6 4.5 -8.5t9.5 0.5q14 6 21 17q12 19 20.5 39t8.5 43zM34 580q-10 -19 -6 -35q6 8 7 16t-1 19zM135 767q0 -1 -2 -3q0 -2 4 -5t6 -2q2 0 2 3q1 2 -2.5 5t-7.5 2z" />
    <glyph glyph-name="onesuperior" unicode="&#xb9;" horiz-adv-x="120" 
d="M98 739q6 -6 10 -8q12 -8 12 -23q-1 -14 -1 -27t-2 -27q-2 -20 -5 -38.5t-6 -38.5q-3 -18 -10 -33.5t-24 -26.5q-3 -2 -5 -4.5t-5 -4.5q-8 -9 -11.5 -9.5t-10.5 7.5q-19 20 -28 44t-5 52q3 26 4 50.5t6 50.5q2 13 7.5 24t10.5 23q3 8 12 11.5t19 5.5q5 1 9.5 -2.5
t5.5 -8.5q1 -4 0.5 -7t0.5 -7q1 -5 -1.5 -12.5t7.5 -9.5q3 0 4 2t1.5 5t1 6.5t3.5 5.5zM75 556q8 15 9.5 29t-0.5 31q-5 -17 -8 -30t-1 -30z" />
    <glyph glyph-name="twosuperior" unicode="&#xb2;" horiz-adv-x="163" 
d="M155 530q-24 -32 -60 -40t-68 12q-20 11 -21 33q0 17 2 33.5t11 32.5q8 14 15.5 29.5t15.5 30.5q4 9 0 15q1 0 1.5 -0.5t1.5 -0.5l-2 1q-12 -11 -21 1q-3 5 -5 7t-9 -2q-4 -2 -6.5 2t-3.5 9q-1 8 1 16t-1 17q-1 5 2.5 9t7.5 8q17 16 36.5 26.5t42.5 15.5q25 5 43 -8.5
t23 -38.5q5 -26 -0.5 -49t-17.5 -45q-8 -14 -16 -26.5t-16 -25.5q-4 -7 -7.5 -13t-7.5 -14q11 -7 22.5 -10.5t23.5 -5.5q10 -1 13 -13l1 1q-16 0 -31.5 0.5t-31.5 -0.5q-3 0 -6.5 -0.5t-2.5 -5.5q1 -4 4 -5.5t6 -1.5q16 -4 36 1q7 2 13 4.5t13 0.5h-1zM79 697
q-2 -1 -3.5 1.5t-3.5 -2.5q2 0 3 0.5t3 0.5q-1 1 -1 3q-1 1 -2 1zM34 530q0 -1 -0.5 -1t-0.5 -1q2 -2 2 -1l2 2q-1 1 -3 1zM25 727q-1 2 -1 2.5t-1 2.5l-2 -2v-5q2 0 4 2zM91 742q0 1 1 1l1 1q-2 5 -6 2l-2 -2q2 0 6 -2zM120 751q-3 3 -4 0l1 -1q0 -1 1 -1z" />
    <glyph glyph-name="threesuperior" unicode="&#xb3;" horiz-adv-x="164" 
d="M49 690q-5 -8 -11 -7.5t-13 2.5q-9 1 -16 12q-4 5 -2 12q1 2 3 5t0 4q-8 15 -1.5 23.5t16.5 15.5q25 17 52 24.5t57 0.5q17 -4 23 -11.5t4 -24.5q0 -5 -1.5 -10t0.5 -10q5 -11 2.5 -21t-7.5 -21q-8 -14 -16.5 -27.5t-20.5 -25.5q-8 -8 -1 -17q8 -9 10.5 -19.5t2.5 -21.5
q0 -12 1 -24t3 -23q1 -11 -2.5 -18.5t-10.5 -15.5q-21 -26 -51 -39q-29 -12 -54 8q-8 6 -8 14q1 14 3.5 28t15.5 24q9 7 17.5 14t16.5 15q7 7 7 11t-8 12q-3 3 -6 5.5t-6 5.5q-10 10 -10 24q-2 17 -0.5 33.5t14.5 30.5q3 4 -3 12h7t3 5q9 -2 7 7h4l-1 1q-2 -2 -3 -2
q-5 -2 -6 -7q-6 -2 -11 -4zM77 745q6 -3 12.5 -3t12.5 2q2 0 3 2.5t2 4.5q0 4 -5 4q-8 1 -14.5 -0.5t-10.5 -9.5z" />
    <glyph glyph-name="ordfeminine" unicode="&#xaa;" horiz-adv-x="229" 
d="M169 498q-9 10 -12 21.5t-4 23.5t-1 24t-3 23q-5 3 -8 0.5t-6 -5.5q-9 -10 -19 -19t-22 -17q-10 -6 -21 -10t-23 -3q-37 3 -40 38q-2 13 -3.5 25.5t-0.5 25.5q3 44 22 77.5t58 55.5q22 13 45 12.5t43 -18.5q6 -5 12 -6t13 -3q16 -3 22 -10.5t6 -24.5q2 -20 1 -40t-7 -40
q-3 -9 -4 -18.5t-3 -18.5q-2 -27 -15 -49.5t-30 -43.5zM75 619q18 14 32.5 31t28.5 34q4 6 -1 9q-7 2 -9 1q-5 -2 -9.5 -4.5t-7.5 -5.5q-27 -27 -37 -60q0 -1 3 -5zM130 733q-7 0 -5 -6q1 -1 5 -3q7 0 7 5q0 4 -7 4zM68 576l-1 -2h2z" />
    <glyph glyph-name="cedilla" unicode="&#xb8;" horiz-adv-x="151" 
d="M87 -46q8 15 17 10q14 -8 11 -26l-2.5 -5t-0.5 -4q10 -12 4 -22t-9 -20q-1 -3 -3 -7q-6 -13 5 -20q2 -2 4 -3.5t4 -2.5q22 -15 28.5 -36t4.5 -44q-1 -26 -22 -45q-18 -17 -39.5 -28t-47.5 -9q-5 1 -10 1.5t-10 3.5q-7 5 -10.5 10t-4.5 14q-2 19 5.5 31.5t21.5 22.5
q5 4 11 7.5t12 7.5q11 9 11 12.5t-12 10.5l-6 3q-28 10 -33 35t3 50q6 17 16 30.5t22 25.5q3 4 7.5 7t9.5 1q4 -2 7 -5t6 -5q-2 0 -2.5 0.5t-2.5 0.5q1 0 5 -2z" />
    <glyph glyph-name="circumflex" unicode="&#x2c6;" horiz-adv-x="257" 
d="M7 736q-3 14 1.5 25.5t9.5 22.5q14 28 33 51.5t41 45.5q10 10 24 16t28.5 5.5t28.5 -8t23 -23.5q8 -13 15 -25t13 -25q5 -9 9 -19t9 -18q8 -15 10 -30.5t4 -31.5q1 -5 -1 -10l-4 -10q-6 -11 -19 -11q-37 3 -55 30q-11 17 -23 37q-4 5 -7 10t-7 10q-3 5 -7 4.5t-7 -4.5
q-8 -10 -15.5 -20t-15.5 -20q-5 -8 -9 -14.5t-9 -14.5q-8 -13 -21 -17q-9 -4 -16 1q-2 4 -5 4q-11 3 -17 5t-8.5 5.5t-2.5 9v15.5v4z" />
    <glyph glyph-name="acute" unicode="&#xb4;" horiz-adv-x="181" 
d="M37 720q-13 -1 -24 16q-10 17 -7.5 32t10.5 29q17 25 38 45.5t46 37.5q6 5 14.5 7.5t16.5 4.5q12 3 25 -2.5t19 -16.5q5 -8 5.5 -16.5t-6.5 -13.5q-16 -11 -3 -23q3 -3 1.5 -6.5t-4.5 -5.5q-20 -14 -36.5 -30.5t-34.5 -32.5q-16 -14 -29.5 -19.5t-30.5 -5.5z" />
    <glyph glyph-name="grave" unicode="`" horiz-adv-x="186" 
d="M5 611h2l1 1h-2zM37 821q-2 11 -10 15t-15 10q-7 5 -3 14q5 13 11 18t20 6q17 0 32 -4t29 -14q19 -14 35.5 -31t30.5 -36q13 -18 15 -41q2 -18 3.5 -27.5t-2 -13.5t-13.5 -3t-29 3q-23 3 -46 21q-19 15 -37.5 31t-39.5 30q-7 5 -12 16q-2 4 0 9q4 4 9 4q5 -1 11 -2.5
t11 -3.5v-1z" />
    <glyph glyph-name="ring" unicode="&#x2da;" horiz-adv-x="184" 
d="M184 780q-4 -34 -19.5 -60t-47.5 -42q-19 -10 -39 -7.5t-36.5 12.5t-26.5 26.5t-9 35.5q1 20 2.5 40t11.5 39q7 14 16.5 25.5t25.5 16.5q7 2 12.5 5.5t11.5 6.5q28 16 54 -2q17 -12 27.5 -27.5t12.5 -36.5l2 -16zM79 703l1 2l-2 -1h9l-2 2zM65 754v-3.5t1 -4.5
q2 -12 11.5 -15.5t19.5 4.5q6 5 10 11t8 13q9 13 7.5 25.5t-10.5 24.5q-9 10 -21 3q-11 -6 -15 -17q-8 -16 -11 -41zM31 716v-4q1 1 1 2t-1 2z" />
    <glyph glyph-name="dotaccent" unicode="&#x2d9;" horiz-adv-x="139" 
d="M56 848q19 4 28 -7q8 -13 24 -16q13 -2 19.5 -11t8.5 -20q8 -32 -5 -55.5t-38 -34.5q-14 -7 -31 -8t-33 12q-32 28 -20 67q2 9 6 17.5t7 17.5q8 19 30 15q5 -1 10 -2.5t10 -2.5q1 -1 2.5 0.5l2.5 2.5q2 4 0 6q-2 8 -8.5 10.5t-12.5 8.5z" />
    <glyph glyph-name="tilde" unicode="&#x2dc;" horiz-adv-x="274" 
d="M7 761q-2 22 9 37t28 26q15 10 31 8.5t31 -9.5q11 -5 21 -12.5t21 -15.5q7 -6 12.5 -9.5t11 -4t11.5 4t15 15.5q5 6 9 12.5t9 12.5q11 12 22 15q20 3 26.5 1t8.5 -25q3 -21 -5 -36l-12 -22t-13 -22q-9 -14 -22.5 -23t-28.5 -12t-31 0t-29 12q-12 8 -24.5 17t-24.5 18
q-9 6 -15 -1q-4 -3 -7 -7q-7 -14 -18.5 -12.5t-22.5 -0.5q-5 -2 -8.5 3t-5.5 10q-1 5 0 10t1 10zM173 750l3 1l-3 1v-2z" />
    <glyph glyph-name="a" unicode="a" 
d="M449 -10q-4 4 -4.5 8.5t-0.5 9v9t-3 9.5q-5 -11 -6.5 -20t-1.5 -19q1 -28 -11 -51.5t-23 -46.5q-2 -4 -7 -4.5t-7 3.5q-5 7 -10.5 13.5t-8.5 14.5q-8 18 -14 36.5t-5 38.5q-4 -8 -2.5 -16t-3.5 -15q-5 1 -7.5 4t-4.5 7q-18 37 -26 81q-2 11 -5 13t-15 0
q-18 -3 -35.5 -5.5t-35.5 -5.5q-8 -1 -15 -1.5t-15 0.5t-11.5 -2t-6.5 -9q-3 -7 -6.5 -9t-6.5 9q0 1 -2 1t-3 -1q-4 -4 -5 -9q-9 -47 -41 -80q-4 -4 -6 -9.5t-10 -5.5q-8 -1 -13 3t-9 9q-11 14 -23 27t-19 30q-8 20 -12 40.5t-2 42.5q2 17 4.5 33.5t6.5 33.5
q26 128 74 245.5t111 229.5q3 5 6 10.5t7 10.5t8.5 9.5t12.5 6.5q6 2 12.5 4.5t11.5 7.5q6 6 19 6q19 0 35 8q11 7 24 4.5t25 -4.5q11 -2 17 -8.5t11 -14.5q2 -2 3 -4.5t3 -4.5q17 -11 23.5 -28t11.5 -35q11 -32 16.5 -65.5t8.5 -67.5q3 -32 5 -63t2 -62q2 -66 1.5 -131
t0.5 -131q0 -36 -9 -70l-4 -10zM300 326q-1 15 -2.5 39.5t-3.5 50.5q0 4 -4 4q-3 0 -5 -2t-2 -3t-1 -3q-39 -84 -66 -171q-2 -7 -4 -17q-1 -10 9 -11q16 0 31.5 -1t31.5 -7q15 -6 15 11q1 23 1 49v61zM442 346q-2 -1 -5 -1v-247q0 -4 0.5 -7t0.5 -7q0 -2 2 -2q3 -2 1.5 1
t0.5 -1v264zM339 196q1 0 2 1v141h-2v-142zM280 151q-1 1 -1 3q-8 2 -13 1q-17 -2 -33 -5t-33 -5q-4 -1 -5.5 -3t0.5 -3q5 -3 6 -2q20 3 39.5 6.5t39.5 7.5zM56 -3q2 17 2.5 35t1.5 35q0 3 -4 5t-4 -4l-4 -36t8 -35zM231 651q-1 -2 -2 -3t-1 -3l2 -2q1 2 1.5 2.5t1.5 2.5
q0 1 -1 1.5t-1 1.5z" />
    <glyph glyph-name="b" unicode="b" horiz-adv-x="501" 
d="M74 -167q-32 45 -50.5 95t-18.5 107q0 32 2.5 64.5t5.5 64.5q7 81 17 161.5t24 161.5q2 11 1 20t-6 19q-8 13 -7 27t11 25q11 13 17 28.5t13 30.5q12 27 36 38q9 6 16 -5q4 -6 6 -6t5 5q6 13 9.5 15.5t14.5 -1.5q16 -5 30.5 -4t29.5 4q38 8 74.5 8t73.5 -11
q41 -12 71 -38q28 -25 35 -57q2 -13 6 -23q15 -37 9 -71t-23 -67q-17 -31 -39 -57.5t-48 -50.5q-6 -5 -12 -11t-12 -11q1 -8 5.5 -10t8.5 -4q17 -11 33 -22t30 -25q7 -7 12.5 -14t6.5 -17q2 -14 6.5 -26.5t8.5 -25.5q7 -25 1.5 -47.5t-17.5 -43.5q-28 -49 -71 -81
q-20 -15 -40.5 -28t-43.5 -24q-22 -11 -44 -21.5t-45 -21.5q-19 -9 -39 -15t-42 -4q-16 0 -20 -15q-1 -2 -1 -4.5t-2 -4.5q-2 -4 -2.5 -9t-1.5 -10t-3 -8.5t-7 -4.5q-4 -1 -6.5 2t-4.5 7t-4.5 8.5t-6.5 6.5q1 0 -3 2q1 2 1 3t1 3q0 2 1 3l-2 2q0 -2 -0.5 -3t-0.5 -3t0.5 -3
t0.5 -3zM166 -111q-7 3 -14 2.5t-15 -1.5q-4 -1 -6 -4.5t0 -5.5q3 -4 8 -2q8 2 15 4.5t12 7.5q1 2 3 4q-1 -1 -3 -5zM306 132q-28 19 -59.5 23t-63.5 11q-6 1 -8 -9q-2 -24 -4 -47.5t-4 -47.5q0 -5 3 -7.5t8 -0.5q32 14 62.5 30t58.5 37q3 2 6 5.5t1 5.5zM209 390q5 0 6 1
q28 20 54 41.5t49 46.5q5 5 9 10.5t8 10.5q5 8 2 14t-13 7q-23 2 -45.5 -1.5t-45.5 -9.5q-10 -3 -12 -14q-4 -23 -7.5 -47t-7.5 -47q-2 -8 3 -12zM319 539q-18 20 -33 17q-14 -4 -29 -7t-28 -17q23 2 44.5 3.5t45.5 3.5zM253 644q16 -10 32 -10h33q4 0 4 4t-2 6
q-8 5 -16.5 7.5t-18.5 0.5l-16 -4zM68 -22q6 32 0 53q-2 -11 -2 -23.5t2 -29.5zM183 195l-1 -2l2 -1z" />
    <glyph glyph-name="c" unicode="c" horiz-adv-x="500" 
d="M345 459q-2 -1 -5 -0.5t-4 -1.5q-3 -5 -5.5 -11t-4.5 -11q-4 -8 -10 -6q-9 2 -5 13q2 7 4 13.5t4 12.5q2 7 -2 10q-6 -1 -9.5 -5.5t-6.5 -9.5q-8 -13 -16.5 -25.5t-15.5 -25.5q-61 -110 -87 -235q-5 -21 -6.5 -42t0.5 -43q2 -17 6 -20.5t21 1.5q21 5 41 11.5t40 14.5
q17 7 35 12.5t36 9.5q62 12 119 39q8 4 19 6q3 1 5 -1.5t1 -4.5q0 -8 -5 -16q-9 -12 -15.5 -25.5t-13.5 -27.5q-23 -49 -58 -87t-86 -61q-86 -39 -182 -31q-7 0 -10 2q-32 12 -58.5 31t-40.5 54q-35 93 -19 187q16 101 52 193.5t91 177.5q9 14 18.5 26.5t20.5 25.5
q23 26 51.5 42.5t60.5 24.5q23 5 47 5.5t47 -8.5q5 -2 10 -3t10 -1q23 -3 35 -24q16 -24 23.5 -50t4.5 -56q-3 -26 -8.5 -50.5t-17.5 -47.5q-5 -8 -10 -16.5t-19 -6.5q-3 1 -4 -1t-3 -4q-6 -14 -16 -17.5t-23 -3.5q-7 1 -13.5 0.5t-13.5 1.5q-18 4 -21 24q-2 11 2 21t9 21
q0 2 0.5 4.5t0.5 4.5q2 2 -1 2q-4 0 -3 -4q0 -2 4 -8zM151 -14l-1 1h2q-2 -5 1 -5l1 2q-1 1 -1.5 1t-1.5 1zM230 -9q-6 0 -12 0.5t-12 0.5q-7 0 -6 -5q1 -2 3 -4t4 -2q7 -2 13 0t10 10zM45 112q1 2 1 6l-2 2v-7zM53 -7q-1 1 -1.5 2t-1.5 2q0 -1 -1 -1t-1 -1q2 -5 3 -5
q1 -1 2 0t0 3z" />
    <glyph glyph-name="d" unicode="d" horiz-adv-x="554" 
d="M79 562q6 14 7 25.5t2 22.5v20q0 41 45 38q17 -2 32 0.5t31 5.5q34 6 67.5 8.5t67.5 -2.5t61.5 -19.5t47.5 -42.5q19 -24 36 -49t28 -54q23 -60 22 -120t-20 -120q-19 -59 -50 -110t-70 -98q-24 -29 -50.5 -56.5t-54.5 -54.5l-3.5 -3.5l-3.5 -3.5q-32 -27 -68 -44
t-79 -19q-16 0 -20 -14q-2 -5 -4.5 -9.5t-4.5 -9.5q-7 -14 -12 -14.5t-16 12.5q-7 8 -12.5 17.5t-16.5 14.5q-7 2 -3 8q5 10 3.5 19t-3.5 18q-2 10 -2 20t-1 20v22.5t-3 25.5q-5 -20 -3.5 -37.5t-1.5 -34.5q-7 0 -8 4t-3 7q-8 21 -10 43t0 44q4 62 8.5 123.5t10.5 123.5
q5 60 13 120t14 120q2 20 6 39.5t6 39.5q2 7 7 6q2 -1 4 -8q1 -10 -0.5 -20.5t4.5 -23.5zM372 651q1 2 1.5 2.5t-0.5 -1.5q-1 0 -1 0.5t-1 0.5q5 -1 8.5 -5t9.5 -2q-2 -6 4 -3q-2 1 -2.5 1.5t-2.5 1.5q-2 6 -7 4.5t-9 0.5zM179 101q5 3 8 4t5 3q25 25 48.5 50t45.5 52
q51 65 71 145q15 57 -7 109q-16 35 -38.5 47t-59.5 4h-3q-17 -4 -23.5 -11.5t-9.5 -24.5q-11 -89 -20.5 -177t-16.5 -177q-1 -5 -0.5 -10.5t0.5 -13.5zM232 646q19 -2 35.5 -2h33.5q4 0 4 4q1 2 -2 5q-18 11 -32.5 9.5t-38.5 -16.5zM277 546h8q4 2 4 4q1 2 -2 5q-8 6 -16 1
q-3 0 -3 -4q0 -3 4 -5q1 -1 5 -1zM185 650l-2 -2q1 0 1 -0.5t1 -0.5q5 0 2 3h-1h-1z" />
    <glyph glyph-name="e" unicode="e" horiz-adv-x="506" 
d="M163 640q8 10 9 14q8 16 13 19t18 -6q13 -8 25.5 -10t26.5 0q53 6 104 9q57 3 108 -25q2 -1 4 -3l5 -5q-50 5 -97 0t-93 -15q25 1 49 -3t50 1q8 1 15 0t15 -1l36 -2t36 -1q15 -1 28.5 -7t22.5 -20q6 -8 4.5 -12.5t-9.5 -8.5q-28 -13 -57 -18t-59 -7q-39 -3 -78.5 -6.5
t-79.5 -11.5q-4 -1 -12 -5q-1 -1 -4 -6q3 -3 5 -3h14q38 5 76 8.5t76 7.5q5 0 11.5 1t13.5 -3q-13 -10 -35 -17q-15 -4 -30 -5t-30 -3q-25 -2 -48.5 -5t-46.5 -6q-19 -2 -20 -18q-1 -4 -2.5 -7t-1.5 -7q-1 -13 -6.5 -25t-0.5 -26q14 -4 26 -2l24 4q40 5 77 -1t73 -22l36 -14
t38 -21q-60 2 -116 -5t-117 -15q15 -5 25 -4.5t19 2.5q44 4 87 7.5t87 1.5h6.5t6.5 -1q6 0 9 -3q2 -4 -1 -6t-5 -4q-20 -13 -40.5 -25.5t-41.5 -23.5q-14 -8 -29 -13t-32 -7q-39 -5 -77.5 -8.5t-77.5 -7.5q-13 -4 -13 -13q-5 -40 -5.5 -79.5t5.5 -79.5q1 -9 5.5 -12t13.5 -2
q6 2 12 2t11 2q29 6 56.5 7t55.5 3q8 1 15 0.5t15 -1.5q14 -3 27 -1t27 7q9 4 18.5 7t19.5 6q6 2 10 -2t2 -10q-14 -34 -33.5 -64.5t-50.5 -52.5q-3 -3 -6.5 -5t-6.5 -6q-15 -22 -37 -32t-45 -16q-78 -21 -156 -6q-21 4 -37.5 14.5t-30.5 26.5q-34 39 -47 84t-14 95
q-2 66 5 130t20 127q12 60 27 120q2 8 1.5 14.5t-7.5 13.5q-5 7 -9 14.5t-3 16.5q2 16 8 27t23 16q6 2 8 5.5t-4 8.5q-5 5 1 11q10 10 21 18q16 8 16 23q2 10 11 12q6 1 11 4.5t10 5.5q14 7 15 -8q1 -5 1 -10.5t2 -14.5zM317 -78q-1 2 2 3t1 3q0 -2 -1 -2.5t-1 -2.5l-1 1v-2
zM212 -89q2 -1 2 -3t3 0q-2 1 -3 1t-2 1q8 10 19 2q4 0 6 1q0 1 1 2q-3 1 -4.5 -0.5l-3.5 -3.5q-1 3 -1.5 6.5t-4.5 4.5q-7 1 -13.5 2t-13.5 1q-5 0 -9.5 1t-8.5 -4q-2 -3 3.5 -6.5t13.5 -4.5q4 0 8 0.5t8 -0.5zM98 208q-5 -14 -8 -29.5t4 -35.5q2 19 2.5 34.5t1.5 30.5z
M235 320q0 2 -1 2q-7 2 -14 3.5t-14 3.5q-5 2 -7 -4q0 -6 6 -7q8 1 15 1t15 1zM120 -84q-2 2 -2.5 4t-2.5 4q-1 2 -3 3t-4 -1t-2 -4t2 -4q4 -4 7 -6l2 2q1 1 1.5 1t1.5 1zM200 17q2 -4 8 -2h3q0 5 -6 5q-2 0 -2.5 -1t-2.5 -2zM262 -84v2l-3 1z" />
    <glyph glyph-name="f" unicode="f" horiz-adv-x="476" 
d="M454 526q1 -5 1 -9t-5 -6q-17 -8 -33 -9q-28 -3 -55.5 -6t-55.5 -7q-19 -2 -37 -6t-37 -7q-11 -2 -13 -13q-3 -23 -7.5 -45t-4.5 -44q6 -5 11 -3t10 2l8 2l8 2q31 7 61 5t60 -10q8 0 6 -7q-1 -2 -5 -4q-10 -2 -20 -5t-21 -6q14 -8 27.5 -7.5t27.5 2.5q12 1 23.5 1.5
t23.5 -0.5q5 0 10 -1t10 -3q5 -1 6.5 -5.5t-1.5 -7.5q-21 -23 -43 -43t-54 -28q-12 -3 -24 -7t-25 -7q-5 -2 -3 -5q2 -4 5 -4q9 -1 18 2t19 6q0 -7 -3.5 -8.5t-6.5 -3.5q-26 -14 -54 -21q-20 -5 -40.5 -11t-41.5 -11q-16 -4 -17 -22q-2 -35 -4 -69.5t-3 -69.5
q-1 -29 -7.5 -55.5t-18.5 -52.5q-9 -17 -16 -35t-9 -38q-1 -7 -5.5 -8.5t-9.5 2.5t-9 8l-8 8l2 2v2q0 -1 -2 -5q-39 46 -59.5 98t-18.5 113q1 23 2 47l2 48q1 9 0.5 18t-8.5 17q-7 8 -4.5 18.5t0.5 20.5q-4 20 14 32q7 5 6 11q-1 15 3.5 28.5t5.5 27.5q1 15 3 29t4 29
q2 14 4 28.5t4 28.5q3 16 1 27l1 1v-2q-5 0 -9.5 -1t-6.5 1q-7 7 -12.5 13.5t-6.5 17.5q-1 15 4 26.5t20 18.5q3 2 5.5 3t6.5 3q14 5 10 18q-1 5 -1.5 9t2.5 7q7 8 8.5 17t4.5 18q11 29 43 40q8 3 10 -5q2 -7 2.5 -14t1.5 -15q5 5 5.5 11t1.5 11q3 14 8 17.5t20 -0.5
q20 -5 34 -16q10 -6 25 -5q38 7 76 11.5t76 7.5q32 2 62 -5t59 -20q1 -1 1.5 -2.5t1.5 -3.5q1 -4 -2 -4.5t-5 -0.5h-8.5t-8.5 1q-20 5 -40.5 5.5t-40.5 -1.5q-36 -4 -72.5 -8t-71.5 -12q-6 -1 -12 -2.5t-11 -3.5q-7 -2 -7 -6q1 -5 4.5 -6t5.5 -1q17 2 34 4.5t34 4.5
q28 4 55.5 5t55.5 2q19 0 37.5 1t37.5 1q24 0 50 -8q13 -3 24 -12q13 -10 1 -20q-21 -17 -45 -24.5t-50 -9.5q-41 -3 -81 -7.5t-80 -12.5q-14 -3 -28.5 -6t-28.5 -12q52 5 102 10.5t101 10.5zM82 101q-6 -62 0 -125q6 62 0 125zM83 -59v3q-3 3 -3 -2q0 -1 0.5 -1.5t0.5 -1.5
zM281 235l2 -2v2h-2zM5 526h7q3 0 1.5 1.5t1.5 -0.5q1 -2 -4 -2q-2 0 -3 0.5t-3 0.5z" />
    <glyph glyph-name="A" unicode="A" 
d="M449 -10q-4 4 -4.5 8.5t-0.5 9v9t-3 9.5q-5 -11 -6.5 -20t-1.5 -19q1 -28 -11 -51.5t-23 -46.5q-2 -4 -7 -4.5t-7 3.5q-5 7 -10.5 13.5t-8.5 14.5q-8 18 -14 36.5t-5 38.5q-4 -8 -2.5 -16t-3.5 -15q-5 1 -7.5 4t-4.5 7q-18 37 -26 81q-2 11 -5 13t-15 0
q-18 -3 -35.5 -5.5t-35.5 -5.5q-8 -1 -15 -1.5t-15 0.5t-11.5 -2t-6.5 -9q-3 -7 -6.5 -9t-6.5 9q0 1 -2 1t-3 -1q-4 -4 -5 -9q-9 -47 -41 -80q-4 -4 -6 -9.5t-10 -5.5q-8 -1 -13 3t-9 9q-11 14 -23 27t-19 30q-8 20 -12 40.5t-2 42.5q2 17 4.5 33.5t6.5 33.5
q26 128 74 245.5t111 229.5q3 5 6 10.5t7 10.5t8.5 9.5t12.5 6.5q6 2 12.5 4.5t11.5 7.5q6 6 19 6q19 0 35 8q11 7 24 4.5t25 -4.5q11 -2 17 -8.5t11 -14.5q2 -2 3 -4.5t3 -4.5q17 -11 23.5 -28t11.5 -35q11 -32 16.5 -65.5t8.5 -67.5q3 -32 5 -63t2 -62q2 -66 1.5 -131
t0.5 -131q0 -36 -9 -70l-4 -10zM300 326q-1 15 -2.5 39.5t-3.5 50.5q0 4 -4 4q-3 0 -5 -2t-2 -3t-1 -3q-39 -84 -66 -171q-2 -7 -4 -17q-1 -10 9 -11q16 0 31.5 -1t31.5 -7q15 -6 15 11q1 23 1 49v61zM442 346q-2 -1 -5 -1v-247q0 -4 0.5 -7t0.5 -7q0 -2 2 -2q3 -2 1.5 1
t0.5 -1v264zM339 196q1 0 2 1v141h-2v-142zM280 151q-1 1 -1 3q-8 2 -13 1q-17 -2 -33 -5t-33 -5q-4 -1 -5.5 -3t0.5 -3q5 -3 6 -2q20 3 39.5 6.5t39.5 7.5zM56 -3q2 17 2.5 35t1.5 35q0 3 -4 5t-4 -4l-4 -36t8 -35zM231 651q-1 -2 -2 -3t-1 -3l2 -2q1 2 1.5 2.5t1.5 2.5
q0 1 -1 1.5t-1 1.5z" />
    <glyph glyph-name="B" unicode="B" horiz-adv-x="501" 
d="M74 -167q-32 45 -50.5 95t-18.5 107q0 32 2.5 64.5t5.5 64.5q7 81 17 161.5t24 161.5q2 11 1 20t-6 19q-8 13 -7 27t11 25q11 13 17 28.5t13 30.5q12 27 36 38q9 6 16 -5q4 -6 6 -6t5 5q6 13 9.5 15.5t14.5 -1.5q16 -5 30.5 -4t29.5 4q38 8 74.5 8t73.5 -11
q41 -12 71 -38q28 -25 35 -57q2 -13 6 -23q15 -37 9 -71t-23 -67q-17 -31 -39 -57.5t-48 -50.5q-6 -5 -12 -11t-12 -11q1 -8 5.5 -10t8.5 -4q17 -11 33 -22t30 -25q7 -7 12.5 -14t6.5 -17q2 -14 6.5 -26.5t8.5 -25.5q7 -25 1.5 -47.5t-17.5 -43.5q-28 -49 -71 -81
q-20 -15 -40.5 -28t-43.5 -24q-22 -11 -44 -21.5t-45 -21.5q-19 -9 -39 -15t-42 -4q-16 0 -20 -15q-1 -2 -1 -4.5t-2 -4.5q-2 -4 -2.5 -9t-1.5 -10t-3 -8.5t-7 -4.5q-4 -1 -6.5 2t-4.5 7t-4.5 8.5t-6.5 6.5q1 0 -3 2q1 2 1 3t1 3q0 2 1 3l-2 2q0 -2 -0.5 -3t-0.5 -3t0.5 -3
t0.5 -3zM166 -111q-7 3 -14 2.5t-15 -1.5q-4 -1 -6 -4.5t0 -5.5q3 -4 8 -2q8 2 15 4.5t12 7.5q1 2 3 4q-1 -1 -3 -5zM306 132q-28 19 -59.5 23t-63.5 11q-6 1 -8 -9q-2 -24 -4 -47.5t-4 -47.5q0 -5 3 -7.5t8 -0.5q32 14 62.5 30t58.5 37q3 2 6 5.5t1 5.5zM209 390q5 0 6 1
q28 20 54 41.5t49 46.5q5 5 9 10.5t8 10.5q5 8 2 14t-13 7q-23 2 -45.5 -1.5t-45.5 -9.5q-10 -3 -12 -14q-4 -23 -7.5 -47t-7.5 -47q-2 -8 3 -12zM319 539q-18 20 -33 17q-14 -4 -29 -7t-28 -17q23 2 44.5 3.5t45.5 3.5zM253 644q16 -10 32 -10h33q4 0 4 4t-2 6
q-8 5 -16.5 7.5t-18.5 0.5l-16 -4zM68 -22q6 32 0 53q-2 -11 -2 -23.5t2 -29.5zM183 195l-1 -2l2 -1z" />
    <glyph glyph-name="C" unicode="C" horiz-adv-x="500" 
d="M345 459q-2 -1 -5 -0.5t-4 -1.5q-3 -5 -5.5 -11t-4.5 -11q-4 -8 -10 -6q-9 2 -5 13q2 7 4 13.5t4 12.5q2 7 -2 10q-6 -1 -9.5 -5.5t-6.5 -9.5q-8 -13 -16.5 -25.5t-15.5 -25.5q-61 -110 -87 -235q-5 -21 -6.5 -42t0.5 -43q2 -17 6 -20.5t21 1.5q21 5 41 11.5t40 14.5
q17 7 35 12.5t36 9.5q62 12 119 39q8 4 19 6q3 1 5 -1.5t1 -4.5q0 -8 -5 -16q-9 -12 -15.5 -25.5t-13.5 -27.5q-23 -49 -58 -87t-86 -61q-86 -39 -182 -31q-7 0 -10 2q-32 12 -58.5 31t-40.5 54q-35 93 -19 187q16 101 52 193.5t91 177.5q9 14 18.5 26.5t20.5 25.5
q23 26 51.5 42.5t60.5 24.5q23 5 47 5.5t47 -8.5q5 -2 10 -3t10 -1q23 -3 35 -24q16 -24 23.5 -50t4.5 -56q-3 -26 -8.5 -50.5t-17.5 -47.5q-5 -8 -10 -16.5t-19 -6.5q-3 1 -4 -1t-3 -4q-6 -14 -16 -17.5t-23 -3.5q-7 1 -13.5 0.5t-13.5 1.5q-18 4 -21 24q-2 11 2 21t9 21
q0 2 0.5 4.5t0.5 4.5q2 2 -1 2q-4 0 -3 -4q0 -2 4 -8zM151 -14l-1 1h2q-2 -5 1 -5l1 2q-1 1 -1.5 1t-1.5 1zM230 -9q-6 0 -12 0.5t-12 0.5q-7 0 -6 -5q1 -2 3 -4t4 -2q7 -2 13 0t10 10zM45 112q1 2 1 6l-2 2v-7zM53 -7q-1 1 -1.5 2t-1.5 2q0 -1 -1 -1t-1 -1q2 -5 3 -5
q1 -1 2 0t0 3z" />
    <glyph glyph-name="D" unicode="D" horiz-adv-x="554" 
d="M79 562q6 14 7 25.5t2 22.5v20q0 41 45 38q17 -2 32 0.5t31 5.5q34 6 67.5 8.5t67.5 -2.5t61.5 -19.5t47.5 -42.5q19 -24 36 -49t28 -54q23 -60 22 -120t-20 -120q-19 -59 -50 -110t-70 -98q-24 -29 -50.5 -56.5t-54.5 -54.5l-3.5 -3.5l-3.5 -3.5q-32 -27 -68 -44
t-79 -19q-16 0 -20 -14q-2 -5 -4.5 -9.5t-4.5 -9.5q-7 -14 -12 -14.5t-16 12.5q-7 8 -12.5 17.5t-16.5 14.5q-7 2 -3 8q5 10 3.5 19t-3.5 18q-2 10 -2 20t-1 20v22.5t-3 25.5q-5 -20 -3.5 -37.5t-1.5 -34.5q-7 0 -8 4t-3 7q-8 21 -10 43t0 44q4 62 8.5 123.5t10.5 123.5
q5 60 13 120t14 120q2 20 6 39.5t6 39.5q2 7 7 6q2 -1 4 -8q1 -10 -0.5 -20.5t4.5 -23.5zM372 651q1 2 1.5 2.5t-0.5 -1.5q-1 0 -1 0.5t-1 0.5q5 -1 8.5 -5t9.5 -2q-2 -6 4 -3q-2 1 -2.5 1.5t-2.5 1.5q-2 6 -7 4.5t-9 0.5zM179 101q5 3 8 4t5 3q25 25 48.5 50t45.5 52
q51 65 71 145q15 57 -7 109q-16 35 -38.5 47t-59.5 4h-3q-17 -4 -23.5 -11.5t-9.5 -24.5q-11 -89 -20.5 -177t-16.5 -177q-1 -5 -0.5 -10.5t0.5 -13.5zM232 646q19 -2 35.5 -2h33.5q4 0 4 4q1 2 -2 5q-18 11 -32.5 9.5t-38.5 -16.5zM277 546h8q4 2 4 4q1 2 -2 5q-8 6 -16 1
q-3 0 -3 -4q0 -3 4 -5q1 -1 5 -1zM185 650l-2 -2q1 0 1 -0.5t1 -0.5q5 0 2 3h-1h-1z" />
    <glyph glyph-name="E" unicode="E" horiz-adv-x="506" 
d="M163 640q8 10 9 14q8 16 13 19t18 -6q13 -8 25.5 -10t26.5 0q53 6 104 9q57 3 108 -25q2 -1 4 -3l5 -5q-50 5 -97 0t-93 -15q25 1 49 -3t50 1q8 1 15 0t15 -1l36 -2t36 -1q15 -1 28.5 -7t22.5 -20q6 -8 4.5 -12.5t-9.5 -8.5q-28 -13 -57 -18t-59 -7q-39 -3 -78.5 -6.5
t-79.5 -11.5q-4 -1 -12 -5q-1 -1 -4 -6q3 -3 5 -3h14q38 5 76 8.5t76 7.5q5 0 11.5 1t13.5 -3q-13 -10 -35 -17q-15 -4 -30 -5t-30 -3q-25 -2 -48.5 -5t-46.5 -6q-19 -2 -20 -18q-1 -4 -2.5 -7t-1.5 -7q-1 -13 -6.5 -25t-0.5 -26q14 -4 26 -2l24 4q40 5 77 -1t73 -22l36 -14
t38 -21q-60 2 -116 -5t-117 -15q15 -5 25 -4.5t19 2.5q44 4 87 7.5t87 1.5h6.5t6.5 -1q6 0 9 -3q2 -4 -1 -6t-5 -4q-20 -13 -40.5 -25.5t-41.5 -23.5q-14 -8 -29 -13t-32 -7q-39 -5 -77.5 -8.5t-77.5 -7.5q-13 -4 -13 -13q-5 -40 -5.5 -79.5t5.5 -79.5q1 -9 5.5 -12t13.5 -2
q6 2 12 2t11 2q29 6 56.5 7t55.5 3q8 1 15 0.5t15 -1.5q14 -3 27 -1t27 7q9 4 18.5 7t19.5 6q6 2 10 -2t2 -10q-14 -34 -33.5 -64.5t-50.5 -52.5q-3 -3 -6.5 -5t-6.5 -6q-15 -22 -37 -32t-45 -16q-78 -21 -156 -6q-21 4 -37.5 14.5t-30.5 26.5q-34 39 -47 84t-14 95
q-2 66 5 130t20 127q12 60 27 120q2 8 1.5 14.5t-7.5 13.5q-5 7 -9 14.5t-3 16.5q2 16 8 27t23 16q6 2 8 5.5t-4 8.5q-5 5 1 11q10 10 21 18q16 8 16 23q2 10 11 12q6 1 11 4.5t10 5.5q14 7 15 -8q1 -5 1 -10.5t2 -14.5zM317 -78q-1 2 2 3t1 3q0 -2 -1 -2.5t-1 -2.5l-1 1v-2
zM212 -89q2 -1 2 -3t3 0q-2 1 -3 1t-2 1q8 10 19 2q4 0 6 1q0 1 1 2q-3 1 -4.5 -0.5l-3.5 -3.5q-1 3 -1.5 6.5t-4.5 4.5q-7 1 -13.5 2t-13.5 1q-5 0 -9.5 1t-8.5 -4q-2 -3 3.5 -6.5t13.5 -4.5q4 0 8 0.5t8 -0.5zM98 208q-5 -14 -8 -29.5t4 -35.5q2 19 2.5 34.5t1.5 30.5z
M235 320q0 2 -1 2q-7 2 -14 3.5t-14 3.5q-5 2 -7 -4q0 -6 6 -7q8 1 15 1t15 1zM120 -84q-2 2 -2.5 4t-2.5 4q-1 2 -3 3t-4 -1t-2 -4t2 -4q4 -4 7 -6l2 2q1 1 1.5 1t1.5 1zM200 17q2 -4 8 -2h3q0 5 -6 5q-2 0 -2.5 -1t-2.5 -2zM262 -84v2l-3 1z" />
    <glyph glyph-name="F" unicode="F" horiz-adv-x="476" 
d="M454 526q1 -5 1 -9t-5 -6q-17 -8 -33 -9q-28 -3 -55.5 -6t-55.5 -7q-19 -2 -37 -6t-37 -7q-11 -2 -13 -13q-3 -23 -7.5 -45t-4.5 -44q6 -5 11 -3t10 2l8 2l8 2q31 7 61 5t60 -10q8 0 6 -7q-1 -2 -5 -4q-10 -2 -20 -5t-21 -6q14 -8 27.5 -7.5t27.5 2.5q12 1 23.5 1.5
t23.5 -0.5q5 0 10 -1t10 -3q5 -1 6.5 -5.5t-1.5 -7.5q-21 -23 -43 -43t-54 -28q-12 -3 -24 -7t-25 -7q-5 -2 -3 -5q2 -4 5 -4q9 -1 18 2t19 6q0 -7 -3.5 -8.5t-6.5 -3.5q-26 -14 -54 -21q-20 -5 -40.5 -11t-41.5 -11q-16 -4 -17 -22q-2 -35 -4 -69.5t-3 -69.5
q-1 -29 -7.5 -55.5t-18.5 -52.5q-9 -17 -16 -35t-9 -38q-1 -7 -5.5 -8.5t-9.5 2.5t-9 8l-8 8l2 2v2q0 -1 -2 -5q-39 46 -59.5 98t-18.5 113q1 23 2 47l2 48q1 9 0.5 18t-8.5 17q-7 8 -4.5 18.5t0.5 20.5q-4 20 14 32q7 5 6 11q-1 15 3.5 28.5t5.5 27.5q1 15 3 29t4 29
q2 14 4 28.5t4 28.5q3 16 1 27l1 1v-2q-5 0 -9.5 -1t-6.5 1q-7 7 -12.5 13.5t-6.5 17.5q-1 15 4 26.5t20 18.5q3 2 5.5 3t6.5 3q14 5 10 18q-1 5 -1.5 9t2.5 7q7 8 8.5 17t4.5 18q11 29 43 40q8 3 10 -5q2 -7 2.5 -14t1.5 -15q5 5 5.5 11t1.5 11q3 14 8 17.5t20 -0.5
q20 -5 34 -16q10 -6 25 -5q38 7 76 11.5t76 7.5q32 2 62 -5t59 -20q1 -1 1.5 -2.5t1.5 -3.5q1 -4 -2 -4.5t-5 -0.5h-8.5t-8.5 1q-20 5 -40.5 5.5t-40.5 -1.5q-36 -4 -72.5 -8t-71.5 -12q-6 -1 -12 -2.5t-11 -3.5q-7 -2 -7 -6q1 -5 4.5 -6t5.5 -1q17 2 34 4.5t34 4.5
q28 4 55.5 5t55.5 2q19 0 37.5 1t37.5 1q24 0 50 -8q13 -3 24 -12q13 -10 1 -20q-21 -17 -45 -24.5t-50 -9.5q-41 -3 -81 -7.5t-80 -12.5q-14 -3 -28.5 -6t-28.5 -12q52 5 102 10.5t101 10.5zM82 101q-6 -62 0 -125q6 62 0 125zM83 -59v3q-3 3 -3 -2q0 -1 0.5 -1.5t0.5 -1.5
zM281 235l2 -2v2h-2zM5 526h7q3 0 1.5 1.5t1.5 -0.5q1 -2 -4 -2q-2 0 -3 0.5t-3 0.5z" />
    <glyph glyph-name="G" unicode="G" 
d="M435 260q30 -42 31 -85t-13 -88q-12 -43 -34.5 -80t-51.5 -71q-12 -11 -23.5 -21.5t-25.5 -17.5q-14 -6 -29 -14t-29 -15t-27 -12.5t-23 -6.5q2 3 6.5 5t9 3.5t7 4t-0.5 7.5q-3 9 -14 6t-19 -3q-29 0 -57 -0.5t-56 10.5l-2 2l2 -3q-31 11 -48 33.5t-28 50.5
q-14 35 -18.5 71.5t-2.5 73.5q9 124 50.5 236.5t110.5 216.5q3 5 6.5 8.5t8.5 4.5l1 1h-2q8 19 20.5 33t26.5 27q6 5 12.5 10.5t13.5 10.5q11 9 25.5 14.5t30 7t30.5 -1t27 -9.5q16 -9 27 -27q14 -25 29 -49.5t30 -49.5q14 -24 21.5 -50t8.5 -54q0 -17 2.5 -34t4.5 -34
q0 -14 -14 -12q-42 7 -79 21.5t-69 43.5q-5 4 -9.5 7.5t-9.5 8.5q-2 0 -6 1q-34 -50 -57 -110q5 -8 10 -7t10 3q14 5 29 6t30 0q32 -2 61 -13.5t50 -37.5h1q-8 -12 1 -21q4 -4 7 -5t8 5zM274 154q-3 -1 -6.5 -1t-6.5 -2q-22 -7 -41 -17t-39 -21q-7 -4 -9 -9q-6 -38 7 -78
q3 -7 12 -5q2 1 3.5 1.5t3.5 1.5q32 23 52 54.5t31 68.5q1 5 -7 7zM320 269q-1 7 -10 10q-6 2 -8 -4q-2 -3 1 -6t9 -5t8 5zM433 139q-2 2 -2 6q-2 -2 -2 -4v-5q2 1 4 3z" />
    <glyph glyph-name="H" unicode="H" horiz-adv-x="600" 
d="M201 259q12 1 22 5.5t21 9.5q29 13 58.5 21t61.5 7q2 -1 3.5 -0.5t3.5 0.5l19.5 4.5t9.5 4.5t4 9.5t2 18.5q6 63 15.5 124t19.5 123q2 14 2.5 28t4.5 28q2 8 3.5 15.5t9.5 13.5q3 3 5 8q2 6 2 13.5t7 9.5q10 3 19.5 5.5t20.5 4.5q7 1 15 -7q5 -12 15 -2q5 5 12.5 3
t9.5 -10q3 -11 10.5 -19t15.5 -16q3 -3 4.5 -7t3.5 -9q3 -12 6 -24.5t7 -24.5q3 -11 -0.5 -21t-2.5 -21q0 -2 -1 -4t-3 -2q-8 -1 -11.5 -5t-5 -9t-1.5 -11t-1 -11q-18 -95 -28.5 -189.5t-14.5 -191.5q-1 -23 -3 -46.5t-4 -47.5q-5 -54 -22 -102q-9 -26 -18.5 -52t-16.5 -54
q-2 -4 -4 -7.5t-4 -8.5q-5 -8 -11 -2q-5 6 -8.5 11.5t-7.5 12.5q-29 51 -47 104q-6 17 -8 35t-2 36q-1 29 -0.5 58.5t2.5 58.5v8.5t-5 9.5q-16 -7 -32.5 -13.5t-33.5 -13.5q-16 -7 -31.5 -13.5t-32.5 -14.5q-14 -5 -26 -12.5t-23 -19.5q-3 -3 -7.5 -6t-9.5 -5
q-14 -5 -20 -16t-7 -25q-6 -66 -37 -119q-11 -16 -9 -39q0 -6 -4.5 -9t-9.5 0q-14 6 -25.5 14.5t-20.5 21.5q-25 35 -38.5 72.5t-12.5 82.5q1 33 4 66t8 67q14 109 36.5 214t45.5 211q2 11 5 21t6 21q2 9 5.5 17t10.5 15q10 12 14 25q3 11 11.5 16t16.5 4q10 -2 15.5 0.5
t10.5 9.5q4 4 8 4t9 -1q20 -6 35.5 -16.5t20.5 -33.5q2 -8 6 -13.5t7 -11.5q21 -32 8 -68q-5 -13 -14 -14q-10 -1 -12.5 -6t-4.5 -13q-17 -60 -28.5 -122t-25.5 -124q-2 -9 -3.5 -18.5t0.5 -20.5zM480 103q0 -2 -1 -3t-1 -3q-2 -45 -4 -89l-4 -88q-1 -15 0 -31t2 -31
q0 -6 4 2q0 60 5 120.5t-1 122.5zM76 -88q1 29 2.5 56t-3.5 56q-10 -26 -9.5 -55t10.5 -57zM168 660l2 -2l1 2h-3z" />
    <glyph glyph-name="I" unicode="I" horiz-adv-x="228" 
d="M7 123q-4 27 -0.5 53t7.5 52q10 77 21 153t22 153q2 12 2 24.5t2 25.5q1 7 2 13t11 7q4 1 4.5 4.5t0.5 6.5q2 9 2.5 17.5t1.5 16.5q6 39 45 44q3 1 6.5 1h6.5q41 0 31 -39q-2 -9 -3 -18t-3 -18q0 -4 0.5 -7t5.5 -6q2 11 3 20.5t3 19.5l3 24q1 2 1.5 4.5t4.5 2.5q7 0 9 -2
q5 -5 9.5 -10.5t6.5 -11.5q6 -22 12 -43.5t2 -45.5q-8 -43 -13.5 -85.5t-11.5 -85.5q-8 -60 -16.5 -118t-17.5 -117q-11 -72 -45 -135q-9 -17 -17.5 -34.5t-21.5 -33.5q-6 -8 -8 -18l-4 -20q0 -2 -1 -5t-4 -2q-7 2 -9 5q-7 7 -10.5 15.5t-6.5 17.5q-26 68 -20 140
q1 8 1 16.5v16.5q0 11 -14 2zM102 30q-2 -2 -5.5 -2.5t-2.5 -5.5v-4q3 -3 4 2v6t5 5q-2 1 -3.5 1.5t1.5 2.5q0 -1 0.5 -2t0.5 -3z" />
    <glyph glyph-name="J" unicode="J" horiz-adv-x="455" 
d="M338 673q13 6 25.5 4t23.5 -6q10 -4 15.5 -6.5t8 -6.5t3 -10.5t0.5 -16.5q0 -5 -0.5 -10t-0.5 -10v-8.5t1 -8.5q5 14 4.5 30t2.5 30q1 3 3 6t6 3q7 0 7 -6q8 -14 14 -29t2 -32q-2 -6 -2 -12.5v-13.5q8 -125 -7 -244q-7 -48 -19.5 -93.5t-32.5 -89.5q-31 -66 -76 -118
t-108 -90q-23 -14 -46 -26t-47 -22q-54 -25 -110 -9q-28 8 -48 27q4 8 9 5.5t9 -2.5q14 0 23 4q5 2 9.5 3.5t7.5 7.5h-48q-5 0 -10 0.5t-10 1.5q-10 3 -11 12q0 9 6 12q10 4 17 11t13 15q11 13 23.5 22t27.5 17l57 30q85 49 133.5 121.5t66.5 167.5q8 47 9 94.5t1 95.5
q1 1 1 3q-3 15 -17 11q-29 -8 -57 -18.5t-51 -33.5q-5 -5 -11 -8t-12 5q-7 5 -12 -2t-11.5 -7h-13.5q-15 0 -28 10t-1 22q2 2 5 4t7 4q7 7 9.5 12.5t-0.5 7.5q-6 2 -10 -2t-8 -6q-9 -8 -19 -4q-15 5 -12 17q2 8 3 15t0 15q-2 8 1 16t11 14q6 4 10.5 8.5t0.5 12.5q-2 3 1 6
l5 5q11 10 23.5 17t25.5 13q29 15 61 24t65 17q20 5 39.5 1.5t39.5 -6.5q10 -1 5 -17q0 -2 -2 -6q-12 8 -22 3q-7 0 -7 -5q0 -3 3 -3.5t5 -1.5q5 2 10.5 3.5t10.5 3.5zM414 489q-2 -32 -3.5 -63.5t-3.5 -63.5q7 15 8.5 31t1 32t-1.5 32t-1 32zM320 500q-3 -21 -5 -44.5
t-3 -44.5t-1 -37.5t2 -24.5q10 38 8.5 75.5t-1.5 75.5zM302 323l1 -2l1 2h-2z" />
    <glyph glyph-name="K" unicode="K" horiz-adv-x="538" 
d="M302 265q12 -5 22 -8.5t21 -7.5q14 -7 27 -14t18 -24q2 -4 5.5 -7t6.5 -5q5 -3 10.5 -5.5t10.5 -5.5q41 -24 56.5 -60t15.5 -81q0 -4 -2 -10q-3 -8 -10 -5q-3 0 -3 2q-14 16 -32 19.5t-36 6.5q-28 5 -55 13t-53 19q-19 8 -38 14.5t-39 10.5q-5 2 -10 2.5t-10 1.5
q-20 2 -28.5 -4.5t-12.5 -27.5q-9 -61 -41 -118q-11 -17 -20.5 -35t-19.5 -36q-4 -7 -10.5 -7.5t-11.5 4.5q-2 2 -3 4l-2 4q-18 42 -33.5 83.5t-17.5 88.5q-1 11 -1.5 22t1.5 22q8 103 21 203t36 200q7 32 15.5 63t22.5 61q15 33 49 43q8 2 13.5 -3.5t1.5 -11.5
q-4 -8 -5 -16.5t-6 -15.5q-2 -2 -3 -5.5t-2 -6.5q0 -7 4 -8q3 -1 5 4q2 10 5 19.5t6 19.5q1 2 1 4.5t1 4.5q7 16 24 12q14 -3 22.5 -11.5t16.5 -19.5q3 -5 1 -8l-4 -6q-4 -5 -3 -9.5t8 -6.5q11 -4 14.5 -11t3.5 -18q-1 -22 -10 -42q-13 -29 -19.5 -59.5t-10.5 -61.5l2 -2
q7 1 10 5.5t7 9.5q48 60 99.5 116t103.5 113q27 30 67 24q6 -1 11 -2.5t7 -9.5q2 -9 10 -4q7 4 11.5 1.5t9.5 -7.5l6 -10l6 -10q4 -6 0 -13q-6 -8 -7.5 -14t12.5 -9q2 -1 2.5 -4t1.5 -5q2 -12 0 -23t-10 -22q-6 -7 -11.5 -14.5t-12.5 -14.5q-63 -63 -120.5 -131t-114.5 -137
zM315 239q2 -1 1.5 -3t3.5 0q-4 2 -5 3q-7 5 -13.5 8.5t-15.5 1.5q-1 0 -1 -2v-1q12 -10 30 -7zM73 -61q5 23 5.5 46t-4.5 48q-7 -47 -1 -94zM216 159q-8 4 -14 6.5t-11 4.5t-10 -2q-1 0 -3 -5q-1 -3 2 -5q8 -2 16.5 -1.5t19.5 2.5z" />
    <glyph glyph-name="L" unicode="L" horiz-adv-x="448" 
d="M297 -21q8 -4 16.5 -2t16.5 4t15.5 6t18.5 -1q-25 -23 -53 -35q-17 -8 -34.5 -14.5t-34.5 -12.5q-17 -5 -33.5 -10t-32.5 -13q-25 -10 -46.5 -22.5t-38.5 -33.5q-15 -16 -39 -16q-6 -2 -9 3q-4 12 -8.5 11t-9.5 -9q-4 -6 -9 -2l-15 6q-7 5 -9.5 12t2.5 14l8 10l8 10
q2 4 1 7q-3 4 -9 0l-7 -7q-14 -8 -24.5 -3t-11.5 19q-1 15 3.5 29.5t15.5 25.5q15 14 28.5 29.5t31.5 25.5q3 2 5.5 4.5l4.5 4.5q-1 9 -5 15.5t-9 14.5q-11 19 -14.5 39t-1.5 42q1 32 4.5 64.5t8.5 64.5q13 88 35 174t46 172l4 16l4 16q3 10 4.5 20t12.5 17q2 17 12.5 23.5
t25.5 8.5q2 0 4.5 1.5t4.5 2.5q8 2 14 -3.5t4 -12.5t-3 -13t-3 -13q-1 -4 5 -6q5 0 7 5q3 10 5.5 19t4.5 18q16 -4 18.5 -6.5t1.5 -14.5q0 -4 1 -7.5t6 -5.5q7 -1 13 -2.5t9 -8.5q4 -8 6.5 -15.5t-0.5 -15.5q-2 -8 -3 -17.5t-3 -17.5l-28 -108l-28 -108
q-14 -51 -22.5 -102.5t-16.5 -104.5q-5 -26 -11.5 -51t-18.5 -48q-1 -2 -1 -4.5t-2 -6.5q22 2 41.5 10t39.5 11q21 5 41.5 6.5t41.5 -2.5q0 -6 -4 -6t-8 -2t-8 -3t-8 -3q-6 -2 -6 -6q-1 -5 7 -5q10 0 20 1t20 1l54 3q23 2 41 -7.5t33 -23.5q4 -4 4 -9q-2 -6 -8 -6
q-20 0 -39 -6.5t-37 -13.5q-17 -7 -34 -11.5t-34 -9.5l1 -2v3zM35 -95q3 0 1 1q0 -1 -1 -2h-2l-1 -2zM93 45l-1 -2h2z" />
    <glyph glyph-name="M" unicode="M" horiz-adv-x="756" 
d="M708 31q0 3 0.5 6.5t-0.5 6.5q0 5 -2 6q-3 2 -4.5 -0.5t-1.5 -4.5q-2 -15 -3.5 -30t-3.5 -31q-2 -11 -5.5 -21t-8.5 -20q-8 -14 -14 -28l-12 -28q-2 -2 -3.5 -5t-5.5 -3q-7 0 -11 8q-8 12 -12 26t-5 28q-2 11 -2 20.5t-1 20.5q-1 6 -1 13t-7 14q-2 -10 -1.5 -19t2.5 -18
v-14q0 -5 -3 -5q-4 -2 -8 4q-22 40 -26 83q-3 26 -4.5 51t0.5 51q2 49 3.5 97t3.5 97q0 8 0.5 15t-3.5 15q-5 2 -6 -1t-3 -6q-12 -28 -21.5 -57t-18.5 -58q-5 -16 -10 -31t-12 -30q-11 -26 -32 -43t-46 -28q-13 -6 -28 -4.5t-28 7.5q-22 11 -40.5 25t-30.5 36l-20 34t-19 34
q-12 21 -23 42l-22 42q-2 3 -4 7t-7 4q-3 -3 -3 -2q-2 -15 -3.5 -30t-3.5 -30l-24 -342q-1 -2 -1 -3.5t-1 -3.5q-2 -4 -4 -4q-2 -1 -3 0.5t-2 2.5q-3 8 -1.5 17t1.5 17q-1 3 -1 7t-1 11q-7 -14 -7.5 -24.5t-2.5 -21.5v-12t-1 -12q-2 -11 -9 -14q-13 -6 -25 -13t-28 -4
q-17 2 -22 7.5t-4 23.5q1 7 2 13.5t1 13.5q1 10 1.5 20t1.5 20q0 2 -1 5t-2 8q-6 -14 -7 -26.5t-2 -24.5q-1 -7 -1 -13.5t-1 -13.5q0 -8 -8 -10q-5 -3 -11 5q-8 11 -12.5 21.5t-5.5 24.5q-2 25 -0.5 49.5t3.5 49.5q9 119 18 237t23 237q2 20 5 40t11 40q5 15 13.5 28
t27.5 16q4 1 7 4.5t7 5.5l8 4t8 1q25 -1 47.5 -7t39.5 -29q14 -20 28 -40.5t25 -42.5q20 -39 40.5 -78.5t40.5 -78.5q5 -8 8.5 -16.5t11.5 -15.5q6 6 8 12t4 13q17 47 37 91.5t46 86.5q8 14 17.5 27t18.5 27q13 19 31.5 30.5t38.5 20.5q11 6 26 4q8 -1 15 -2t15 -3
q25 -3 38 -21q16 -20 28 -42.5t16 -48.5q9 -61 12 -125q2 -42 1.5 -84.5t-2.5 -85.5q-2 -40 -3 -79.5t-3 -79.5q-1 -14 -3 -28.5t-4 -29.5q0 -6 -9 -8h1zM611 112h1v128h-1v-128zM712 322q2 29 4 57.5t-1 57.5q-4 -2 -4.5 -5t-0.5 -5q0 -26 0.5 -52.5t1.5 -52.5zM708 227h-2
v-81h2v81zM619 368q-3 -15 -2.5 -29.5t2.5 -29.5v59zM606 43h1v25h-1v-25zM97 573h-3l1 -3z" />
    <glyph glyph-name="N" unicode="N" horiz-adv-x="606" 
d="M211 336q-7 -18 -9.5 -36.5t-5.5 -36.5q-10 -57 -19 -112t-18 -112q-12 -86 -73 -150q-2 -3 -5 -5t-5 -4q-2 -3 -2 -7.5t-5 -6.5q-7 -2 -11.5 2t-8.5 9q-20 24 -33 50.5t-10 60.5q3 26 4.5 52t-0.5 53q0 12 2 24.5t4 25.5q14 97 30 191.5t39 189.5q5 23 12.5 45.5
t14.5 45.5q7 22 22.5 33t37.5 14q17 2 32.5 0t31.5 -6q10 -4 15 -8q4 -5 7.5 -10.5t13.5 -0.5q1 1 4 -2t5 -6q23 -37 37 -83q17 -51 32.5 -100.5t34.5 -99.5q2 -5 4 -11t5 -11q0 -4 4 -4q6 -1 6 6q5 40 10.5 79.5t11.5 78.5q5 37 9.5 73t9.5 72q2 9 4.5 18t4.5 18q1 8 6 16
q2 3 4 6.5t4 3.5q7 1 11.5 5.5t8.5 10t9 10t13 4.5q10 1 20 0.5t20 -2.5q11 -3 14 -8.5t5 -16.5q2 -13 0 -25t-3 -25q-1 -2 0.5 -3t2.5 -1q4 -1 4 4q1 10 1.5 20t1.5 20q1 2 3.5 3.5t4.5 3.5q2 0 5 -3q10 -13 13.5 -27t3.5 -31q-2 -41 -8 -81t-11 -81q-8 -59 -16 -117.5
t-16 -117.5q-5 -34 -11.5 -67t-16.5 -66q-3 -11 -6 -21t-7 -21q-15 -34 -46 -52q-17 -10 -33 -14t-34 -4q-6 0 -12 1t-11 5q-18 14 -36 27.5t-26 36.5l-33 90q-15 42 -29.5 84.5t-29.5 85.5q-2 5 -3.5 10.5t-9.5 7.5zM82 -82q2 17 7.5 29t-0.5 29q-2 -16 -5.5 -28.5
t-1.5 -29.5zM470 615q5 16 8 28t-1 25q-4 -11 -7 -23.5t0 -29.5z" />
    <glyph glyph-name="O" unicode="O" horiz-adv-x="494" 
d="M6 213q3 99 22 194t54 187q4 8 7 15.5t8 15.5q18 32 51 41q18 5 29 16q49 41 114 32q14 -2 27 -4t27 -6q48 -13 78.5 -44t47.5 -78q23 -60 23 -119.5t-15 -120.5q-12 -50 -33 -100q-22 -54 -49 -104.5t-59 -99.5q-13 -20 -28 -38t-32 -35q-20 -19 -42.5 -27.5t-50.5 -1.5
q-13 3 -26 0q-6 -1 -12 -1t-12 -1q-19 -2 -33.5 5t-26.5 21q-11 13 -19.5 27.5t-15.5 30.5q-14 33 -22 67.5t-11 70.5q-2 14 -1.5 28.5t0.5 28.5zM179 110q8 3 11 7t6 9q35 56 66 114.5t53 121.5q9 28 15 55q4 25 4 49t-8 49q-14 41 -59 50q-7 2 -10 -5q-2 -5 -3 -9t-4 -7
q-15 -13 -21.5 -30t-13.5 -34q-18 -51 -28.5 -102t-16.5 -103q-5 -33 -5.5 -66t4.5 -66q2 -8 3 -16.5t7 -16.5zM262 640h11q2 1 5 1.5t2 3.5q-2 5 -6 7q-7 5 -13.5 3.5t-12.5 -3.5q-2 -1 -4 -5q0 -2 3 -5q5 -1 8.5 -1.5t6.5 -0.5zM91 238h1v16h-1v-16zM417 470h2v3
q-1 2 -2 2t-1 -3q0 -1 1 -2z" />
    <glyph glyph-name="P" unicode="P" horiz-adv-x="499" 
d="M170 2q-3 23 -3.5 44.5t2.5 43.5q1 2 -0.5 3t-2.5 3q-1 -1 -2.5 -1.5t-2.5 -2.5q0 -7 -0.5 -13.5t-0.5 -13.5v-37.5t-1 -37.5q-1 -23 -6 -45t-19 -41q-3 -4 -7 -12q-12 -23 -29 -9q-23 19 -43.5 40t-30.5 50q-11 35 -11 67q0 45 1.5 90t5.5 90q5 55 11.5 109.5
t18.5 108.5q7 35 14.5 68.5t15.5 67.5q2 10 5 18t11 15q5 5 6.5 10.5t3.5 11.5q2 9 9 13q3 2 9 2q6 -2 4 -8t-4 -11.5t0 -11.5q0 -2 2 -2h3q6 5 8 14q3 15 6 23t8.5 11.5t14.5 3t25 -4.5q14 -4 32 1q46 14 89.5 9t86.5 -24q36 -16 61.5 -41t39.5 -63q10 -24 14 -47t0 -49
q-3 -26 -15 -52q-13 -26 -30 -49t-37 -44q-42 -42 -86.5 -79.5t-91.5 -73.5q-13 -10 -27 -17.5t-30 -12.5q-12 -4 -16 -11.5t-4 -18.5q1 -13 0.5 -25.5t-1.5 -25.5q-1 -8 -2.5 -16.5t-3.5 -16.5zM209 444q-9 -6 -8 -16q0 -5 0.5 -9.5t1.5 -9.5q-11 -5 -10.5 -13.5t2.5 -17.5
q-7 -3 -8 -9q-2 -10 -3.5 -18.5t-2.5 -18.5q-1 -6 -2 -12.5t3 -12.5q8 17 9 35.5t3 36.5q2 8 4.5 15.5t4.5 15.5q1 8 1.5 17t4.5 17q1 3 1 9q0 3 1.5 6t-4.5 5q1 -5 1.5 -10t0.5 -10zM198 331q1 -2 1.5 -5t2.5 -4q5 -2 9 2q34 27 65.5 56t58.5 63q7 8 14 19q8 17 -4 32
q-12 13 -33 23q-12 6 -23.5 2t-16.5 -18q-2 -7 -6.5 -12t-7.5 -11q-4 -7 -14 -7l-10.5 -1.5t-5.5 -2t-3.5 -4.5t-2.5 -9q-2 -11 -4.5 -20.5t-4.5 -19.5q-4 -21 -7.5 -41.5t-7.5 -41.5zM66 83q0 -16 -1.5 -32t-1.5 -31.5t2 -31.5t9 -31q2 32 1.5 63.5t-9.5 62.5zM303 599
q3 1 5.5 0.5t4.5 0.5t5 4q0 4 -2 6q-6 4 -12 6t-13 -2q-2 -2 -4 -3t-4 -3q4 -6 7 -7t6.5 -1t6.5 -1zM72 206q1 -1 2 -1v24h-2v-23zM68 174l-1 2l-1 -2h2z" />
    <glyph glyph-name="Q" unicode="Q" horiz-adv-x="491" 
d="M5 157q1 51 8 101t17 100q12 57 29 112t42 108q3 7 6 13.5t8 13.5q4 5 8.5 10t12.5 5q5 0 8 2.5t6 5.5l5 5t6 3q17 0 29 8.5t25 16.5q36 22 78 18q20 -2 40 -5.5t40 -10.5q19 -7 37 -23t32.5 -37t24.5 -44t13 -43q11 -71 2 -138t-33 -133q-35 -100 -93 -184
q-15 -21 -7 -44q6 -17 9.5 -34t2.5 -35q-1 -27 -12.5 -48t-28.5 -39q-8 -9 -14 -10t-15 7q-17 14 -35 26.5t-30 32.5t-34 14q-5 -1 -10 -0.5t-10 -0.5q-21 -4 -42.5 1.5t-41 17t-34.5 28t-23 34.5q-12 27 -18 55t-8 57v34zM327 445q0 5 -0.5 10.5t-1.5 11.5q-1 5 -1.5 10
t-1.5 10q-5 20 -13.5 26t-29.5 6h-4q-20 2 -26 -16q-2 -4 -3.5 -8t-3.5 -8q-19 -41 -32 -83.5t-23 -87.5q-4 -14 -6.5 -29t-5.5 -30q-1 -5 0.5 -8.5t6.5 -3.5q6 -1 9.5 -4t8.5 -5q3 -2 5 -1t3.5 3.5t2.5 4t4 1.5q3 -1 5.5 -0.5t4.5 -0.5q5 -2 10 -3.5t10 -3.5q12 -5 15 -4
t10 14q14 29 26 60t20 63q5 18 7.5 37t3.5 39zM277 589q2 0 3 -0.5t3 0.5t4 5q0 3 -1 3q-4 2 -7 4.5t-7 3.5q-6 2 -13.5 -1.5t-5.5 -7.5q2 -5 5.5 -5.5t8.5 -0.5q3 -1 10 -1zM462 444q7 11 1 25q-6 -10 -1 -25zM47 174l2 1v6l-2 -1v-6z" />
    <glyph glyph-name="R" unicode="R" horiz-adv-x="550" 
d="M447 136q26 -1 45.5 -15.5t27.5 -39.5q2 -5 -1 -9.5t-9 -4.5q-5 -1 -10.5 -1h-10.5h-119q-34 1 -67.5 -3t-67.5 -10q-5 -1 -9.5 -3t-9.5 -7q21 -3 42 -1.5t41 1.5q22 -1 44 -0.5t44 -0.5q21 -1 42.5 2t44.5 -6q-16 -11 -31 -16.5t-31 -7.5q-13 -2 -25.5 -2.5t-25.5 -0.5
q-32 1 -64.5 -0.5t-64.5 -4.5l-22 -2t-20 -7q-13 -8 -23.5 -18t-12.5 -28q-2 -11 -7 -22l-10 -22q-9 -17 -18 -33t-14 -34q-12 0 -19.5 4.5t-13.5 12.5q-32 37 -50 78.5t-16 91.5q2 63 6.5 125.5t12.5 125.5t17 124.5t18 124.5q2 17 6 37.5t17 49.5q5 9 12.5 14.5t15.5 10.5
q14 9 20.5 8t19.5 -15q5 6 10.5 11.5t16.5 2.5q10 -3 19 0t18 5q45 11 89 12t89 -10q24 -6 46.5 -15.5t42.5 -25.5q26 -22 43 -49t19 -63q0 -4 1 -7q9 -36 0 -68.5t-29 -62.5q-21 -32 -46 -60t-51 -54l-69 -66q-2 -2 -3 -4t2 -5q2 -2 5 -2q11 0 20.5 -0.5t20.5 -0.5l10 -2
t8 -9q-11 -2 -21.5 -1t-21.5 2q-8 0 -15 1t-15 1q-9 2 -15 -2.5t-11 -10.5q-3 -3 -1 -6q2 -4 5 -4q8 0 15 -0.5t15 -0.5q25 -1 49.5 -1t49.5 -1zM84 -27q5 -2 3 3q0 1 -0.5 1.5t-0.5 1.5q-4 0 -4 -4q0 -2 2 -2zM288 588q-3 0 -3 -5q0 -1 1.5 -2t2.5 -2q5 0 9.5 -0.5
t3.5 -0.5q14 0 17 1q4 0 8 -0.5t7 4.5q2 2 -3 5.5t-11 5.5q-8 2 -16 -0.5t-16 -5.5zM198 271q39 35 76.5 70t71.5 75q10 11 18 22.5t16 23.5q11 16 -4 26q-17 11 -35.5 16.5t-38.5 0.5q-11 -3 -21.5 -5.5t-21.5 -4.5q-24 -5 -34.5 -20.5t-15.5 -36.5q-1 -3 -1 -6.5t-1 -7.5
q-5 -32 -9 -65t-9 -66q-1 -6 -1 -12v-14q5 2 7 2.5t3 1.5z" />
    <glyph glyph-name="S" unicode="S" horiz-adv-x="545" 
d="M312 153q-11 10 -23 15t-25 9q-23 6 -45.5 9.5t-45.5 3.5q-20 -1 -40.5 0t-40.5 0q-45 -2 -70 35q-24 36 -14 77q9 40 27.5 74.5t44.5 66.5q47 58 99.5 109t111.5 97q8 5 15.5 10.5t15.5 10.5q25 15 51 18t52 -10q7 -3 12 -3t9 7q11 16 26 18t32 -1q8 -1 19 -5
q9 -3 17.5 -4t17.5 7q5 5 11 4.5t11 -4.5q12 -8 18 -27t2 -33q-1 -5 -8 -10l-12 -12q-1 -2 -1 -3t-1 -3q2 -2 4.5 -2.5t4.5 -2.5q8 -3 3 -11q-1 -3 -6 -8q-19 -15 -32 -34.5t-25 -40.5q-10 -18 -18.5 -36.5t-17.5 -36.5q-11 -23 -27.5 -41.5t-42.5 -28.5q-5 -2 -8.5 -5.5
t-8.5 -5.5q-17 -11 -31 3q-17 16 -26 35t-6 43q1 8 1.5 14.5t-1.5 14.5q-7 1 -11 -2l-8 -6q-27 -25 -52 -51.5t-50 -53.5q-2 -2 -2.5 -4t-2.5 -4q-2 -3 -0.5 -6.5t5.5 -3.5q19 -1 37.5 -3t36.5 -5q29 -5 56 -14.5t53 -24.5q17 -10 30 -22.5t22 -29.5q5 -10 9 -20t3 -22
q-1 -8 0.5 -15t3.5 -15q12 -47 -12 -92q-14 -26 -32.5 -49t-39.5 -45q-37 -36 -77.5 -66t-84.5 -57q-23 -14 -47 -20.5t-50 -8.5q-31 -3 -58 15q-26 17 -17 47q3 10 5.5 19.5t6.5 18.5q15 31 45 51q14 9 28.5 18t28.5 19q35 23 66.5 49.5t59.5 58.5q6 7 12 13.5t7 17.5z
M214 261v-1h34q5 0 4 4q-1 1 -1.5 2.5t-2.5 2.5q-17 6 -34 8.5t-35 4.5q-2 1 -6 -1q-6 -4 -7 -11q0 -9 8 -9h40z" />
    <glyph glyph-name="T" unicode="T" horiz-adv-x="467" 
d="M532 622q4 -8 8 -10q-2 -4 -11.5 -9t-14.5 -7q-7 -3 -13.5 -7t-12.5 -9q-25 -19 -51 -33.5t-57 -21.5q-21 -4 -27 -25q-14 -54 -25 -108t-19 -109q-8 -57 -10.5 -113.5t-3.5 -113.5v-16.5t-1 -17.5q-2 -38 -11 -73t-32 -67q-5 -6 -8 -12l-6 -12q-8 -12 -15 -13.5t-16 9.5
q-32 36 -53 76t-21 91q0 89 4.5 176.5t20.5 175.5q3 12 3 23q0 2 -2 8l-14 -2t-12 -8q-7 -9 -15.5 -9.5t-18.5 1.5q-11 3 -12.5 11t-3.5 16l-2 1q-6 -2 -8 -6t-3 -9q-4 -16 -16 -9q-14 9 -25.5 19.5t-16.5 27.5q-3 9 -5 17.5t4 17.5q2 3 2.5 6.5t0.5 6.5q-2 17 4.5 30
t16.5 25q9 11 20.5 20t23.5 17q60 39 127 65q12 5 24 8.5t23 11.5q3 2 7 3l8 2q24 5 47.5 9t46.5 8q32 5 62.5 -1.5t59.5 -20.5q14 -8 27 -17t22 -23q-12 2 -24.5 5.5t-24.5 4.5q-22 2 -43 -2t-39 -18h-2q-1 0 -1 -1h-1q-1 0 -1.5 -0.5t-1.5 -0.5q2 0 2.5 0.5t1.5 0.5h2l1 1
q32 2 65 5t66 5zM218 -110q-2 50 0.5 99.5t-6.5 99.5q-4 -42 -4.5 -82.5t2.5 -81.5q0 -9 1.5 -18t6.5 -17z" />
    <glyph glyph-name="U" unicode="U" horiz-adv-x="585" 
d="M449 -42q-14 1 -21.5 8t-12.5 15q-14 25 -25.5 50t-16.5 54q-1 9 -5 22q-7 2 -9.5 -1t-4.5 -6q-14 -23 -30.5 -45t-33.5 -43q-35 -41 -81 -66q-27 -16 -55 -13q-4 1 -7 1.5t-7 -0.5q-32 -2 -55 13t-40 40q-13 17 -20 37.5t-11 41.5q-8 45 -8.5 91t4.5 92q11 97 37 189.5
t63 183.5q4 10 9 19.5t10 19.5q6 12 15 20.5t20 15.5q1 1 1.5 1t1.5 1q7 4 14.5 4.5t15 -0.5t14.5 -2t15 1q10 2 19 -4t17 -13q13 -12 16 -25q2 -6 2.5 -12t-6.5 -12q-9 -9 -7.5 -13.5t12.5 -12.5q10 -8 7 -20q-3 -9 -9 -15q-11 -11 -17.5 -25t-11.5 -28q-25 -66 -44 -132.5
t-31 -135.5q-5 -25 -7.5 -50t-1.5 -51q1 -5 0 -9t4 -6q7 -3 10 1.5t6 8.5l21 30q40 61 75 126q45 81 86 162t82 164q4 8 7.5 17t8.5 17q7 12 17 20.5t23 15.5q17 9 32 -8q8 7 15.5 9.5t17.5 -2.5q11 -6 20 -13.5t14 -18.5q5 -10 8.5 -20.5t-1.5 -21.5q-1 -3 -1.5 -7t1.5 -6
q9 -14 5.5 -27t-6.5 -26l-28 -124t-25 -125q-8 -38 -14 -77t-11 -77q-5 -36 -16.5 -69.5t-31.5 -63.5q-11 -15 -20 -31.5t-14 -33.5zM83 195q1 -2 3 -8q3 2 3 8v4t-3 3q-1 0 -3 -7zM438 -11l1 -2l1 2h-2z" />
    <glyph glyph-name="V" unicode="V" horiz-adv-x="499" 
d="M126 578q5 12 6.5 24.5t2.5 24.5q1 11 1.5 22t1.5 22q2 9 10 6q37 -11 42 -51q1 -7 1.5 -13.5t4.5 -12.5t4 -13t-1 -13q-2 -41 -4.5 -80.5t-6.5 -79.5q-5 -50 -8.5 -99.5t-1.5 -100.5q0 -7 0.5 -13.5t0.5 -13.5t4 -8q5 -2 6.5 0.5t3.5 5.5q10 23 20 45t19 45
q24 66 48 131t48 131q5 12 9.5 24t9.5 23q20 45 61 76l42 30q7 5 15.5 2t11.5 -11q4 -11 5 -20q2 -14 4.5 -28.5t5.5 -28.5q12 -59 -8 -117q-31 -90 -62.5 -178t-69.5 -175q-12 -29 -26.5 -57t-31.5 -55q-18 -30 -45 -54q-12 -11 -25.5 -16.5t-30.5 -0.5q-9 2 -18 2t-18 -2
q-50 -10 -83 35q-11 16 -19 33.5t-13 36.5q-10 38 -14 76t-6 76q-2 54 1 108.5t9 108.5q3 36 6 72.5t5 73.5q0 34 6 67q1 10 9 19t18.5 15.5t22 9t21.5 -0.5q8 -1 8 -10q0 -5 -0.5 -10t-0.5 -10q-1 -15 -1.5 -30.5t-1.5 -30.5q0 -4 2 -12zM128 545q-1 2 -1 6q-1 -1 -1 -2v-4
h2zM108 299l-2 -2l2 -1v3zM114 257l-1 2l-1 -2h2z" />
    <glyph glyph-name="W" unicode="W" horiz-adv-x="779" 
d="M475 -19q7 15 -5 21q-13 5 -18.5 14.5t-10.5 20.5q-15 32 -25 65t-19 67q-8 31 -15 61.5t-15 60.5q0 6 -6 8q-5 0 -7 -5q-5 -8 -9.5 -16.5t-9.5 -16.5q-29 -54 -57.5 -107.5t-57.5 -107.5l-10 -18l-10 -18q-10 -20 -26 -33.5t-34 -24.5q-15 -10 -31.5 -10t-33.5 5
q-12 4 -19.5 13t-6.5 23q1 5 0 11t-1 12q-24 2 -31 8.5t-9 29.5q-3 20 -3 39t1 39q2 66 9.5 130.5t16.5 129.5q6 44 11 87.5t6 88.5q0 14 4 27.5t10 27.5q6 11 17 5q5 -3 8.5 -3t8.5 5q8 10 18 11.5t22 -0.5q10 -2 19 -5.5t19 -6.5q3 -1 6 -3.5t6 -0.5q12 9 16.5 3t8.5 -13
q6 -13 8.5 -25.5t-5.5 -26.5q-2 -3 -2.5 -6.5t-0.5 -6.5q-2 -44 -7 -86.5t-12 -85.5q0 -2 0.5 -5t0.5 -5q8 3 11 9.5t6 11.5q14 23 28 46.5t28 46.5q6 11 13 20t14 19q6 8 13.5 13.5t17.5 5.5q10 1 16 6t14 9l-1 1q8 -7 16 -7.5t17 1.5q8 1 16 0t16 -6q10 -6 23 -3
q10 2 16.5 -2.5t11.5 -12.5q18 -28 27 -62q6 -23 11 -46l10 -46q6 -26 11.5 -51.5t10.5 -51.5q2 -7 4 -13t4 -13q8 4 9 10t3 11q17 69 33.5 137t33.5 137q4 17 9 34t13 34q7 16 15.5 31t25.5 25q4 2 6 6t4 7q4 5 7.5 9.5t8.5 8.5q20 20 29 18t20 -27q5 -10 6 -20t0 -20
q-1 -8 -1.5 -15.5t-1.5 -15.5q-2 -6 -3.5 -12.5t1.5 -14.5q7 12 9 25t2 26q7 2 9 -1t3 -7q7 -22 7.5 -43.5t-3.5 -43.5q-11 -56 -24 -110t-27 -109q-15 -62 -31 -123t-36 -122q-6 -18 -12 -35.5t-16 -33.5q-19 -29 -44.5 -45t-62.5 -14q-34 3 -56 33q-2 3 -3 5.5t-5 3.5z
M633 5q3 -3 -1 -5l-2 1q-3 3 2 3q2 0 2 -0.5t-1 -0.5q-3 2 -2 0.5t2 1.5zM47 192q-1 1 -2 1q-2 -19 -3.5 -37t-3.5 -37q-1 -8 -0.5 -15t1.5 -15q0 -1 1.5 -2t2.5 -2q4 -1 4 3v104zM184 578h-5q-1 -11 -2 -21t-2 -21q0 -3 1 -4t1.5 -2t2.5 -2q4 -2 4 4v46zM87 583
q-7 -29 -7 -50q0 -7 6 -5q3 0 3 4q1 11 1.5 22.5t-3.5 28.5zM79 471q0 8 3.5 17t-3.5 20v-37zM666 544v3q0 2 -1 3q-2 -2 -2 -3q0 -2 0.5 -3t0.5 -2zM658 515v2l-1 1v-3h1zM645 462l-2 -1l1 -2z" />
    <glyph glyph-name="X" unicode="X" horiz-adv-x="514" 
d="M253 520q11 5 16.5 12.5t10.5 13.5q24 29 49.5 58t52.5 55q10 10 20.5 18.5t22.5 15.5q9 5 18 8.5t20 -0.5q5 -1 13 -1q26 2 42 -7t27 -30q1 -4 2 -7l2 -6q7 -16 -9 -20q-5 -1 -9 -1t-7 -4q-3 -2 -3 -5q0 -5 3 -5q5 -2 10 -2.5t10 -2.5q14 -5 12 -21q-1 -16 -14 -27
q-7 -9 -16 -12q-24 -11 -42 -28t-35 -36q-29 -33 -56 -67t-53 -68q-14 -20 -4 -41q17 -41 36 -80.5t40 -78.5q12 -23 22.5 -46t18.5 -47q6 -18 9.5 -36t3.5 -37q0 -11 0.5 -22t1.5 -22q0 -14 -12 -14h-10.5t-10.5 2q-46 13 -82.5 38t-59.5 69q-16 29 -31 58.5t-30 58.5
l-9 18q-8 -1 -10.5 -5t-5.5 -8l-32 -50t-31 -51q-23 -38 -51.5 -70.5t-66.5 -58.5q-11 -8 -21.5 -16t-19.5 -19q-5 -6 -14 -4.5t-11 9.5q-2 5 -2.5 10t-1.5 10q-8 45 -4 88t22 85q7 16 15 31t16 29q30 51 61 98.5t65 95.5q8 11 9 21t-4 23q-14 34 -28 67.5t-28 67.5
q-5 12 -8 24t-4 25q-1 6 -1.5 12t4.5 11q5 6 6.5 11t-2.5 13q-5 9 -1.5 16t9.5 14q20 19 45 23q7 1 13 -0.5t10 -9.5q7 -17 14 0q0 1 3.5 1t5.5 -1q22 -6 29 -26q7 -15 13.5 -29.5t12.5 -29.5l12 -28t12 -30z" />
    <glyph glyph-name="Y" unicode="Y" horiz-adv-x="584" 
d="M610 592q6 1 12 1h12q6 -1 9.5 -7t0.5 -11q-5 -10 -11.5 -17.5t-17.5 -8.5q-7 -1 -10.5 -3t-8.5 -7q-16 -16 -26 -35q-27 -42 -47 -83q-95 -192 -146 -398q-8 -32 -19 -61.5t-28 -58.5q-8 -11 -16 -23t-19 -22q-10 -8 -14.5 -19t-9.5 -22t-16 -4q-15 11 -23 29
q-11 27 -17 53.5t-6 55.5q3 90 28 175q4 14 7.5 28.5t8.5 29.5q-11 2 -19 -1.5t-16 -5.5q-20 -8 -42 -11.5t-44 -4.5q-12 -1 -24 2q-17 4 -29 13t-18 26q-2 8 -5.5 12.5t-11.5 6.5q-11 3 -17 11t-11 18q-5 14 -7.5 28t-3.5 29q0 27 3 54t7 54q8 48 20 93.5t26 90.5
q2 8 6 15.5t16 2.5q3 -1 5 3q6 9 13 13.5t15 5.5t16 0t16 -1q7 0 13.5 -2.5t12.5 -4.5q5 -1 7 1t5 4q7 9 14 0q8 -8 14 -17t9 -20q2 -7 2.5 -14t-6.5 -14q-10 -9 0 -21q6 -6 0 -15q-9 -11 -12.5 -24t-7.5 -26q-20 -62 -27 -126q-2 -8 -2 -17t-1 -17q0 -5 3 -6t6 -1l6 2t7 3
l59 29.5t60 28.5q9 5 14 11.5t10 15.5q12 26 24.5 53.5t25.5 53.5q14 27 29.5 53.5t33.5 51.5q5 5 9 10.5t8 11.5q14 21 34.5 28.5t45.5 4.5q11 -2 21 -1t21 8q21 11 37 -7q9 -11 16.5 -22t7.5 -25q1 -10 -2 -13.5t-12 -5.5q-11 -3 -14 -5t-9 -12zM36 348h-2q-1 -5 -1.5 -11
t-1.5 -12v-6.5t1 -6.5q1 -4 2 -7.5t8 -1.5zM192 237q-2 -1 -3.5 -1t-3.5 -1q-6 -2 -5 -7q0 -7 6 -5q5 0 8 1t7 3q4 0 4 4q-2 4 -4 5q-6 0 -9 1zM148 226q-2 0 -3 -1q-4 -3 -2.5 -5.5t3.5 -5.5q2 -7 7 -4q3 3 2 6q0 6 -7 10z" />
    <glyph glyph-name="Z" unicode="Z" horiz-adv-x="562" 
d="M374 521q-5 3 -8 2l-6 -2q-23 -10 -45.5 -19.5t-45.5 -19.5q-11 -5 -21 -11.5t-18 -14.5q-8 -7 -16 -11t-17 -7q-10 -5 -19 1q-8 6 -12 3q-6 -5 -12 -5t-11 2.5t-10 5.5t-11 4q-9 1 -14 8t-9 15q-2 4 -4 7.5t-4 7.5q-4 8 3 15q5 5 10 9t10 7q2 6 -2 7q-20 4 -22.5 8
t4.5 21q10 19 23 30q5 4 9.5 7t9.5 6q65 38 132.5 65.5t141.5 43.5q24 5 48.5 5t49.5 -2q20 -1 35.5 -11t26.5 -26q9 -14 15.5 -30t3.5 -34v-7q6 -27 -2 -50t-21 -46q-20 -37 -44.5 -70.5t-50.5 -66.5q-48 -58 -97.5 -113t-100.5 -111q-12 -14 -24.5 -27.5t-25.5 -27.5
q-2 -2 -3 -4t0 -5q2 -4 8 -4q13 1 25.5 1.5t25.5 2.5q22 3 44 4t44 1q15 -1 30.5 -2.5t30.5 -4.5q24 -6 47.5 -11t49.5 -6q20 0 12 -20q-3 -7 -10 -14q-37 -35 -79 -60.5t-93 -36.5q-11 -3 -23 -4t-24 -3q-51 -5 -101.5 -8.5t-101.5 -3.5q-11 0 -21 0.5t-20 2.5
q-25 5 -45.5 16.5t-31.5 37.5q-2 3 -3.5 6t-1.5 6q2 14 1 28.5t-1 28.5q0 12 5.5 23.5t13.5 22.5q11 15 21.5 29t21.5 28q29 32 58 64.5t58 64.5q49 54 97.5 108.5t94.5 111.5q6 8 12.5 15.5t9.5 16.5zM394 20q-2 -1 -3 -2t-3 -1q-24 -2 -48.5 -4t-49.5 -4q-31 -2 -62 -3.5
t-63 -3.5q-9 0 -16 -4q-8 -2 -6 -11q1 -4 8 -4q15 2 30 3t30 3q44 5 86.5 10t85.5 10q5 1 7 4t4 7q24 -6 38.5 -4.5t35.5 11.5q-18 -5 -36.5 -5.5t-37.5 -1.5z" />
    <glyph glyph-name="bracketleft" unicode="[" horiz-adv-x="447" 
d="M447 680q-3 -26 -17 -40t-34 -21q-44 -17 -90 -18q-12 0 -13 -12q-5 -105 -26 -205.5t-44 -202.5q-8 -32 -16.5 -64t-16.5 -64q7 -5 9.5 0t6.5 7q10 3 15 7q11 9 21 10t20 -11q3 -4 6.5 -3t4.5 4q5 9 10 8.5t11 -5.5q8 -6 12 -7q17 -5 24 -18.5t12 -27.5q2 -6 -1 -11
t-7 -10q-8 -6 -1 -11t7 -11t-2 -13q-7 -20 -20 -31q-39 -32 -83 -51.5t-97 -17.5q-21 1 -39.5 8.5t-32.5 24.5q-5 5 -10 8.5t-11 7.5q-17 9 -25.5 24.5t-13.5 32.5q-2 4 -0.5 7t3.5 5q6 11 -1 23q-5 10 -1 19q18 55 34 110t30 112q20 85 36.5 169.5t28.5 170.5q9 63 48 114
q5 5 8.5 11t7.5 11q8 11 16 19.5t24 4.5q2 0 3 1q21 14 45.5 17t47.5 11q8 2 15 3t15 -3q8 -2 13 -1q15 6 22 -7q1 0 1.5 -0.5t2.5 -0.5q18 0 25.5 -11t13.5 -25q4 -11 1.5 -16t-14.5 -9q-18 -5 -36 -8.5t-37 -5.5q-3 -1 -6.5 -1.5t-6.5 -2.5v-3v-2q6 -4 9 -5q8 -2 15 -1
t15 3q28 7 63 4zM285 680q1 1 2 1.5t2 2.5q-1 0 -1.5 0.5t-1.5 0.5l-3 -3z" />
    <glyph glyph-name="braceleft" unicode="{" horiz-adv-x="371" 
d="M84 329q-21 11 -36.5 23.5t-17.5 38.5q5 5 12.5 4t13.5 6q3 4 3 9t-5 7t-9 4t-9 4q-19 7 -9 26q10 18 27 25q19 8 29 22t15 34q4 17 7.5 33t6.5 33l6 30t8 30q7 23 23 41.5t37 30.5t44 18t43 3q6 -2 10 -1q17 5 30 -2.5t27 -13.5q14 -5 20 -17t11 -25q0 -5 -1 -7
q-6 -5 -12 -11t-13 -1q-5 3 -7 2t-3.5 -3.5t-3 -4.5t-4.5 0q-5 2 -9.5 3.5t-9.5 -0.5q-4 -2 -5 -4q-2 -7 4 -7q11 0 20.5 0.5t20.5 -0.5q5 0 10 0.5t10 -4.5q-2 -23 -16 -35.5t-34 -21.5q-2 -1 -7 -1q-23 0 -32 -12t-11 -32q-5 -34 -13 -67t-22 -64q-5 -8 0 -16
q16 -31 13 -63t-8 -64q-5 -29 -14.5 -57t-18.5 -57q-8 -23 -16 -46.5t-16 -46.5q-4 -13 -5 -23q-5 -27 21 -25q6 0 12.5 2t11.5 -6q4 -7 11.5 -5.5t12.5 -3.5q8 -8 12.5 -17.5t8.5 -20.5q4 -10 -8 -15q-11 -5 -27 -5h-24h-21q2 -11 9 -15.5t15 -5.5t15 0t15 1q5 0 10 0.5
t10 0.5q8 -2 7 -10q-9 -41 -49 -52q-30 -9 -60.5 -9t-59.5 12q-37 17 -55.5 46t-25.5 68q-8 48 0.5 94.5t23.5 91.5q8 26 17 50t18 50q4 13 7.5 26t8.5 28z" />
    <glyph glyph-name="backslash" unicode="\" horiz-adv-x="508" 
d="M507 14q2 -26 -5 -44t-21 -32q-11 -11 -27 -11q-30 -1 -52 12.5t-40 36.5q-8 11 -13 22t-10 23q-39 96 -90 186q-35 62 -70 122.5t-71 121.5q-20 33 -40.5 65t-45.5 61q-5 6 -9.5 12t-6.5 14q-3 12 9 19q9 5 10 8.5t-4 9.5q-12 13 -9.5 25t10.5 23q6 11 16.5 16.5
t21.5 9.5q3 1 7 0.5t6 -2.5q6 -6 11 -5t12 6q4 3 9 2t10 -3q22 -12 39 -32t32.5 -41t29.5 -44q49 -79 95 -159t91 -161q23 -42 43.5 -85.5t40.5 -88.5q10 -23 15 -45.5t6 -41.5z" />
    <glyph glyph-name="less" unicode="&#x3c;" horiz-adv-x="343" 
d="M268 147q5 -8 12 -12.5t13 -9.5q9 -7 10 -10.5t-3 -14.5q-5 -16 -15.5 -24.5t-23.5 -16.5q-5 -3 -13 -1q-8 3 -16.5 4.5t-17.5 -3.5q-4 -2 -9.5 0t-9.5 4q-47 28 -89 59.5t-71 78.5q-6 9 -10 18t-9 19q-2 5 -5 11t-2 11q4 16 -0.5 30.5t-2.5 29.5q2 10 6 18t9 16
q15 23 35 41q34 32 68.5 63.5t66.5 65.5q10 11 22 18.5t26 12.5q20 8 39 5.5t36 -12.5q16 -9 24 -22.5t3 -33.5q-1 -5 -1 -14q2 -20 -5.5 -36.5t-21.5 -30.5q-16 -17 -33 -33.5t-34 -33.5q-14 -14 -29.5 -28t-29.5 -28q-11 -9 -1 -17q10 -9 19 -17.5t20 -16.5l24 -18t25 -17
q6 -5 11 -9t8 -11q4 -8 9 -15.5t0 -15.5q-5 -10 -13.5 -6t-16.5 4z" />
    <glyph glyph-name="parenleft" unicode="(" horiz-adv-x="328" 
d="M328 704q-1 -8 -1 -14t-2 -12q-2 -10 -2.5 -19t1.5 -20q2 -12 -0.5 -24t-7.5 -23q-10 -29 -29 -61l-16 -28l-16 -28q-33 -54 -50.5 -112.5t-27.5 -120.5q-5 -35 -7.5 -69.5t-0.5 -69.5q1 -14 2.5 -28.5t4.5 -28.5q3 -11 6.5 -21t14.5 -17q10 -6 7 -17q-7 -29 22 -40
q7 -2 4 -4q-6 -5 -4.5 -7t4.5 -3.5l6 -3t2 -5.5q-3 -8 -6 -15t-11 -13q-21 -17 -44 -17.5t-46 3.5q-8 2 -14.5 3t-14.5 -2q-9 -4 -17 -0.5t-13 10.5q-11 13 -17 26q-43 75 -49 164q-3 66 5 129.5t21 126.5q15 77 45.5 146t72.5 134q22 35 53.5 56t71.5 30q13 3 25.5 0.5z
M160 266q-2 -2 -4.5 -3.5t-3.5 -3.5q-4 -24 -7.5 -48t-7.5 -49q-2 -11 -1.5 -22t3.5 -22q5 6 5 12v12q4 31 6 62t10 62q0 6 1 10v3q-3 2 -2 -4q0 -6 1 -9zM45 170q-3 -11 -3.5 -22.5t2.5 -27.5q5 15 4.5 27t-3.5 23z" />
    <glyph glyph-name="comma" unicode="," horiz-adv-x="273" 
d="M153 109q2 2 4 6q7 8 10.5 6.5t8.5 -6.5q2 -2 6 -8q5 -7 6.5 -13t-6.5 -14q-5 -4 -4.5 -8.5t8.5 -6.5q9 -3 11 -15q1 -11 -0.5 -20.5t-8.5 -17.5q-10 -14 -16.5 -28t-13.5 -29q-23 -56 -66 -93q-13 -11 -24 -24t-19 -28q-2 -4 -4.5 -7t-4.5 -7q-3 -4 -7.5 -3.5t-6.5 4.5
q-11 20 -17.5 39t-4.5 42q0 4 0.5 8t1.5 9q2 14 -9 18q-5 2 -6 6t-1 9q0 9 0.5 18t3.5 19q7 28 21 57q8 15 14.5 30.5t14.5 30.5q3 7 7 13t7 14q11 23 34.5 28.5t48.5 -1.5q6 -2 8 -9q2 -5 3 -10l2 -10q-2 2 -4 2.5t-2 -4.5q4 2 5 3zM135 65q-1 -4 -4 -1q2 4 4 1q0 2 -0.5 4
t-0.5 4q0 -2 0.5 -4t0.5 -4z" />
    <glyph glyph-name="period" unicode="." horiz-adv-x="257" 
d="M2 51q-5 28 8.5 52.5t27.5 49.5q6 10 15 16t19 11q10 4 20 -1q8 -4 13 -2q16 8 28.5 1.5t23.5 -15.5q20 -16 31 -37t11 -47q0 -6 0.5 -12t1.5 -12q5 -28 -5 -50t-30 -40q-8 -7 -18 -12.5t-20 -10.5q-3 -2 -7.5 -3.5t-8.5 0.5q-10 3 -19.5 4t-19.5 -3q-2 -1 -3.5 0t-3.5 1
q-35 16 -53 42t-11 68z" />
    <glyph glyph-name="minus" unicode="&#x2212;" horiz-adv-x="412" 
d="M251 295h126q5 0 10 0.5t8 -4.5q5 -6 2.5 -11.5t-6.5 -10.5q-12 -20 -30.5 -28.5t-39.5 -13.5q-7 -2 -13.5 -1.5t-13.5 0.5q-38 2 -76 -1.5t-76 -8.5q-18 -2 -36 -0.5t-35 -0.5q-7 6 -16 9.5t-17 7.5t-14.5 10.5t-8.5 18.5t-1 16t14 6q26 3 51 6t50 4q31 2 61.5 1.5
t60.5 -0.5v1zM14 310q-4 22 12 38q8 8 17.5 14.5t22.5 8.5q42 4 81.5 8.5t81.5 4.5q18 -1 35.5 -0.5t35.5 0.5q31 0 61 -19q27 -17 35 -52q2 -10 -7 -8q-8 1 -15.5 1.5t-15.5 2.5q-42 8 -84 8t-84 -5q-41 -6 -78 -2q-8 2 -17 1t-17 -1q-16 -1 -32 -1.5t-32 1.5z" />
    <glyph glyph-name="endash" unicode="&#x2013;" horiz-adv-x="496" 
d="M304 295h152q5 0 11.5 0.5t10.5 -4.5q5 -6 2.5 -11.5t-7.5 -10.5q-14 -20 -36.5 -28.5t-48.5 -13.5q-8 -2 -16 -1.5t-16 0.5q-47 2 -93 -1.5t-91 -8.5q-22 -2 -44 -0.5t-42 -0.5q-9 6 -19.5 9.5t-20.5 7.5t-17.5 10.5t-10.5 18.5t-1.5 16t17.5 6q31 3 61.5 6t60.5 4
q38 2 74.5 1.5t73.5 -0.5v1zM17 310q-6 22 14 38q10 8 21.5 14.5t27.5 8.5q50 4 98 8.5t99 4.5q22 -1 43 -0.5t43 0.5q38 0 74 -19q32 -17 42 -52q2 -10 -8 -8q-9 1 -19 1.5t-19 2.5q-51 8 -101.5 8t-101.5 -5q-24 -3 -47.5 -3.5t-47.5 1.5q-10 2 -20.5 1t-20.5 -1
q-19 -1 -38.5 -1.5t-38.5 1.5z" />
    <glyph glyph-name="emdash" unicode="&#x2014;" horiz-adv-x="566" 
d="M346 296h174q6 0 13 0.5t12 -4.5q6 -6 2.5 -11.5t-8.5 -10.5q-16 -19 -42 -27.5t-55 -13.5q-9 -2 -18 -1.5t-18 0.5q-54 2 -106.5 -1.5t-104.5 -8.5q-25 -2 -50 -0.5t-48 -0.5q-10 6 -22.5 9.5t-23.5 7.5t-20 10t-12 18q-4 12 -2 16t20 6l70 6t70 4q43 2 85 1.5t84 -0.5
v1zM18 311q-7 22 16 37q11 8 24.5 14.5t31.5 8.5q57 4 112 8.5t113 4.5q25 -1 49 -0.5t50 0.5q43 0 84 -19q20 -9 31.5 -21.5t16.5 -29.5q2 -10 -9 -8q-11 1 -22 1.5t-21 2.5q-59 8 -116.5 8t-116.5 -5q-27 -3 -54 -3.5t-54 1.5q-11 2 -23.5 1t-23.5 -1q-22 -1 -44.5 -1.5
t-43.5 1.5z" />
    <glyph glyph-name="quoteleft" unicode="&#x2018;" horiz-adv-x="235" 
d="M46 624q-3 36 13 65.5t32 59.5q5 9 13 15t17 11q10 6 14 5.5t15 -10.5q7 -7 10 0q6 10 13 10t16 -4q14 -7 23.5 -17t14.5 -27q2 -9 0.5 -15.5t-4.5 -13.5q-2 -5 -2 -9t7 -7q8 -5 6 -18v-3q-12 -23 -23 -47t-30 -43q-20 -20 -44 -28.5t-51 -10.5q-11 -2 -17 8
q-12 18 -20 37t-3 42z" />
    <glyph glyph-name="quoteright" unicode="&#x2019;" horiz-adv-x="235" 
d="M46 624q-3 36 13 65.5t32 59.5q5 9 13 15t17 11q10 6 14 5.5t15 -10.5q7 -7 10 0q6 10 13 10t16 -4q14 -7 23.5 -17t14.5 -27q2 -9 0.5 -15.5t-4.5 -13.5q-2 -5 -2 -9t7 -7q8 -5 6 -18v-3q-12 -23 -23 -47t-30 -43q-20 -20 -44 -28.5t-51 -10.5q-11 -2 -17 8
q-12 18 -20 37t-3 42z" />
    <glyph glyph-name="quotedblleft" unicode="&#x201c;" horiz-adv-x="445" 
d="M216 573q-5 0 -8.5 -2.5t-6.5 -5.5q-20 -18 -42.5 -31t-43.5 -29q-3 -2 -6.5 -1.5t-4.5 4.5l-16 50t-2 52q2 5 3 10.5t-1 9.5q-6 14 -2 25t8 23q10 29 21.5 56t24.5 54q8 17 19.5 31t28.5 24q24 14 49 13q5 0 10 -0.5t9 -4.5q4 -6 9.5 -7t11.5 -1q10 0 18 -8q9 -9 0 -17
q-4 -4 -8 -7t-7 -6q-2 -2 -2 -7q3 -3 5 -3q7 0 14.5 -1t12.5 2q12 8 25 6.5t26 6.5q8 5 17.5 2.5t17.5 -7.5q3 -2 6.5 -4.5t7.5 -4.5q13 -9 -1 -20l-6 -3q-4 -7 1 -8q4 -2 7.5 -3t8.5 -3q16 -5 20.5 -11t3.5 -23q-1 -8 -2 -15t-3 -15q0 -7 -4 -9q-15 -4 -18.5 -16.5
t-11.5 -22.5q-8 -8 -13 -19l-10 -22q-12 -28 -33 -50q-16 -17 -35 -27t-41 -16q-7 -2 -16 2q-8 4 -13 10t-10 13zM229 812q-1 -4 -1.5 -8t-1.5 -8q-1 -2 -3.5 -2t0.5 -3q1 2 1 3t1 3q6 2 5.5 6t-2.5 9l3 -1zM247 833h-2l2 -1v1zM85 1026h9q2 -2 4 -2q-2 -1 -6 -1l-4 2l-4 2z
M94 1030q-1 -1 -5 -7h-3q-6 2 1 2q2 1 4 1.5t3 3.5zM113 1034q-15 -7 -29 -4q8 1 14.5 1.5t14.5 1.5v1zM86 1034q-2 -1 -2.5 0t1.5 1q3 0 1 0.5t0 -2.5v1zM84 1027v1l1 -2z" />
    <glyph glyph-name="quotedblright" unicode="&#x201d;" horiz-adv-x="445" 
d="M216 573q-5 0 -8.5 -2.5t-6.5 -5.5q-20 -18 -42.5 -31t-43.5 -29q-3 -2 -6.5 -1.5t-4.5 4.5l-16 50t-2 52q2 5 3 10.5t-1 9.5q-6 14 -2 25t8 23q10 29 21.5 56t24.5 54q8 17 19.5 31t28.5 24q24 14 49 13q5 0 10 -0.5t9 -4.5q4 -6 9.5 -7t11.5 -1q10 0 18 -8q9 -9 0 -17
q-4 -4 -8 -7t-7 -6q-2 -2 -2 -7q3 -3 5 -3q7 0 14.5 -1t12.5 2q12 8 25 6.5t26 6.5q8 5 17.5 2.5t17.5 -7.5q3 -2 6.5 -4.5t7.5 -4.5q13 -9 -1 -20l-6 -3q-4 -7 1 -8q4 -2 7.5 -3t8.5 -3q16 -5 20.5 -11t3.5 -23q-1 -8 -2 -15t-3 -15q0 -7 -4 -9q-15 -4 -18.5 -16.5
t-11.5 -22.5q-8 -8 -13 -19l-10 -22q-12 -28 -33 -50q-16 -17 -35 -27t-41 -16q-7 -2 -16 2q-8 4 -13 10t-10 13zM229 812q-1 -4 -1.5 -8t-1.5 -8q-1 -2 -3.5 -2t0.5 -3q1 2 1 3t1 3q6 2 5.5 6t-2.5 9l3 -1zM247 833h-2l2 -1v1zM85 1026h9q2 -2 4 -2q-2 -1 -6 -1l-4 2l-4 2z
M94 1030q-1 -1 -5 -7h-3q-6 2 1 2q2 1 4 1.5t3 3.5zM113 1034q-15 -7 -29 -4q8 1 14.5 1.5t14.5 1.5v1zM86 1034q-2 -1 -2.5 0t1.5 1q3 0 1 0.5t0 -2.5v1zM84 1027v1l1 -2z" />
    <glyph glyph-name="guilsinglright" unicode="&#x203a;" horiz-adv-x="343" 
d="M80 471q-5 8 -12 12.5t-13 9.5q-9 7 -10 10.5t3 14.5q5 16 15.5 24.5t23.5 16.5q5 3 13 1q8 -3 16.5 -4.5t17.5 3.5q4 2 9.5 0t9.5 -4q47 -28 89 -59.5t71 -78.5q6 -9 10 -18t9 -19q2 -5 5 -11t2 -11q-2 -8 -1.5 -15.5t2 -15t2.5 -15t0 -14.5q-2 -10 -6 -18t-9 -16
q-15 -23 -35 -41q-34 -32 -68.5 -63.5t-66.5 -65.5q-10 -11 -22 -18.5t-26 -12.5q-20 -8 -39 -5.5t-36 12.5q-16 9 -24 22.5t-3 33.5q1 5 1 14q-2 20 5.5 36.5t21.5 30.5q16 17 33 33.5t34 33.5q14 14 29.5 28t29.5 28q11 9 1 17q-10 9 -19 17.5t-20 16.5l-24 18t-25 17
q-6 5 -11 9t-8 11q-4 8 -9 15.5t0 15.5q5 10 13.5 6t16.5 -4z" />
    <glyph glyph-name="guillemotright" unicode="&#xbb;" horiz-adv-x="606" 
d="M80 471q-5 8 -12 12.5t-13 9.5q-9 7 -10 10.5t3 14.5q5 16 15.5 24.5t23.5 16.5q5 3 13 1q8 -3 16.5 -4.5t17.5 3.5q4 2 9.5 0t9.5 -4q47 -28 89 -59.5t71 -78.5q6 -9 10 -18t9 -19q2 -5 5 -11t2 -11q-2 -8 -1.5 -15.5t2 -15t2.5 -15t0 -14.5q-2 -10 -6 -18t-9 -16
q-15 -23 -35 -41q-34 -32 -68.5 -63.5t-66.5 -65.5q-10 -11 -22 -18.5t-26 -12.5q-20 -8 -39 -5.5t-36 12.5q-16 9 -24 22.5t-3 33.5q1 5 1 14q-2 20 5.5 36.5t21.5 30.5q16 17 33 33.5t34 33.5q14 14 29.5 28t29.5 28q11 9 1 17q-10 9 -19 17.5t-20 16.5l-24 18t-25 17
q-6 5 -11 9t-8 11q-4 8 -9 15.5t0 15.5q5 10 13.5 6t16.5 -4zM340 471q-5 8 -12 12.5t-13 9.5q-9 7 -10 10.5t3 14.5q5 16 15.5 24.5t23.5 16.5q5 3 13 1q8 -3 16.5 -4.5t17.5 3.5q4 2 9.5 0t9.5 -4q47 -28 89 -59.5t71 -78.5q6 -9 10 -18t9 -19q2 -5 5 -11t2 -11
q-2 -8 -1.5 -15.5t2 -15t2.5 -15t0 -14.5q-2 -10 -6 -18t-9 -16q-15 -23 -35 -41q-34 -32 -68.5 -63.5t-66.5 -65.5q-10 -11 -22 -18.5t-26 -12.5q-20 -8 -39 -5.5t-36 12.5q-16 9 -24 22.5t-3 33.5q1 5 1 14q-2 20 5.5 36.5t21.5 30.5q16 17 33 33.5t34 33.5q14 14 29.5 28
t29.5 28q11 9 1 17q-10 9 -19 17.5t-20 16.5l-24 18t-25 17q-6 5 -11 9t-8 11q-4 8 -9 15.5t0 15.5q5 10 13.5 6t16.5 -4z" />
    <glyph glyph-name="guilsinglleft" unicode="&#x2039;" horiz-adv-x="343" 
d="M268 147q5 -8 12 -12.5t13 -9.5q9 -7 10 -10.5t-3 -14.5q-5 -16 -15.5 -24.5t-23.5 -16.5q-5 -3 -13 -1q-8 3 -16.5 4.5t-17.5 -3.5q-4 -2 -9.5 0t-9.5 4q-47 28 -89 59.5t-71 78.5q-6 9 -10 18t-9 19q-2 5 -5 11t-2 11q4 16 -0.5 30.5t-2.5 29.5q2 10 6 18t9 16
q15 23 35 41q34 32 68.5 63.5t66.5 65.5q10 11 22 18.5t26 12.5q20 8 39 5.5t36 -12.5q16 -9 24 -22.5t3 -33.5q-1 -5 -1 -14q2 -20 -5.5 -36.5t-21.5 -30.5q-16 -17 -33 -33.5t-34 -33.5q-14 -14 -29.5 -28t-29.5 -28q-11 -9 -1 -17q10 -9 19 -17.5t20 -16.5l24 -18t25 -17
q6 -5 11 -9t8 -11q4 -8 9 -15.5t0 -15.5q-5 -10 -13.5 -6t-16.5 4z" />
    <glyph glyph-name="guillemotleft" unicode="&#xab;" horiz-adv-x="616" 
d="M268 147q5 -8 12 -12.5t13 -9.5q9 -7 10 -10.5t-3 -14.5q-5 -16 -15.5 -24.5t-23.5 -16.5q-5 -3 -13 -1q-8 3 -16.5 4.5t-17.5 -3.5q-4 -2 -9.5 0t-9.5 4q-47 28 -89 59.5t-71 78.5q-6 9 -10 18t-9 19q-2 5 -5 11t-2 11q4 16 -0.5 30.5t-2.5 29.5q2 10 6 18t9 16
q15 23 35 41q34 32 68.5 63.5t66.5 65.5q10 11 22 18.5t26 12.5q20 8 39 5.5t36 -12.5q16 -9 24 -22.5t3 -33.5q-1 -5 -1 -14q2 -20 -5.5 -36.5t-21.5 -30.5q-16 -17 -33 -33.5t-34 -33.5q-14 -14 -29.5 -28t-29.5 -28q-11 -9 -1 -17q10 -9 19 -17.5t20 -16.5l24 -18t25 -17
q6 -5 11 -9t8 -11q4 -8 9 -15.5t0 -15.5q-5 -10 -13.5 -6t-16.5 4zM538 147q5 -8 12 -12.5t13 -9.5q9 -7 10 -10.5t-3 -14.5q-5 -16 -15.5 -24.5t-23.5 -16.5q-5 -3 -13 -1q-8 3 -16.5 4.5t-17.5 -3.5q-4 -2 -9.5 0t-9.5 4q-47 28 -89 59.5t-71 78.5q-6 9 -10 18t-9 19
q-2 5 -5 11t-2 11q4 16 -0.5 30.5t-2.5 29.5q2 10 6 18t9 16q15 23 35 41q34 32 68.5 63.5t66.5 65.5q10 11 22 18.5t26 12.5q20 8 39 5.5t36 -12.5q16 -9 24 -22.5t3 -33.5q-1 -5 -1 -14q2 -20 -5.5 -36.5t-21.5 -30.5q-16 -17 -33 -33.5t-34 -33.5q-14 -14 -29.5 -28
t-29.5 -28q-11 -9 -1 -17q10 -9 19 -17.5t20 -16.5l24 -18t25 -17q6 -5 11 -9t8 -11q4 -8 9 -15.5t0 -15.5q-5 -10 -13.5 -6t-16.5 4z" />
    <glyph glyph-name="dieresis" unicode="&#xa8;" horiz-adv-x="280" 
d="M56 848q19 4 28 -7q8 -13 24 -16q13 -2 19.5 -11t8.5 -20q8 -32 -5 -55.5t-38 -34.5q-14 -7 -31 -8t-33 12q-32 28 -20 67q2 9 6 17.5t7 17.5q8 19 30 15q5 -1 10 -2.5t10 -2.5q1 -1 2.5 0.5l2.5 2.5q2 4 0 6q-2 8 -8.5 10.5t-12.5 8.5zM196 848q19 4 28 -7q8 -13 24 -16
q13 -2 19.5 -11t8.5 -20q8 -32 -5 -55.5t-38 -34.5q-14 -7 -31 -8t-33 12q-32 28 -20 67q2 9 6 17.5t7 17.5q8 19 30 15q5 -1 10 -2.5t10 -2.5q1 -1 2.5 0.5l2.5 2.5q2 4 0 6q-2 8 -8.5 10.5t-12.5 8.5z" />
    <glyph glyph-name="quotesinglbase" unicode="&#x201a;" horiz-adv-x="238" 
d="M168 109q2 2 4 6q7 8 10.5 6.5t8.5 -6.5q2 -2 6 -8q5 -7 6.5 -13t-6.5 -14q-5 -4 -4.5 -8.5t8.5 -6.5q9 -3 11 -15q1 -11 -0.5 -20.5t-8.5 -17.5q-10 -14 -16.5 -28t-13.5 -29q-23 -56 -66 -93q-13 -11 -24 -24t-19 -28q-2 -4 -4.5 -7t-4.5 -7q-3 -4 -7.5 -3.5t-6.5 4.5
q-11 20 -17.5 39t-4.5 42q0 4 0.5 8t1.5 9q2 14 -9 18q-5 2 -6 6t-1 9q0 9 0.5 18t3.5 19q7 28 21 57q8 15 14.5 30.5t14.5 30.5q3 7 7 13t7 14q11 23 34.5 28.5t48.5 -1.5q6 -2 8 -9q2 -5 3 -10l2 -10q-2 2 -4 2.5t-2 -4.5q4 2 5 3zM150 65q-1 -4 -4 -1q2 4 4 1q0 2 -0.5 4
t-0.5 4q0 -2 0.5 -4t0.5 -4z" />
    <glyph glyph-name="quotedblbase" unicode="&#x201e;" horiz-adv-x="392" 
d="M172 115q7 8 10.5 6.5t8.5 -6.5l6 -8q5 -7 6.5 -13t-6.5 -14q-5 -4 -4.5 -8.5t8.5 -6.5q5 -2 7 -5l11 23q3 7 7 13t7 14q11 23 34.5 28.5t48.5 -1.5q6 -2 8 -9q2 -5 3 -9t2 -9l3 5q7 8 10.5 6.5t8.5 -6.5l6 -8q5 -7 6.5 -13t-6.5 -14q-5 -4 -4.5 -8.5t8.5 -6.5
q9 -3 11 -15q1 -11 -0.5 -20.5t-8.5 -17.5q-10 -14 -16.5 -28t-13.5 -29q-23 -56 -66 -93q-13 -11 -24 -24t-19 -28l-9 -14q-3 -4 -7.5 -3.5t-6.5 4.5q-11 20 -17.5 39t-4.5 42q0 4 0.5 8t1.5 9q2 14 -9 18q-5 2 -6 6t-1 9v9q-11 -21 -25.5 -40t-32.5 -35q-13 -11 -24 -24
t-19 -28l-9 -14q-3 -4 -7.5 -3.5t-6.5 4.5q-11 20 -17.5 39t-4.5 42q0 4 0.5 8t1.5 9q2 14 -9 18q-5 2 -6 6t-1 9q0 9 0.5 18t3.5 19q7 28 21 57l29 61q3 7 7 13t7 14q11 23 34.5 28.5t48.5 -1.5q6 -2 8 -9q2 -5 3 -9t2 -9zM168 109q-2 2 -3.5 2t-1.5 -5zM328 109
q-2 2 -3.5 2t-1.5 -5z" />
    <glyph glyph-name="ellipsis" unicode="&#x2026;" horiz-adv-x="787" 
d="M17 51q-5 28 8.5 52.5t27.5 49.5q6 10 15 16t19 11q10 4 20 -1q8 -4 13 -2q16 8 28.5 1.5t23.5 -15.5q20 -16 31 -37t11 -47q0 -6 0.5 -12t1.5 -12q5 -28 -5 -50t-30 -40q-8 -7 -18 -12.5t-20 -10.5q-3 -2 -7.5 -3.5t-8.5 0.5q-10 3 -19.5 4t-19.5 -3q-2 -1 -3.5 0
t-3.5 1q-35 16 -53 42t-11 68zM255 51q-5 28 8.5 52.5t27.5 49.5q6 10 15 16t19 11q10 4 20 -1q8 -4 13 -2q16 8 28.5 1.5t23.5 -15.5q20 -16 31 -37t11 -47q0 -6 0.5 -12t1.5 -12q5 -28 -5 -50t-30 -40q-8 -7 -18 -12.5t-20 -10.5q-3 -2 -7.5 -3.5t-8.5 0.5q-10 3 -19.5 4
t-19.5 -3q-2 -1 -3.5 0t-3.5 1q-35 16 -53 42t-11 68zM493 51q-5 28 8.5 52.5t27.5 49.5q6 10 15 16t19 11q10 4 20 -1q8 -4 13 -2q16 8 28.5 1.5t23.5 -15.5q20 -16 31 -37t11 -47q0 -6 0.5 -12t1.5 -12q5 -28 -5 -50t-30 -40q-8 -7 -18 -12.5t-20 -10.5q-3 -2 -7.5 -3.5
t-8.5 0.5q-10 3 -19.5 4t-19.5 -3q-2 -1 -3.5 0t-3.5 1q-35 16 -53 42t-11 68z" />
    <glyph glyph-name="dagger" unicode="&#x2020;" horiz-adv-x="400" 
d="M10 480q-4 22 12 38q8 8 17.5 14.5t22.5 8.5q17 2 34 3.5t34 3.5l32 153q5 24 11.5 48t15.5 47q4 9 9 17.5t16 12.5q7 2 11 12q6 16 17.5 18t25.5 2q-2 -10 -5 -18t-5 -16q0 -2 1.5 -4.5t3.5 -3.5q8 -6 11 3l11 25q2 4 4.5 7.5t7.5 1.5q4 -2 3 -5t-2 -7q0 -2 -1 -3t0 -3
q2 -7 5 -8q4 -2 8 -1.5t9 -0.5q19 -5 26 -17t6 -28q-2 -17 -6 -30q-14 -32 -21.5 -66t-15.5 -68q-3 -16 -6 -31.5t-7 -30.5h1q31 0 61 -19q27 -17 35 -52q2 -10 -7 -8q-8 1 -15.5 1.5t-15.5 2.5q-19 3 -37 4.5t-36 2.5q-2 -5 -3 -10.5t-2 -10.5h97q5 0 10 0.5t8 -4.5
q5 -6 2.5 -11.5t-6.5 -10.5q-12 -20 -30.5 -28.5t-39.5 -13.5q-7 -2 -13.5 -1.5t-13.5 0.5h-30l-15 -62q-17 -74 -28.5 -148.5t-19.5 -149.5q-5 -40 -15.5 -78t-28.5 -74q-11 -22 -20.5 -43.5t-20.5 -42.5q-2 -4 -4 -7.5t-4 -7.5q-3 -3 -9.5 -2.5t-8.5 4.5l-4 9
q-12 31 -22.5 62.5t-18.5 63.5q-7 26 -7.5 52t1.5 52q9 91 22 181.5t35 179.5h-25q-7 6 -16 9.5t-17 7.5t-14.5 10.5t-8.5 18.5t-1 16t14 6q22 2 43.5 4.5t42.5 4.5q2 7 4 17q-2 0 -3 0.5t-3 0.5q-8 2 -17 1t-17 -1q-16 -1 -32 -1.5t-32 1.5zM107 -155q-1 2 -1 5t-1 3
q-3 1 -3 -1.5v-4.5q0 -4 2 -8z" />
    <glyph glyph-name="caron" unicode="&#x2c7;" horiz-adv-x="257" 
d="M7 857v4v15.5t2.5 9t8.5 5.5t17 5q3 0 5 4q7 5 16 1q13 -4 21 -17q5 -8 9 -14.5t9 -14.5q8 -10 15.5 -20t15.5 -20q3 -4 7 -4.5t7 4.5q4 5 7 10t7 10q12 20 23 37q18 27 55 30q13 0 19 -11l4 -10t1 -10q-2 -16 -4 -31.5t-10 -30.5q-5 -8 -9 -18t-9 -19q-6 -13 -13 -25
t-15 -25q-9 -16 -23 -23.5t-28.5 -8t-28.5 5t-24 16.5q-22 22 -41 45.5t-33 51.5q-5 11 -9.5 22.5t-1.5 25.5z" />
    <glyph glyph-name="ogonek" unicode="&#x2db;" horiz-adv-x="151" 
d="M66 -40q2 0 2.5 0.5t2.5 -0.5q-2 1 -2.5 0.5t-2.5 0.5q4 1 8 2.5t8 0.5q6 -1 8 -5.5t4 -9.5q5 -17 7 -33.5t0 -33.5q-4 -26 -20.5 -46t-45.5 -16q-4 0 -7 1q-14 -1 -15.5 -4t4.5 -16q4 -7 7 -13t6 -11q8 -16 9 -30.5t-10 -30.5q-5 -8 -10.5 -10.5t-13.5 -3.5q-5 -1 -10 1
l-10 4q-25 10 -38.5 30t-21.5 43q-9 26 1 50q10 21 25.5 36.5t41.5 19.5q2 -1 4.5 0t4.5 1q14 1 14 16q0 4 1 7q1 10 0.5 22t14.5 18q1 0 1 3.5v5.5q5 16 22 18q10 0 11 -17z" />
    <glyph glyph-name="questiondown" unicode="&#xbf;" horiz-adv-x="521" 
d="M328 395q-8 5 -14 9t-11 9q-11 12 -16 26t4 31q4 6 3.5 11t-9.5 8q-5 2 -6 5.5t0 8.5q2 4 3 8t3 8q5 11 11 21t11 21q9 17 23 29t31 20q16 8 32 7.5t31 -5.5q18 -5 30.5 -24t11.5 -36q-2 -27 -7.5 -52.5t-19.5 -48.5q-10 -16 -20 -30t-27 -22q-14 -8 -10 -22
q11 -51 1.5 -98t-35.5 -91q-27 -47 -54.5 -93t-53.5 -92q-12 -21 -24 -41.5t-23 -41.5l-6 -10t-2 -12q3 -3 6.5 -2.5t6.5 1.5q37 14 70.5 33.5t62.5 45.5q9 8 17 17q9 11 13 21t-5 24q-5 7 -5.5 13.5t7.5 14.5q4 4 1 9t-5 10q-9 17 -6 29t18 23q2 1 2.5 2t2.5 2
q14 7 21.5 11.5t12.5 4t10 -6l15 -16.5q0 -1 4 -1q1 3 1 6.5t1 6.5q4 12 12 7q24 -14 33.5 -22t19.5 -24q11 -19 17.5 -38.5t5.5 -42.5q0 -14 -1 -27t-3 -27q-2 -19 -10 -35.5t-19 -32.5q-19 -27 -40 -45q-48 -42 -101 -72.5t-113 -50.5q-27 -9 -55 -10.5t-56 2.5
q-42 6 -70 29.5t-38 65.5q-7 26 -8.5 54t8.5 56q11 34 25 60q16 29 32 57.5t33 57.5q23 42 48 82.5t48 82.5q20 36 47.5 65.5t65.5 47.5q2 2 4 3.5t7 5.5zM443 72q-2 -5 2 -8q2 0 2 2q2 5 -2 8z" />
    <glyph glyph-name="exclamdown" unicode="&#xa1;" horiz-adv-x="286" 
d="M112 -219q-6 -2 -7 -6.5t-3 -9.5q-3 -11 -6 -21.5t-7 -20.5q-5 -11 -16 -9q-15 2 -27 8t-20 20q-3 7 -1.5 10t2.5 8q2 11 1 14t-12 9q-10 6 -10 16q-1 8 -0.5 15t3.5 15q17 41 26 84t19 86q9 40 16.5 79.5t12.5 80.5q2 13 5 25t6 25q4 20 12.5 36.5t21.5 32.5
q10 13 20.5 25.5t18.5 26.5q6 12 20 2q3 -3 6 -5.5t6 -6.5q26 -35 40 -74t8 -84q-6 -50 -15 -104q-10 -57 -22.5 -113t-27.5 -112q-5 -19 -11.5 -37t-13.5 -37q-5 -12 -13 -21t-19 -17q-10 -6 -19 -5q-4 0 -6.5 1.5t-0.5 6.5q3 8 4 17.5t6 17.5q2 5 5 10.5t-2 11.5zM188 304
q-13 -30 -7 -59q0 -2 4 -4q4 0 4 4q5 31 -1 59zM285 529q1 -37 -9.5 -70.5t-24.5 -66.5q-13 -29 -44 -45q-14 -7 -22 2q-6 7 -10 5t-9 -7q-4 -4 -13 -2q-41 9 -50 53q-2 7 1 12t5 10q1 5 2 9t-4 7q-9 5 -10 11.5t3 14.5q10 19 16 39t13 40q7 24 23 37.5t38 21.5q5 2 11 2
t9 -8q5 -10 9 -1q5 7 12 6q22 -5 38.5 -26t15.5 -44z" />
    <glyph glyph-name="underscore" unicode="_" horiz-adv-x="566" 
d="M346 -134h174q6 0 13 0.5t12 -4.5q6 -6 2.5 -11.5t-8.5 -10.5q-16 -19 -42 -27.5t-55 -13.5q-9 -2 -18 -1.5t-18 0.5q-54 2 -106.5 -1.5t-104.5 -8.5q-25 -2 -50 -0.5t-48 -0.5q-10 6 -22.5 9.5t-23.5 7.5t-20 10t-12 18q-4 12 -2 16t20 6l70 6t70 4q43 2 85 1.5t84 -0.5
v1zM18 -119q-7 22 16 37q11 8 24.5 14.5t31.5 8.5q57 4 112 8.5t113 4.5q25 -1 49 -0.5t50 0.5q43 0 84 -19q20 -9 31.5 -21.5t16.5 -29.5q2 -10 -9 -8q-11 1 -22 1.5t-21 2.5q-59 8 -116.5 8t-116.5 -5q-27 -3 -54 -3.5t-54 1.5q-11 2 -23.5 1t-23.5 -1q-22 -1 -44.5 -1.5
t-43.5 1.5z" />
    <glyph glyph-name="OE" unicode="&#x152;" horiz-adv-x="798" 
d="M455 640q8 10 9 14q8 16 13 19t18 -6q13 -8 25.5 -10t26.5 0q53 6 104 9q57 3 108 -25q2 -1 4 -3l5 -5q-50 5 -97 0t-93 -15q25 1 49 -3t50 1q8 1 15 0t15 -1l36 -2t36 -1q15 -1 28.5 -7t22.5 -20q6 -8 4.5 -12.5t-9.5 -8.5q-28 -13 -57 -18t-59 -7q-39 -3 -78.5 -6.5
t-79.5 -11.5q-4 -1 -12 -5q-1 -1 -4 -6q3 -3 5 -3h14q38 5 76 8.5t76 7.5q5 0 11.5 1t13.5 -3q-13 -10 -35 -17q-15 -4 -30 -5t-30 -3q-25 -2 -48.5 -5t-46.5 -6q-19 -2 -20 -18q-1 -4 -2.5 -7t-1.5 -7q-1 -13 -6.5 -25t-0.5 -26q14 -4 26 -2l24 4q40 5 77 -1t73 -22l36 -14
t38 -21q-60 2 -116 -5t-117 -15q15 -5 25 -4.5t19 2.5q44 4 87 7.5t87 1.5h6.5t6.5 -1q6 0 9 -3q2 -4 -1 -6t-5 -4q-20 -13 -40.5 -25.5t-41.5 -23.5q-14 -8 -29 -13t-32 -7q-39 -5 -77.5 -8.5t-77.5 -7.5q-13 -4 -13 -13q-5 -40 -5.5 -79.5t5.5 -79.5q1 -9 5.5 -12t13.5 -2
q6 2 12 2t11 2q29 6 56.5 7t55.5 3q8 1 15 0.5t15 -1.5q14 -3 27 -1t27 7q9 4 18.5 7t19.5 6q6 2 10 -2t2 -10q-14 -34 -33.5 -64.5t-50.5 -52.5q-3 -3 -6.5 -5t-6.5 -6q-15 -22 -37 -32t-45 -16q-78 -21 -156 -6q-21 4 -37.5 14.5t-30.5 26.5q-31 35 -45 78
q-15 -19 -36 -40q-20 -19 -42.5 -27.5t-50.5 -1.5q-13 3 -26 0l-24 -2q-19 -2 -33.5 5t-26.5 21q-11 13 -19.5 27.5t-15.5 30.5q-14 33 -22 67.5t-11 70.5q-2 14 -1.5 28.5t0.5 28.5q3 99 22 194t54 187q4 8 7 15.5t8 15.5q18 32 51 41q18 5 29 16q49 41 114 32q14 -2 27 -4
t27 -6q43 -11 74 -41q5 2 9 5t9 5q14 7 15 -8q1 -5 1 -10.5t2 -14.5zM179 110q8 3 11 7t6 9q35 56 66 114.5t53 121.5q9 28 15 55q4 25 4 49t-8 49q-14 41 -59 50q-7 2 -10 -5q-2 -5 -3 -9t-4 -7q-15 -13 -21.5 -30t-13.5 -34q-18 -51 -28.5 -102t-16.5 -103
q-5 -33 -5.5 -66t4.5 -66q2 -8 3 -16.5t7 -16.5zM504 -89q5 5 8.5 5t8.5 -3q0 8 -5 9q-7 1 -13.5 2t-13.5 1q-5 0 -9.5 1t-8.5 -4q-2 -3 3.5 -6.5t13.5 -4.5q4 0 8 0.5t8 -0.5zM262 640h11q2 1 5 1.5t2 3.5q-2 5 -6 7q-7 5 -13.5 3.5t-12.5 -3.5q-2 -1 -4 -5q0 -2 3 -5
q5 -1 8.5 -1.5t6.5 -0.5zM527 320q0 2 -1 2l-28 7q-5 2 -7 -4q0 -6 6 -7zM412 -84q-2 2 -2.5 4t-2.5 4q-1 2 -3 3t-4 -1t-2 -4t2 -4l7 -6l2 2q1 1 1.5 1t1.5 1zM492 17q2 -4 8 -2h3q0 5 -6 5q-2 0 -2.5 -1t-2.5 -2zM91 238h1v16h-1v-16zM529 -87q0 1 1 2q-5 1 -7 -3q4 0 6 1
zM509 -92q-1 1 -4 1q1 -1 1.5 -2t2.5 1zM554 -84v2l-3 1zM612 -72q0 -1 -2 -3q3 2 2 3z" />
    <glyph glyph-name="oe" unicode="&#x153;" horiz-adv-x="798" 
d="M455 640q8 10 9 14q8 16 13 19t18 -6q13 -8 25.5 -10t26.5 0q53 6 104 9q57 3 108 -25q2 -1 4 -3l5 -5q-50 5 -97 0t-93 -15q25 1 49 -3t50 1q8 1 15 0t15 -1l36 -2t36 -1q15 -1 28.5 -7t22.5 -20q6 -8 4.5 -12.5t-9.5 -8.5q-28 -13 -57 -18t-59 -7q-39 -3 -78.5 -6.5
t-79.5 -11.5q-4 -1 -12 -5q-1 -1 -4 -6q3 -3 5 -3h14q38 5 76 8.5t76 7.5q5 0 11.5 1t13.5 -3q-13 -10 -35 -17q-15 -4 -30 -5t-30 -3q-25 -2 -48.5 -5t-46.5 -6q-19 -2 -20 -18q-1 -4 -2.5 -7t-1.5 -7q-1 -13 -6.5 -25t-0.5 -26q14 -4 26 -2l24 4q40 5 77 -1t73 -22l36 -14
t38 -21q-60 2 -116 -5t-117 -15q15 -5 25 -4.5t19 2.5q44 4 87 7.5t87 1.5h6.5t6.5 -1q6 0 9 -3q2 -4 -1 -6t-5 -4q-20 -13 -40.5 -25.5t-41.5 -23.5q-14 -8 -29 -13t-32 -7q-39 -5 -77.5 -8.5t-77.5 -7.5q-13 -4 -13 -13q-5 -40 -5.5 -79.5t5.5 -79.5q1 -9 5.5 -12t13.5 -2
q6 2 12 2t11 2q29 6 56.5 7t55.5 3q8 1 15 0.5t15 -1.5q14 -3 27 -1t27 7q9 4 18.5 7t19.5 6q6 2 10 -2t2 -10q-14 -34 -33.5 -64.5t-50.5 -52.5q-3 -3 -6.5 -5t-6.5 -6q-15 -22 -37 -32t-45 -16q-78 -21 -156 -6q-21 4 -37.5 14.5t-30.5 26.5q-31 35 -45 78
q-15 -19 -36 -40q-20 -19 -42.5 -27.5t-50.5 -1.5q-13 3 -26 0l-24 -2q-19 -2 -33.5 5t-26.5 21q-11 13 -19.5 27.5t-15.5 30.5q-14 33 -22 67.5t-11 70.5q-2 14 -1.5 28.5t0.5 28.5q3 99 22 194t54 187q4 8 7 15.5t8 15.5q18 32 51 41q18 5 29 16q49 41 114 32q14 -2 27 -4
t27 -6q43 -11 74 -41q5 2 9 5t9 5q14 7 15 -8q1 -5 1 -10.5t2 -14.5zM179 110q8 3 11 7t6 9q35 56 66 114.5t53 121.5q9 28 15 55q4 25 4 49t-8 49q-14 41 -59 50q-7 2 -10 -5q-2 -5 -3 -9t-4 -7q-15 -13 -21.5 -30t-13.5 -34q-18 -51 -28.5 -102t-16.5 -103
q-5 -33 -5.5 -66t4.5 -66q2 -8 3 -16.5t7 -16.5zM504 -89q5 5 8.5 5t8.5 -3q0 8 -5 9q-7 1 -13.5 2t-13.5 1q-5 0 -9.5 1t-8.5 -4q-2 -3 3.5 -6.5t13.5 -4.5q4 0 8 0.5t8 -0.5zM262 640h11q2 1 5 1.5t2 3.5q-2 5 -6 7q-7 5 -13.5 3.5t-12.5 -3.5q-2 -1 -4 -5q0 -2 3 -5
q5 -1 8.5 -1.5t6.5 -0.5zM527 320q0 2 -1 2l-28 7q-5 2 -7 -4q0 -6 6 -7zM412 -84q-2 2 -2.5 4t-2.5 4q-1 2 -3 3t-4 -1t-2 -4t2 -4l7 -6l2 2q1 1 1.5 1t1.5 1zM492 17q2 -4 8 -2h3q0 5 -6 5q-2 0 -2.5 -1t-2.5 -2zM91 238h1v16h-1v-16zM529 -87q0 1 1 2q-5 1 -7 -3q4 0 6 1
zM509 -92q-1 1 -4 1q1 -1 1.5 -2t2.5 1zM554 -84v2l-3 1zM612 -72q0 -1 -2 -3q3 2 2 3z" />
    <glyph glyph-name="AE" unicode="&#xc6;" horiz-adv-x="799" 
d="M456 640q8 10 9 14q8 16 13 19t18 -6q13 -8 25.5 -10t26.5 0q53 6 104 9q57 3 108 -25q2 -1 4 -3l5 -5q-50 5 -97 0t-93 -15q25 1 49 -3t50 1q8 1 15 0t15 -1l36 -2t36 -1q15 -1 28.5 -7t22.5 -20q6 -8 4.5 -12.5t-9.5 -8.5q-28 -13 -57 -18t-59 -7q-39 -3 -78.5 -6.5
t-79.5 -11.5q-4 -1 -12 -5q-1 -1 -4 -6q3 -3 5 -3h14q38 5 76 8.5t76 7.5q5 0 11.5 1t13.5 -3q-13 -10 -35 -17q-15 -4 -30 -5t-30 -3q-25 -2 -48.5 -5t-46.5 -6q-19 -2 -20 -18q-1 -4 -2.5 -7t-1.5 -7q-1 -13 -6.5 -25t-0.5 -26q14 -4 26 -2l24 4q40 5 77 -1t73 -22l36 -14
t38 -21q-60 2 -116 -5t-117 -15q15 -5 25 -4.5t19 2.5q44 4 87 7.5t87 1.5h6.5t6.5 -1q6 0 9 -3q2 -4 -1 -6t-5 -4q-20 -13 -40.5 -25.5t-41.5 -23.5q-14 -8 -29 -13t-32 -7q-39 -5 -77.5 -8.5t-77.5 -7.5q-13 -4 -13 -13q-5 -40 -5.5 -79.5t5.5 -79.5q1 -9 5.5 -12t13.5 -2
q6 2 12 2t11 2q29 6 56.5 7t55.5 3q8 1 15 0.5t15 -1.5q14 -3 27 -1t27 7q9 4 18.5 7t19.5 6q6 2 10 -2t2 -10q-14 -34 -33.5 -64.5t-50.5 -52.5q-3 -3 -6.5 -5t-6.5 -6q-15 -22 -37 -32t-45 -16q-78 -21 -156 -6q-15 3 -27 9l-2 -6q-2 -4 -7 -4.5t-7 3.5q-5 7 -10.5 13.5
t-8.5 14.5l-4 9l-2 2q-8 9 -14.5 18t-12.5 19q-2 2 -2.5 3.5t-1.5 3.5q-18 37 -26 81q-2 11 -5 13t-15 0l-71 -11q-8 -1 -15 -1.5t-15 0.5t-11.5 -2t-6.5 -9q-3 -7 -6.5 -9t-6.5 9q0 1 -2 1t-3 -1q-4 -4 -5 -9q-9 -47 -41 -80q-4 -4 -6 -9.5t-10 -5.5q-8 -1 -13 3t-9 9
q-11 14 -23 27t-19 30q-8 20 -12 40.5t-2 42.5q2 17 4.5 33.5t6.5 33.5q26 128 74 245.5t111 229.5q3 5 6 10.5t7 10.5t8.5 9.5t12.5 6.5q6 2 12.5 4.5t11.5 7.5q6 6 19 6q19 0 35 8q11 7 24 4.5t25 -4.5q11 -2 17 -8.5t11 -14.5q2 -2 3 -4.5t3 -4.5l10 -8q3 6 10 8
q6 1 11 4.5t10 5.5q14 7 15 -8q1 -5 1 -10.5t2 -14.5zM300 326q-1 15 -2.5 39.5t-3.5 50.5q0 4 -4 4q-3 0 -5 -2t-2 -3t-1 -3q-39 -84 -66 -171q-2 -7 -4 -17q-1 -10 9 -11q16 0 31.5 -1t31.5 -7q15 -6 15 11q1 23 1 49v61zM56 -3q2 17 2.5 35t1.5 35q0 3 -4 5t-4 -4l-4 -36
t8 -35zM280 151q-1 1 -1 3q-8 2 -13 1l-66 -10q-4 -1 -5.5 -3t0.5 -3q5 -3 6 -2q20 3 39.5 6.5t39.5 7.5zM505 -89q5 5 8.5 5t8.5 -3q0 8 -5 9q-7 1 -13.5 2t-13.5 1q-5 0 -9.5 1t-8.5 -4q-2 -3 3.5 -6.5t13.5 -4.5q4 0 8 0.5t8 -0.5zM528 320q0 2 -1 2l-28 7q-5 2 -7 -4
q0 -6 6 -7zM493 17q2 -4 8 -2h3q0 5 -6 5q-2 0 -2.5 -1t-2.5 -2zM231 651q-1 -2 -2 -3t-1 -3l2 -2l3 5q0 1 -1 1.5t-1 1.5zM530 -87q0 1 1 2q-5 1 -7 -3q4 0 6 1zM510 -92q-1 1 -4 1q1 -1 1.5 -2t2.5 1zM555 -84v2l-3 1zM613 -72q0 -1 -2 -3q3 2 2 3zM442 82v1q0 1 -0.5 1
t0.5 -2z" />
    <glyph glyph-name="ae" unicode="&#xe6;" horiz-adv-x="799" 
d="M456 640q8 10 9 14q8 16 13 19t18 -6q13 -8 25.5 -10t26.5 0q53 6 104 9q57 3 108 -25q2 -1 4 -3l5 -5q-50 5 -97 0t-93 -15q25 1 49 -3t50 1q8 1 15 0t15 -1l36 -2t36 -1q15 -1 28.5 -7t22.5 -20q6 -8 4.5 -12.5t-9.5 -8.5q-28 -13 -57 -18t-59 -7q-39 -3 -78.5 -6.5
t-79.5 -11.5q-4 -1 -12 -5q-1 -1 -4 -6q3 -3 5 -3h14q38 5 76 8.5t76 7.5q5 0 11.5 1t13.5 -3q-13 -10 -35 -17q-15 -4 -30 -5t-30 -3q-25 -2 -48.5 -5t-46.5 -6q-19 -2 -20 -18q-1 -4 -2.5 -7t-1.5 -7q-1 -13 -6.5 -25t-0.5 -26q14 -4 26 -2l24 4q40 5 77 -1t73 -22l36 -14
t38 -21q-60 2 -116 -5t-117 -15q15 -5 25 -4.5t19 2.5q44 4 87 7.5t87 1.5h6.5t6.5 -1q6 0 9 -3q2 -4 -1 -6t-5 -4q-20 -13 -40.5 -25.5t-41.5 -23.5q-14 -8 -29 -13t-32 -7q-39 -5 -77.5 -8.5t-77.5 -7.5q-13 -4 -13 -13q-5 -40 -5.5 -79.5t5.5 -79.5q1 -9 5.5 -12t13.5 -2
q6 2 12 2t11 2q29 6 56.5 7t55.5 3q8 1 15 0.5t15 -1.5q14 -3 27 -1t27 7q9 4 18.5 7t19.5 6q6 2 10 -2t2 -10q-14 -34 -33.5 -64.5t-50.5 -52.5q-3 -3 -6.5 -5t-6.5 -6q-15 -22 -37 -32t-45 -16q-78 -21 -156 -6q-15 3 -27 9l-2 -6q-2 -4 -7 -4.5t-7 3.5q-5 7 -10.5 13.5
t-8.5 14.5l-4 9l-2 2q-8 9 -14.5 18t-12.5 19q-2 2 -2.5 3.5t-1.5 3.5q-18 37 -26 81q-2 11 -5 13t-15 0l-71 -11q-8 -1 -15 -1.5t-15 0.5t-11.5 -2t-6.5 -9q-3 -7 -6.5 -9t-6.5 9q0 1 -2 1t-3 -1q-4 -4 -5 -9q-9 -47 -41 -80q-4 -4 -6 -9.5t-10 -5.5q-8 -1 -13 3t-9 9
q-11 14 -23 27t-19 30q-8 20 -12 40.5t-2 42.5q2 17 4.5 33.5t6.5 33.5q26 128 74 245.5t111 229.5q3 5 6 10.5t7 10.5t8.5 9.5t12.5 6.5q6 2 12.5 4.5t11.5 7.5q6 6 19 6q19 0 35 8q11 7 24 4.5t25 -4.5q11 -2 17 -8.5t11 -14.5q2 -2 3 -4.5t3 -4.5l10 -8q3 6 10 8
q6 1 11 4.5t10 5.5q14 7 15 -8q1 -5 1 -10.5t2 -14.5zM300 326q-1 15 -2.5 39.5t-3.5 50.5q0 4 -4 4q-3 0 -5 -2t-2 -3t-1 -3q-39 -84 -66 -171q-2 -7 -4 -17q-1 -10 9 -11q16 0 31.5 -1t31.5 -7q15 -6 15 11q1 23 1 49v61zM56 -3q2 17 2.5 35t1.5 35q0 3 -4 5t-4 -4l-4 -36
t8 -35zM280 151q-1 1 -1 3q-8 2 -13 1l-66 -10q-4 -1 -5.5 -3t0.5 -3q5 -3 6 -2q20 3 39.5 6.5t39.5 7.5zM505 -89q5 5 8.5 5t8.5 -3q0 8 -5 9q-7 1 -13.5 2t-13.5 1q-5 0 -9.5 1t-8.5 -4q-2 -3 3.5 -6.5t13.5 -4.5q4 0 8 0.5t8 -0.5zM528 320q0 2 -1 2l-28 7q-5 2 -7 -4
q0 -6 6 -7zM493 17q2 -4 8 -2h3q0 5 -6 5q-2 0 -2.5 -1t-2.5 -2zM231 651q-1 -2 -2 -3t-1 -3l2 -2l3 5q0 1 -1 1.5t-1 1.5zM530 -87q0 1 1 2q-5 1 -7 -3q4 0 6 1zM510 -92q-1 1 -4 1q1 -1 1.5 -2t2.5 1zM555 -84v2l-3 1zM613 -72q0 -1 -2 -3q3 2 2 3zM442 82v1q0 1 -0.5 1
t0.5 -2z" />
    <glyph glyph-name="Ccedilla" unicode="&#xc7;" horiz-adv-x="500" 
d="M336 457q-3 -5 -5.5 -11t-4.5 -11q-4 -8 -10 -6q-9 2 -5 13l8 26q2 7 -2 10q-6 -1 -9.5 -5.5t-6.5 -9.5q-8 -13 -16.5 -25.5t-15.5 -25.5q-61 -110 -87 -235q-5 -21 -6.5 -42t0.5 -43q2 -17 6 -20.5t21 1.5q21 5 41 11.5t40 14.5q17 7 35 12.5t36 9.5q62 12 119 39
q8 4 19 6q3 1 5 -1.5t1 -4.5q0 -8 -5 -16q-9 -12 -15.5 -25.5t-13.5 -27.5q-23 -49 -58 -87t-86 -61q-65 -29 -137 -32q0 -8 -4.5 -14.5t-6.5 -13.5l-3 -7q-6 -13 5 -20q2 -2 4 -3.5t4 -2.5q22 -15 28.5 -36t4.5 -44q-1 -26 -22 -45q-18 -17 -39.5 -28t-47.5 -9
q-5 1 -10 1.5t-10 3.5q-7 5 -10.5 10t-4.5 14q-2 19 5.5 31.5t21.5 22.5l23 15q11 9 11 12.5t-12 10.5l-6 3q-28 10 -33 35t3 50q6 16 15 30q-23 11 -41 28.5t-29 43.5q-35 93 -19 187q16 101 52 193.5t91 177.5q9 14 18.5 26.5t20.5 25.5q23 26 51.5 42.5t60.5 24.5
q23 5 47 5.5t47 -8.5q5 -2 10 -3t10 -1q23 -3 35 -24q16 -24 23.5 -50t4.5 -56q-3 -26 -8.5 -50.5t-17.5 -47.5q-5 -8 -10 -16.5t-19 -6.5q-3 1 -4 -1t-3 -4q-6 -14 -16 -17.5t-23 -3.5q-7 1 -13.5 0.5t-13.5 1.5q-18 4 -21 24q-2 11 1.5 20.5t8.5 19.5q-6 0 -7 -1zM230 -9
q-6 0 -12 0.5t-12 0.5q-7 0 -6 -5q1 -2 3 -4t4 -2q7 -2 13 0t10 10zM345 469q2 2 -1 2q-4 0 -3 -4q0 -4 3 -7q0 2 0.5 4.5t0.5 4.5zM53 -7l-3 4q0 -1 -1 -1t-1 -1q2 -5 3 -5q1 -1 2 0t0 3zM45 112q1 2 1 6l-2 2v-7zM153 -18l1 2l-3 2q0 -4 2 -4z" />
    <glyph glyph-name="ccedilla" unicode="&#xe7;" horiz-adv-x="500" 
d="M336 457q-3 -5 -5.5 -11t-4.5 -11q-4 -8 -10 -6q-9 2 -5 13l8 26q2 7 -2 10q-6 -1 -9.5 -5.5t-6.5 -9.5q-8 -13 -16.5 -25.5t-15.5 -25.5q-61 -110 -87 -235q-5 -21 -6.5 -42t0.5 -43q2 -17 6 -20.5t21 1.5q21 5 41 11.5t40 14.5q17 7 35 12.5t36 9.5q62 12 119 39
q8 4 19 6q3 1 5 -1.5t1 -4.5q0 -8 -5 -16q-9 -12 -15.5 -25.5t-13.5 -27.5q-23 -49 -58 -87t-86 -61q-65 -29 -137 -32q0 -8 -4.5 -14.5t-6.5 -13.5l-3 -7q-6 -13 5 -20q2 -2 4 -3.5t4 -2.5q22 -15 28.5 -36t4.5 -44q-1 -26 -22 -45q-18 -17 -39.5 -28t-47.5 -9
q-5 1 -10 1.5t-10 3.5q-7 5 -10.5 10t-4.5 14q-2 19 5.5 31.5t21.5 22.5l23 15q11 9 11 12.5t-12 10.5l-6 3q-28 10 -33 35t3 50q6 16 15 30q-23 11 -41 28.5t-29 43.5q-35 93 -19 187q16 101 52 193.5t91 177.5q9 14 18.5 26.5t20.5 25.5q23 26 51.5 42.5t60.5 24.5
q23 5 47 5.5t47 -8.5q5 -2 10 -3t10 -1q23 -3 35 -24q16 -24 23.5 -50t4.5 -56q-3 -26 -8.5 -50.5t-17.5 -47.5q-5 -8 -10 -16.5t-19 -6.5q-3 1 -4 -1t-3 -4q-6 -14 -16 -17.5t-23 -3.5q-7 1 -13.5 0.5t-13.5 1.5q-18 4 -21 24q-2 11 1.5 20.5t8.5 19.5q-6 0 -7 -1zM230 -9
q-6 0 -12 0.5t-12 0.5q-7 0 -6 -5q1 -2 3 -4t4 -2q7 -2 13 0t10 10zM345 469q2 2 -1 2q-4 0 -3 -4q0 -4 3 -7q0 2 0.5 4.5t0.5 4.5zM53 -7l-3 4q0 -1 -1 -1t-1 -1q2 -5 3 -5q1 -1 2 0t0 3zM45 112q1 2 1 6l-2 2v-7zM153 -18l1 2l-3 2q0 -4 2 -4z" />
    <glyph glyph-name="Oslash" unicode="&#xd8;" horiz-adv-x="494" 
d="M6 213q3 99 22 194t54 187q4 8 7 15.5t8 15.5q18 32 51 41q18 5 29 16q49 41 114 32q2 -1 3.5 -0.5t3.5 -0.5q0 1 2 5q5 11 9.5 20.5t10.5 16.5q6 6 9 1q7 -12 12 -1q3 4 7 2q5 -5 10.5 -11.5t8.5 -18.5l4 -16t1 -17q36 -16 60 -44.5t39 -67.5q23 -60 23 -119.5
t-15 -120.5q-12 -50 -33 -100q-22 -54 -49 -104.5t-59 -99.5q-13 -20 -28 -38t-32 -35q-17 -16 -36 -24.5t-42 -6.5l-5 -20q-10 -26 -21 -42t-26 -14q-8 0 -14 12q-5 14 -8.5 29t-4.5 35q-14 2 -25 8.5t-21 17.5q-11 13 -19.5 27.5t-15.5 30.5q-14 33 -22 67.5t-11 70.5
q-2 14 -1.5 28.5t0.5 28.5zM215 480q-18 -51 -28.5 -102t-16.5 -103q-4 -30 -6 -61l10 41q18 73 36 144t37 143q-14 -13 -20 -29t-12 -33zM315 362q9 28 15 55q2 18 3 36t-1 36l-9 -33q-13 -48 -25 -96t-24 -97q11 24 21.5 48.5t19.5 50.5zM262 640h11h1l3 9l-3 3
q-7 5 -13.5 3.5t-12.5 -3.5q-2 -1 -4 -5q0 -2 3 -5q5 -1 8.5 -1.5t6.5 -0.5zM91 238h1v16h-1v-16zM417 470h2v3q-1 2 -2 2t-1 -3q0 -1 1 -2z" />
    <glyph glyph-name="oslash" unicode="&#xf8;" horiz-adv-x="494" 
d="M6 213q3 99 22 194t54 187q4 8 7 15.5t8 15.5q18 32 51 41q18 5 29 16q49 41 114 32q2 -1 3.5 -0.5t3.5 -0.5q0 1 2 5q5 11 9.5 20.5t10.5 16.5q6 6 9 1q7 -12 12 -1q3 4 7 2q5 -5 10.5 -11.5t8.5 -18.5l4 -16t1 -17q36 -16 60 -44.5t39 -67.5q23 -60 23 -119.5
t-15 -120.5q-12 -50 -33 -100q-22 -54 -49 -104.5t-59 -99.5q-13 -20 -28 -38t-32 -35q-17 -16 -36 -24.5t-42 -6.5l-5 -20q-10 -26 -21 -42t-26 -14q-8 0 -14 12q-5 14 -8.5 29t-4.5 35q-14 2 -25 8.5t-21 17.5q-11 13 -19.5 27.5t-15.5 30.5q-14 33 -22 67.5t-11 70.5
q-2 14 -1.5 28.5t0.5 28.5zM215 480q-18 -51 -28.5 -102t-16.5 -103q-4 -30 -6 -61l10 41q18 73 36 144t37 143q-14 -13 -20 -29t-12 -33zM315 362q9 28 15 55q2 18 3 36t-1 36l-9 -33q-13 -48 -25 -96t-24 -97q11 24 21.5 48.5t19.5 50.5zM262 640h11h1l3 9l-3 3
q-7 5 -13.5 3.5t-12.5 -3.5q-2 -1 -4 -5q0 -2 3 -5q5 -1 8.5 -1.5t6.5 -0.5zM91 238h1v16h-1v-16zM417 470h2v3q-1 2 -2 2t-1 -3q0 -1 1 -2z" />
    <glyph glyph-name="dotlessi" unicode="&#x131;" horiz-adv-x="228" 
d="M7 123q-4 27 -0.5 53t7.5 52q10 77 21 153t22 153q2 12 2 24.5t2 25.5q1 7 2 13t11 7q4 1 4.5 4.5t0.5 6.5q2 9 2.5 17.5t1.5 16.5q6 39 45 44q3 1 6.5 1h6.5q41 0 31 -39q-2 -9 -3 -18t-3 -18q0 -4 0.5 -7t5.5 -6q2 11 3 20.5t3 19.5l3 24q1 2 1.5 4.5t4.5 2.5q7 0 9 -2
q5 -5 9.5 -10.5t6.5 -11.5q6 -22 12 -43.5t2 -45.5q-8 -43 -13.5 -85.5t-11.5 -85.5q-8 -60 -16.5 -118t-17.5 -117q-11 -72 -45 -135q-9 -17 -17.5 -34.5t-21.5 -33.5q-6 -8 -8 -18l-4 -20q0 -2 -1 -5t-4 -2q-7 2 -9 5q-7 7 -10.5 15.5t-6.5 17.5q-26 68 -20 140
q1 8 1 16.5v16.5q0 11 -14 2zM102 30q-2 -2 -5.5 -2.5t-2.5 -5.5v-4q3 -3 4 2v6t5 5q-2 1 -3.5 1.5t1.5 2.5q0 -1 0.5 -2t0.5 -3z" />
    <glyph glyph-name="zcaron" unicode="&#x17e;" horiz-adv-x="562" 
d="M374 521q-5 3 -8 2l-6 -2q-23 -10 -45.5 -19.5t-45.5 -19.5q-11 -5 -21 -11.5t-18 -14.5q-8 -7 -16 -11t-17 -7q-10 -5 -19 1q-8 6 -12 3q-6 -5 -12 -5t-11 2.5t-10 5.5t-11 4q-9 1 -14 8t-9 15q-2 4 -4 7.5t-4 7.5q-4 8 3 15q5 5 10 9t10 7q2 6 -2 7q-20 4 -22.5 8
t4.5 21q10 19 23 30q5 4 9.5 7t9.5 6q65 38 132.5 65.5t141.5 43.5q24 5 48.5 5t49.5 -2q20 -1 35.5 -11t26.5 -26q9 -14 15.5 -30t3.5 -34v-7q6 -27 -2 -50t-21 -46q-20 -37 -44.5 -70.5t-50.5 -66.5q-48 -58 -97.5 -113t-100.5 -111q-12 -14 -24.5 -27.5t-25.5 -27.5
q-2 -2 -3 -4t0 -5q2 -4 8 -4q13 1 25.5 1.5t25.5 2.5q22 3 44 4t44 1q15 -1 30.5 -2.5t30.5 -4.5q24 -6 47.5 -11t49.5 -6q20 0 12 -20q-3 -7 -10 -14q-37 -35 -79 -60.5t-93 -36.5q-11 -3 -23 -4t-24 -3q-51 -5 -101.5 -8.5t-101.5 -3.5q-11 0 -21 0.5t-20 2.5
q-25 5 -45.5 16.5t-31.5 37.5q-2 3 -3.5 6t-1.5 6q2 14 1 28.5t-1 28.5q0 12 5.5 23.5t13.5 22.5q11 15 21.5 29t21.5 28q29 32 58 64.5t58 64.5q49 54 97.5 108.5t94.5 111.5q6 8 12.5 15.5t9.5 16.5zM394 20q-2 -1 -3 -2t-3 -1q-24 -2 -48.5 -4t-49.5 -4q-31 -2 -62 -3.5
t-63 -3.5q-9 0 -16 -4q-8 -2 -6 -11q1 -4 8 -4q15 2 30 3t30 3q44 5 86.5 10t85.5 10q5 1 7 4t4 7q24 -6 38.5 -4.5t35.5 11.5q-18 -5 -36.5 -5.5t-37.5 -1.5zM158 857v4v15.5t2.5 9t8.5 5.5t17 5q3 0 5 4q7 5 16 1q13 -4 21 -17q5 -8 9 -14.5t9 -14.5q8 -10 15.5 -20
t15.5 -20q3 -4 7 -4.5t7 4.5q4 5 7 10t7 10q12 20 23 37q18 27 55 30q13 0 19 -11l4 -10t1 -10q-2 -16 -4 -31.5t-10 -30.5q-5 -8 -9 -18t-9 -19q-6 -13 -13 -25t-15 -25q-9 -16 -23 -23.5t-28.5 -8t-28.5 5t-24 16.5q-22 22 -41 45.5t-33 51.5q-5 11 -9.5 22.5t-1.5 25.5z
" />
    <glyph glyph-name="Zcaron" unicode="&#x17d;" horiz-adv-x="562" 
d="M374 521q-5 3 -8 2l-6 -2q-23 -10 -45.5 -19.5t-45.5 -19.5q-11 -5 -21 -11.5t-18 -14.5q-8 -7 -16 -11t-17 -7q-10 -5 -19 1q-8 6 -12 3q-6 -5 -12 -5t-11 2.5t-10 5.5t-11 4q-9 1 -14 8t-9 15q-2 4 -4 7.5t-4 7.5q-4 8 3 15q5 5 10 9t10 7q2 6 -2 7q-20 4 -22.5 8
t4.5 21q10 19 23 30q5 4 9.5 7t9.5 6q65 38 132.5 65.5t141.5 43.5q24 5 48.5 5t49.5 -2q20 -1 35.5 -11t26.5 -26q9 -14 15.5 -30t3.5 -34v-7q6 -27 -2 -50t-21 -46q-20 -37 -44.5 -70.5t-50.5 -66.5q-48 -58 -97.5 -113t-100.5 -111q-12 -14 -24.5 -27.5t-25.5 -27.5
q-2 -2 -3 -4t0 -5q2 -4 8 -4q13 1 25.5 1.5t25.5 2.5q22 3 44 4t44 1q15 -1 30.5 -2.5t30.5 -4.5q24 -6 47.5 -11t49.5 -6q20 0 12 -20q-3 -7 -10 -14q-37 -35 -79 -60.5t-93 -36.5q-11 -3 -23 -4t-24 -3q-51 -5 -101.5 -8.5t-101.5 -3.5q-11 0 -21 0.5t-20 2.5
q-25 5 -45.5 16.5t-31.5 37.5q-2 3 -3.5 6t-1.5 6q2 14 1 28.5t-1 28.5q0 12 5.5 23.5t13.5 22.5q11 15 21.5 29t21.5 28q29 32 58 64.5t58 64.5q49 54 97.5 108.5t94.5 111.5q6 8 12.5 15.5t9.5 16.5zM394 20q-2 -1 -3 -2t-3 -1q-24 -2 -48.5 -4t-49.5 -4q-31 -2 -62 -3.5
t-63 -3.5q-9 0 -16 -4q-8 -2 -6 -11q1 -4 8 -4q15 2 30 3t30 3q44 5 86.5 10t85.5 10q5 1 7 4t4 7q24 -6 38.5 -4.5t35.5 11.5q-18 -5 -36.5 -5.5t-37.5 -1.5zM158 863v4v15.5t2.5 9t8.5 5.5t17 5q3 0 5 4q7 5 16 1q13 -4 21 -17q5 -8 9 -14.5t9 -14.5q8 -10 15.5 -20
t15.5 -20q3 -4 7 -4.5t7 4.5q4 5 7 10t7 10q12 20 23 37q18 27 55 30q13 0 19 -11l4 -10t1 -10q-2 -16 -4 -31.5t-10 -30.5q-5 -8 -9 -18t-9 -19q-6 -13 -13 -25t-15 -25q-9 -16 -23 -23.5t-28.5 -8t-28.5 5t-24 16.5q-22 22 -41 45.5t-33 51.5q-5 11 -9.5 22.5t-1.5 25.5z
" />
    <glyph glyph-name="scaron" unicode="&#x161;" horiz-adv-x="545" 
d="M312 153q-11 10 -23 15t-25 9q-23 6 -45.5 9.5t-45.5 3.5q-20 -1 -40.5 0t-40.5 0q-45 -2 -70 35q-24 36 -14 77q9 40 27.5 74.5t44.5 66.5q47 58 99.5 109t111.5 97q8 5 15.5 10.5t15.5 10.5q25 15 51 18t52 -10q7 -3 12 -3t9 7q11 16 26 18t32 -1q8 -1 19 -5
q9 -3 17.5 -4t17.5 7q5 5 11 4.5t11 -4.5q12 -8 18 -27t2 -33q-1 -5 -8 -10l-12 -12q-1 -2 -1 -3t-1 -3q2 -2 4.5 -2.5t4.5 -2.5q8 -3 3 -11q-1 -3 -6 -8q-19 -15 -32 -34.5t-25 -40.5q-10 -18 -18.5 -36.5t-17.5 -36.5q-11 -23 -27.5 -41.5t-42.5 -28.5q-5 -2 -8.5 -5.5
t-8.5 -5.5q-17 -11 -31 3q-17 16 -26 35t-6 43q1 8 1.5 14.5t-1.5 14.5q-7 1 -11 -2l-8 -6q-27 -25 -52 -51.5t-50 -53.5q-2 -2 -2.5 -4t-2.5 -4q-2 -3 -0.5 -6.5t5.5 -3.5q19 -1 37.5 -3t36.5 -5q29 -5 56 -14.5t53 -24.5q17 -10 30 -22.5t22 -29.5q5 -10 9 -20t3 -22
q-1 -8 0.5 -15t3.5 -15q12 -47 -12 -92q-14 -26 -32.5 -49t-39.5 -45q-37 -36 -77.5 -66t-84.5 -57q-23 -14 -47 -20.5t-50 -8.5q-31 -3 -58 15q-26 17 -17 47q3 10 5.5 19.5t6.5 18.5q15 31 45 51q14 9 28.5 18t28.5 19q35 23 66.5 49.5t59.5 58.5q6 7 12 13.5t7 17.5z
M214 261v-1h34q5 0 4 4q-1 1 -1.5 2.5t-2.5 2.5q-17 6 -34 8.5t-35 4.5q-2 1 -6 -1q-6 -4 -7 -11q0 -9 8 -9h40zM149 857v4v15.5t2.5 9t8.5 5.5t17 5q3 0 5 4q7 5 16 1q13 -4 21 -17q5 -8 9 -14.5t9 -14.5q8 -10 15.5 -20t15.5 -20q3 -4 7 -4.5t7 4.5q4 5 7 10t7 10
q12 20 23 37q18 27 55 30q13 0 19 -11l4 -10t1 -10q-2 -16 -4 -31.5t-10 -30.5q-5 -8 -9 -18t-9 -19q-6 -13 -13 -25t-15 -25q-9 -16 -23 -23.5t-28.5 -8t-28.5 5t-24 16.5q-22 22 -41 45.5t-33 51.5q-5 11 -9.5 22.5t-1.5 25.5z" />
    <glyph glyph-name="Scaron" unicode="&#x160;" horiz-adv-x="545" 
d="M312 153q-11 10 -23 15t-25 9q-23 6 -45.5 9.5t-45.5 3.5q-20 -1 -40.5 0t-40.5 0q-45 -2 -70 35q-24 36 -14 77q9 40 27.5 74.5t44.5 66.5q47 58 99.5 109t111.5 97q8 5 15.5 10.5t15.5 10.5q25 15 51 18t52 -10q7 -3 12 -3t9 7q11 16 26 18t32 -1q8 -1 19 -5
q9 -3 17.5 -4t17.5 7q5 5 11 4.5t11 -4.5q12 -8 18 -27t2 -33q-1 -5 -8 -10l-12 -12q-1 -2 -1 -3t-1 -3q2 -2 4.5 -2.5t4.5 -2.5q8 -3 3 -11q-1 -3 -6 -8q-19 -15 -32 -34.5t-25 -40.5q-10 -18 -18.5 -36.5t-17.5 -36.5q-11 -23 -27.5 -41.5t-42.5 -28.5q-5 -2 -8.5 -5.5
t-8.5 -5.5q-17 -11 -31 3q-17 16 -26 35t-6 43q1 8 1.5 14.5t-1.5 14.5q-7 1 -11 -2l-8 -6q-27 -25 -52 -51.5t-50 -53.5q-2 -2 -2.5 -4t-2.5 -4q-2 -3 -0.5 -6.5t5.5 -3.5q19 -1 37.5 -3t36.5 -5q29 -5 56 -14.5t53 -24.5q17 -10 30 -22.5t22 -29.5q5 -10 9 -20t3 -22
q-1 -8 0.5 -15t3.5 -15q12 -47 -12 -92q-14 -26 -32.5 -49t-39.5 -45q-37 -36 -77.5 -66t-84.5 -57q-23 -14 -47 -20.5t-50 -8.5q-31 -3 -58 15q-26 17 -17 47q3 10 5.5 19.5t6.5 18.5q15 31 45 51q14 9 28.5 18t28.5 19q35 23 66.5 49.5t59.5 58.5q6 7 12 13.5t7 17.5z
M214 261v-1h34q5 0 4 4q-1 1 -1.5 2.5t-2.5 2.5q-17 6 -34 8.5t-35 4.5q-2 1 -6 -1q-6 -4 -7 -11q0 -9 8 -9h40zM149 863v4v15.5t2.5 9t8.5 5.5t17 5q3 0 5 4q7 5 16 1q13 -4 21 -17q5 -8 9 -14.5t9 -14.5q8 -10 15.5 -20t15.5 -20q3 -4 7 -4.5t7 4.5q4 5 7 10t7 10
q12 20 23 37q18 27 55 30q13 0 19 -11l4 -10t1 -10q-2 -16 -4 -31.5t-10 -30.5q-5 -8 -9 -18t-9 -19q-6 -13 -13 -25t-15 -25q-9 -16 -23 -23.5t-28.5 -8t-28.5 5t-24 16.5q-22 22 -41 45.5t-33 51.5q-5 11 -9.5 22.5t-1.5 25.5z" />
    <glyph glyph-name="ydieresis" unicode="&#xff;" horiz-adv-x="584" 
d="M610 592q6 1 12 1h12q6 -1 9.5 -7t0.5 -11q-5 -10 -11.5 -17.5t-17.5 -8.5q-7 -1 -10.5 -3t-8.5 -7q-16 -16 -26 -35q-27 -42 -47 -83q-95 -192 -146 -398q-8 -32 -19 -61.5t-28 -58.5q-8 -11 -16 -23t-19 -22q-10 -8 -14.5 -19t-9.5 -22t-16 -4q-15 11 -23 29
q-11 27 -17 53.5t-6 55.5q3 90 28 175q4 14 7.5 28.5t8.5 29.5q-11 2 -19 -1.5t-16 -5.5q-20 -8 -42 -11.5t-44 -4.5q-12 -1 -24 2q-17 4 -29 13t-18 26q-2 8 -5.5 12.5t-11.5 6.5q-11 3 -17 11t-11 18q-5 14 -7.5 28t-3.5 29q0 27 3 54t7 54q8 48 20 93.5t26 90.5
q2 8 6 15.5t16 2.5q3 -1 5 3q6 9 13 13.5t15 5.5t16 0t16 -1q7 0 13.5 -2.5t12.5 -4.5q5 -1 7 1t5 4q7 9 14 0q8 -8 14 -17t9 -20q2 -7 2.5 -14t-6.5 -14q-10 -9 0 -21q6 -6 0 -15q-9 -11 -12.5 -24t-7.5 -26q-20 -62 -27 -126q-2 -8 -2 -17t-1 -17q0 -5 3 -6t6 -1l6 2t7 3
l59 29.5t60 28.5q9 5 14 11.5t10 15.5q12 26 24.5 53.5t25.5 53.5q14 27 29.5 53.5t33.5 51.5q5 5 9 10.5t8 11.5q14 21 34.5 28.5t45.5 4.5q11 -2 21 -1t21 8q21 11 37 -7q9 -11 16.5 -22t7.5 -25q1 -10 -2 -13.5t-12 -5.5q-11 -3 -14 -5t-9 -12zM36 348h-2q-1 -5 -1.5 -11
t-1.5 -12v-6.5t1 -6.5q1 -4 2 -7.5t8 -1.5zM192 237q-2 -1 -3.5 -1t-3.5 -1q-6 -2 -5 -7q0 -7 6 -5q5 0 8 1t7 3q4 0 4 4q-2 4 -4 5q-6 0 -9 1zM148 226q-2 0 -3 -1q-4 -3 -2.5 -5.5t3.5 -5.5q2 -7 7 -4q3 3 2 6q0 6 -7 10zM204 848q19 4 28 -7q8 -13 24 -16q13 -2 19.5 -11
t8.5 -20q8 -32 -5 -55.5t-38 -34.5q-14 -7 -31 -8t-33 12q-32 28 -20 67q2 9 6 17.5t7 17.5q8 19 30 15q5 -1 10 -2.5t10 -2.5q1 -1 2.5 0.5l2.5 2.5q2 4 0 6q-2 8 -8.5 10.5t-12.5 8.5zM344 848q19 4 28 -7q8 -13 24 -16q13 -2 19.5 -11t8.5 -20q8 -32 -5 -55.5t-38 -34.5
q-14 -7 -31 -8t-33 12q-32 28 -20 67q2 9 6 17.5t7 17.5q8 19 30 15q5 -1 10 -2.5t10 -2.5q1 -1 2.5 0.5l2.5 2.5q2 4 0 6q-2 8 -8.5 10.5t-12.5 8.5z" />
    <glyph glyph-name="Ydieresis" unicode="&#x178;" horiz-adv-x="584" 
d="M610 592q6 1 12 1h12q6 -1 9.5 -7t0.5 -11q-5 -10 -11.5 -17.5t-17.5 -8.5q-7 -1 -10.5 -3t-8.5 -7q-16 -16 -26 -35q-27 -42 -47 -83q-95 -192 -146 -398q-8 -32 -19 -61.5t-28 -58.5q-8 -11 -16 -23t-19 -22q-10 -8 -14.5 -19t-9.5 -22t-16 -4q-15 11 -23 29
q-11 27 -17 53.5t-6 55.5q3 90 28 175q4 14 7.5 28.5t8.5 29.5q-11 2 -19 -1.5t-16 -5.5q-20 -8 -42 -11.5t-44 -4.5q-12 -1 -24 2q-17 4 -29 13t-18 26q-2 8 -5.5 12.5t-11.5 6.5q-11 3 -17 11t-11 18q-5 14 -7.5 28t-3.5 29q0 27 3 54t7 54q8 48 20 93.5t26 90.5
q2 8 6 15.5t16 2.5q3 -1 5 3q6 9 13 13.5t15 5.5t16 0t16 -1q7 0 13.5 -2.5t12.5 -4.5q5 -1 7 1t5 4q7 9 14 0q8 -8 14 -17t9 -20q2 -7 2.5 -14t-6.5 -14q-10 -9 0 -21q6 -6 0 -15q-9 -11 -12.5 -24t-7.5 -26q-20 -62 -27 -126q-2 -8 -2 -17t-1 -17q0 -5 3 -6t6 -1l6 2t7 3
l59 29.5t60 28.5q9 5 14 11.5t10 15.5q12 26 24.5 53.5t25.5 53.5q14 27 29.5 53.5t33.5 51.5q5 5 9 10.5t8 11.5q14 21 34.5 28.5t45.5 4.5q11 -2 21 -1t21 8q21 11 37 -7q9 -11 16.5 -22t7.5 -25q1 -10 -2 -13.5t-12 -5.5q-11 -3 -14 -5t-9 -12zM36 348h-2q-1 -5 -1.5 -11
t-1.5 -12v-6.5t1 -6.5q1 -4 2 -7.5t8 -1.5zM192 237q-2 -1 -3.5 -1t-3.5 -1q-6 -2 -5 -7q0 -7 6 -5q5 0 8 1t7 3q4 0 4 4q-2 4 -4 5q-6 0 -9 1zM148 226q-2 0 -3 -1q-4 -3 -2.5 -5.5t3.5 -5.5q2 -7 7 -4q3 3 2 6q0 6 -7 10zM204 854q19 4 28 -7q8 -13 24 -16q13 -2 19.5 -11
t8.5 -20q8 -32 -5 -55.5t-38 -34.5q-14 -7 -31 -8t-33 12q-32 28 -20 67q2 9 6 17.5t7 17.5q8 19 30 15q5 -1 10 -2.5t10 -2.5q1 -1 2.5 0.5l2.5 2.5q2 4 0 6q-2 8 -8.5 10.5t-12.5 8.5zM344 854q19 4 28 -7q8 -13 24 -16q13 -2 19.5 -11t8.5 -20q8 -32 -5 -55.5t-38 -34.5
q-14 -7 -31 -8t-33 12q-32 28 -20 67q2 9 6 17.5t7 17.5q8 19 30 15q5 -1 10 -2.5t10 -2.5q1 -1 2.5 0.5l2.5 2.5q2 4 0 6q-2 8 -8.5 10.5t-12.5 8.5z" />
    <glyph glyph-name="Agrave" unicode="&#xc0;" 
d="M449 -10q-4 4 -4.5 8.5t-0.5 9v9t-3 9.5q-5 -11 -6.5 -20t-1.5 -19q1 -28 -11 -51.5t-23 -46.5q-2 -4 -7 -4.5t-7 3.5q-5 7 -10.5 13.5t-8.5 14.5q-8 18 -14 36.5t-5 38.5q-4 -8 -2.5 -16t-3.5 -15q-5 1 -7.5 4t-4.5 7q-18 37 -26 81q-2 11 -5 13t-15 0
q-18 -3 -35.5 -5.5t-35.5 -5.5q-8 -1 -15 -1.5t-15 0.5t-11.5 -2t-6.5 -9q-3 -7 -6.5 -9t-6.5 9q0 1 -2 1t-3 -1q-4 -4 -5 -9q-9 -47 -41 -80q-4 -4 -6 -9.5t-10 -5.5q-8 -1 -13 3t-9 9q-11 14 -23 27t-19 30q-8 20 -12 40.5t-2 42.5q2 17 4.5 33.5t6.5 33.5
q26 128 74 245.5t111 229.5q3 5 6 10.5t7 10.5t8.5 9.5t12.5 6.5q6 2 12.5 4.5t11.5 7.5q6 6 19 6q19 0 35 8q11 7 24 4.5t25 -4.5q11 -2 17 -8.5t11 -14.5q2 -2 3 -4.5t3 -4.5q17 -11 23.5 -28t11.5 -35q11 -32 16.5 -65.5t8.5 -67.5q3 -32 5 -63t2 -62q2 -66 1.5 -131
t0.5 -131q0 -36 -9 -70l-4 -10zM300 326q-1 15 -2.5 39.5t-3.5 50.5q0 4 -4 4q-3 0 -5 -2t-2 -3t-1 -3q-39 -84 -66 -171q-2 -7 -4 -17q-1 -10 9 -11q16 0 31.5 -1t31.5 -7q15 -6 15 11q1 23 1 49v61zM442 346q-2 -1 -5 -1v-247q0 -4 0.5 -7t0.5 -7q0 -2 2 -2q3 -2 1.5 1
t0.5 -1v264zM339 196q1 0 2 1v141h-2v-142zM280 151q-1 1 -1 3q-8 2 -13 1q-17 -2 -33 -5t-33 -5q-4 -1 -5.5 -3t0.5 -3q5 -3 6 -2q20 3 39.5 6.5t39.5 7.5zM56 -3q2 17 2.5 35t1.5 35q0 3 -4 5t-4 -4l-4 -36t8 -35zM231 651q-1 -2 -2 -3t-1 -3l2 -2q1 2 1.5 2.5t1.5 2.5
q0 1 -1 1.5t-1 1.5zM197 623h2l1 1h-2zM229 833q-2 11 -10 15t-15 10q-7 5 -3 14q5 13 11 18t20 6q17 0 32 -4t29 -14q19 -14 35.5 -31t30.5 -36q13 -18 15 -41q2 -18 3.5 -27.5t-2 -13.5t-13.5 -3t-29 3q-23 3 -46 21q-19 15 -37.5 31t-39.5 30q-7 5 -12 16q-2 4 0 9
q4 4 9 4q5 -1 11 -2.5t11 -3.5v-1z" />
    <glyph glyph-name="Aacute" unicode="&#xc1;" 
d="M449 -10q-4 4 -4.5 8.5t-0.5 9v9t-3 9.5q-5 -11 -6.5 -20t-1.5 -19q1 -28 -11 -51.5t-23 -46.5q-2 -4 -7 -4.5t-7 3.5q-5 7 -10.5 13.5t-8.5 14.5q-8 18 -14 36.5t-5 38.5q-4 -8 -2.5 -16t-3.5 -15q-5 1 -7.5 4t-4.5 7q-18 37 -26 81q-2 11 -5 13t-15 0
q-18 -3 -35.5 -5.5t-35.5 -5.5q-8 -1 -15 -1.5t-15 0.5t-11.5 -2t-6.5 -9q-3 -7 -6.5 -9t-6.5 9q0 1 -2 1t-3 -1q-4 -4 -5 -9q-9 -47 -41 -80q-4 -4 -6 -9.5t-10 -5.5q-8 -1 -13 3t-9 9q-11 14 -23 27t-19 30q-8 20 -12 40.5t-2 42.5q2 17 4.5 33.5t6.5 33.5
q26 128 74 245.5t111 229.5q3 5 6 10.5t7 10.5t8.5 9.5t12.5 6.5q6 2 12.5 4.5t11.5 7.5q6 6 19 6q19 0 35 8q11 7 24 4.5t25 -4.5q11 -2 17 -8.5t11 -14.5q2 -2 3 -4.5t3 -4.5q17 -11 23.5 -28t11.5 -35q11 -32 16.5 -65.5t8.5 -67.5q3 -32 5 -63t2 -62q2 -66 1.5 -131
t0.5 -131q0 -36 -9 -70l-4 -10zM300 326q-1 15 -2.5 39.5t-3.5 50.5q0 4 -4 4q-3 0 -5 -2t-2 -3t-1 -3q-39 -84 -66 -171q-2 -7 -4 -17q-1 -10 9 -11q16 0 31.5 -1t31.5 -7q15 -6 15 11q1 23 1 49v61zM442 346q-2 -1 -5 -1v-247q0 -4 0.5 -7t0.5 -7q0 -2 2 -2q3 -2 1.5 1
t0.5 -1v264zM339 196q1 0 2 1v141h-2v-142zM280 151q-1 1 -1 3q-8 2 -13 1q-17 -2 -33 -5t-33 -5q-4 -1 -5.5 -3t0.5 -3q5 -3 6 -2q20 3 39.5 6.5t39.5 7.5zM56 -3q2 17 2.5 35t1.5 35q0 3 -4 5t-4 -4l-4 -36t8 -35zM231 651q-1 -2 -2 -3t-1 -3l2 -2q1 2 1.5 2.5t1.5 2.5
q0 1 -1 1.5t-1 1.5zM291 730q-13 -1 -24 16q-10 17 -7.5 32t10.5 29q17 25 38 45.5t46 37.5q6 5 14.5 7.5t16.5 4.5q12 3 25 -2.5t19 -16.5q5 -8 5.5 -16.5t-6.5 -13.5q-16 -11 -3 -23q3 -3 1.5 -6.5t-4.5 -5.5q-20 -14 -36.5 -30.5t-34.5 -32.5q-16 -14 -29.5 -19.5
t-30.5 -5.5z" />
    <glyph glyph-name="Acircumflex" unicode="&#xc2;" 
d="M449 -10q-4 4 -4.5 8.5t-0.5 9v9t-3 9.5q-5 -11 -6.5 -20t-1.5 -19q1 -28 -11 -51.5t-23 -46.5q-2 -4 -7 -4.5t-7 3.5q-5 7 -10.5 13.5t-8.5 14.5q-8 18 -14 36.5t-5 38.5q-4 -8 -2.5 -16t-3.5 -15q-5 1 -7.5 4t-4.5 7q-18 37 -26 81q-2 11 -5 13t-15 0
q-18 -3 -35.5 -5.5t-35.5 -5.5q-8 -1 -15 -1.5t-15 0.5t-11.5 -2t-6.5 -9q-3 -7 -6.5 -9t-6.5 9q0 1 -2 1t-3 -1q-4 -4 -5 -9q-9 -47 -41 -80q-4 -4 -6 -9.5t-10 -5.5q-8 -1 -13 3t-9 9q-11 14 -23 27t-19 30q-8 20 -12 40.5t-2 42.5q2 17 4.5 33.5t6.5 33.5
q26 128 74 245.5t111 229.5q3 5 6 10.5t7 10.5t8.5 9.5t12.5 6.5q6 2 12.5 4.5t11.5 7.5q6 6 19 6q19 0 35 8q11 7 24 4.5t25 -4.5q11 -2 17 -8.5t11 -14.5q2 -2 3 -4.5t3 -4.5q17 -11 23.5 -28t11.5 -35q11 -32 16.5 -65.5t8.5 -67.5q3 -32 5 -63t2 -62q2 -66 1.5 -131
t0.5 -131q0 -36 -9 -70l-4 -10zM300 326q-1 15 -2.5 39.5t-3.5 50.5q0 4 -4 4q-3 0 -5 -2t-2 -3t-1 -3q-39 -84 -66 -171q-2 -7 -4 -17q-1 -10 9 -11q16 0 31.5 -1t31.5 -7q15 -6 15 11q1 23 1 49v61zM442 346q-2 -1 -5 -1v-247q0 -4 0.5 -7t0.5 -7q0 -2 2 -2q3 -2 1.5 1
t0.5 -1v264zM339 196q1 0 2 1v141h-2v-142zM280 151q-1 1 -1 3q-8 2 -13 1q-17 -2 -33 -5t-33 -5q-4 -1 -5.5 -3t0.5 -3q5 -3 6 -2q20 3 39.5 6.5t39.5 7.5zM56 -3q2 17 2.5 35t1.5 35q0 3 -4 5t-4 -4l-4 -36t8 -35zM231 651q-1 -2 -2 -3t-1 -3l2 -2q1 2 1.5 2.5t1.5 2.5
q0 1 -1 1.5t-1 1.5zM200 754q-3 14 1.5 25.5t9.5 22.5q14 28 33 51.5t41 45.5q10 10 24 16t28.5 5.5t28.5 -8t23 -23.5q8 -13 15 -25t13 -25q5 -9 9 -19t9 -18q8 -15 10 -30.5t4 -31.5q1 -5 -1 -10l-4 -10q-6 -11 -19 -11q-37 3 -55 30q-11 17 -23 37q-4 5 -7 10t-7 10
q-3 5 -7 4.5t-7 -4.5q-8 -10 -15.5 -20t-15.5 -20q-5 -8 -9 -14.5t-9 -14.5q-8 -13 -21 -17q-9 -4 -16 1q-2 4 -5 4q-11 3 -17 5t-8.5 5.5t-2.5 9v15.5v4z" />
    <glyph glyph-name="Atilde" unicode="&#xc3;" 
d="M449 -10q-4 4 -4.5 8.5t-0.5 9v9t-3 9.5q-5 -11 -6.5 -20t-1.5 -19q1 -28 -11 -51.5t-23 -46.5q-2 -4 -7 -4.5t-7 3.5q-5 7 -10.5 13.5t-8.5 14.5q-8 18 -14 36.5t-5 38.5q-4 -8 -2.5 -16t-3.5 -15q-5 1 -7.5 4t-4.5 7q-18 37 -26 81q-2 11 -5 13t-15 0
q-18 -3 -35.5 -5.5t-35.5 -5.5q-8 -1 -15 -1.5t-15 0.5t-11.5 -2t-6.5 -9q-3 -7 -6.5 -9t-6.5 9q0 1 -2 1t-3 -1q-4 -4 -5 -9q-9 -47 -41 -80q-4 -4 -6 -9.5t-10 -5.5q-8 -1 -13 3t-9 9q-11 14 -23 27t-19 30q-8 20 -12 40.5t-2 42.5q2 17 4.5 33.5t6.5 33.5
q26 128 74 245.5t111 229.5q3 5 6 10.5t7 10.5t8.5 9.5t12.5 6.5q6 2 12.5 4.5t11.5 7.5q6 6 19 6q19 0 35 8q11 7 24 4.5t25 -4.5q11 -2 17 -8.5t11 -14.5q2 -2 3 -4.5t3 -4.5q17 -11 23.5 -28t11.5 -35q11 -32 16.5 -65.5t8.5 -67.5q3 -32 5 -63t2 -62q2 -66 1.5 -131
t0.5 -131q0 -36 -9 -70l-4 -10zM300 326q-1 15 -2.5 39.5t-3.5 50.5q0 4 -4 4q-3 0 -5 -2t-2 -3t-1 -3q-39 -84 -66 -171q-2 -7 -4 -17q-1 -10 9 -11q16 0 31.5 -1t31.5 -7q15 -6 15 11q1 23 1 49v61zM442 346q-2 -1 -5 -1v-247q0 -4 0.5 -7t0.5 -7q0 -2 2 -2q3 -2 1.5 1
t0.5 -1v264zM339 196q1 0 2 1v141h-2v-142zM280 151q-1 1 -1 3q-8 2 -13 1q-17 -2 -33 -5t-33 -5q-4 -1 -5.5 -3t0.5 -3q5 -3 6 -2q20 3 39.5 6.5t39.5 7.5zM56 -3q2 17 2.5 35t1.5 35q0 3 -4 5t-4 -4l-4 -36t8 -35zM231 651q-1 -2 -2 -3t-1 -3l2 -2q1 2 1.5 2.5t1.5 2.5
q0 1 -1 1.5t-1 1.5zM192 783q-2 22 9 37t28 26q15 10 31 8.5t31 -9.5q11 -5 21 -12.5t21 -15.5q7 -6 12.5 -9.5t11 -4t11.5 4t15 15.5q5 6 9 12.5t9 12.5q11 12 22 15q20 3 26.5 1t8.5 -25q3 -21 -5 -36l-12 -22t-13 -22q-9 -14 -22.5 -23t-28.5 -12t-31 0t-29 12
q-12 8 -24.5 17t-24.5 18q-9 6 -15 -1q-4 -3 -7 -7q-7 -14 -18.5 -12.5t-22.5 -0.5q-5 -2 -8.5 3t-5.5 10q-1 5 0 10t1 10zM358 772l3 1l-3 1v-2z" />
    <glyph glyph-name="Adieresis" unicode="&#xc4;" 
d="M449 -10q-4 4 -4.5 8.5t-0.5 9v9t-3 9.5q-5 -11 -6.5 -20t-1.5 -19q1 -28 -11 -51.5t-23 -46.5q-2 -4 -7 -4.5t-7 3.5q-5 7 -10.5 13.5t-8.5 14.5q-8 18 -14 36.5t-5 38.5q-4 -8 -2.5 -16t-3.5 -15q-5 1 -7.5 4t-4.5 7q-18 37 -26 81q-2 11 -5 13t-15 0
q-18 -3 -35.5 -5.5t-35.5 -5.5q-8 -1 -15 -1.5t-15 0.5t-11.5 -2t-6.5 -9q-3 -7 -6.5 -9t-6.5 9q0 1 -2 1t-3 -1q-4 -4 -5 -9q-9 -47 -41 -80q-4 -4 -6 -9.5t-10 -5.5q-8 -1 -13 3t-9 9q-11 14 -23 27t-19 30q-8 20 -12 40.5t-2 42.5q2 17 4.5 33.5t6.5 33.5
q26 128 74 245.5t111 229.5q3 5 6 10.5t7 10.5t8.5 9.5t12.5 6.5q6 2 12.5 4.5t11.5 7.5q6 6 19 6q19 0 35 8q11 7 24 4.5t25 -4.5q11 -2 17 -8.5t11 -14.5q2 -2 3 -4.5t3 -4.5q17 -11 23.5 -28t11.5 -35q11 -32 16.5 -65.5t8.5 -67.5q3 -32 5 -63t2 -62q2 -66 1.5 -131
t0.5 -131q0 -36 -9 -70l-4 -10zM300 326q-1 15 -2.5 39.5t-3.5 50.5q0 4 -4 4q-3 0 -5 -2t-2 -3t-1 -3q-39 -84 -66 -171q-2 -7 -4 -17q-1 -10 9 -11q16 0 31.5 -1t31.5 -7q15 -6 15 11q1 23 1 49v61zM442 346q-2 -1 -5 -1v-247q0 -4 0.5 -7t0.5 -7q0 -2 2 -2q3 -2 1.5 1
t0.5 -1v264zM339 196q1 0 2 1v141h-2v-142zM280 151q-1 1 -1 3q-8 2 -13 1q-17 -2 -33 -5t-33 -5q-4 -1 -5.5 -3t0.5 -3q5 -3 6 -2q20 3 39.5 6.5t39.5 7.5zM56 -3q2 17 2.5 35t1.5 35q0 3 -4 5t-4 -4l-4 -36t8 -35zM231 651q-1 -2 -2 -3t-1 -3l2 -2q1 2 1.5 2.5t1.5 2.5
q0 1 -1 1.5t-1 1.5zM236 872q19 4 28 -7q8 -13 24 -16q13 -2 19.5 -11t8.5 -20q8 -32 -5 -55.5t-38 -34.5q-14 -7 -31 -8t-33 12q-32 28 -20 67q2 9 6 17.5t7 17.5q8 19 30 15q5 -1 10 -2.5t10 -2.5q1 -1 2.5 0.5l2.5 2.5q2 4 0 6q-2 8 -8.5 10.5t-12.5 8.5zM376 872
q19 4 28 -7q8 -13 24 -16q13 -2 19.5 -11t8.5 -20q8 -32 -5 -55.5t-38 -34.5q-14 -7 -31 -8t-33 12q-32 28 -20 67q2 9 6 17.5t7 17.5q8 19 30 15q5 -1 10 -2.5t10 -2.5q1 -1 2.5 0.5l2.5 2.5q2 4 0 6q-2 8 -8.5 10.5t-12.5 8.5z" />
    <glyph glyph-name="Aring" unicode="&#xc5;" 
d="M449 -10q-4 4 -4.5 8.5t-0.5 9v9t-3 9.5q-5 -11 -6.5 -20t-1.5 -19q1 -28 -11 -51.5t-23 -46.5q-2 -4 -7 -4.5t-7 3.5q-5 7 -10.5 13.5t-8.5 14.5q-8 18 -14 36.5t-5 38.5q-4 -8 -2.5 -16t-3.5 -15q-5 1 -7.5 4t-4.5 7q-18 37 -26 81q-2 11 -5 13t-15 0
q-18 -3 -35.5 -5.5t-35.5 -5.5q-8 -1 -15 -1.5t-15 0.5t-11.5 -2t-6.5 -9q-3 -7 -6.5 -9t-6.5 9q0 1 -2 1t-3 -1q-4 -4 -5 -9q-9 -47 -41 -80q-4 -4 -6 -9.5t-10 -5.5q-8 -1 -13 3t-9 9q-11 14 -23 27t-19 30q-8 20 -12 40.5t-2 42.5q2 17 4.5 33.5t6.5 33.5
q26 128 74 245.5t111 229.5q3 5 6 10.5t7 10.5t8.5 9.5t12.5 6.5q6 2 12.5 4.5t11.5 7.5q6 6 19 6q19 0 35 8q11 7 24 4.5t25 -4.5q11 -2 17 -8.5t11 -14.5q2 -2 3 -4.5t3 -4.5q17 -11 23.5 -28t11.5 -35q11 -32 16.5 -65.5t8.5 -67.5q3 -32 5 -63t2 -62q2 -66 1.5 -131
t0.5 -131q0 -36 -9 -70l-4 -10zM300 326q-1 15 -2.5 39.5t-3.5 50.5q0 4 -4 4q-3 0 -5 -2t-2 -3t-1 -3q-39 -84 -66 -171q-2 -7 -4 -17q-1 -10 9 -11q16 0 31.5 -1t31.5 -7q15 -6 15 11q1 23 1 49v61zM442 346q-2 -1 -5 -1v-247q0 -4 0.5 -7t0.5 -7q0 -2 2 -2q3 -2 1.5 1
t0.5 -1v264zM339 196q1 0 2 1v141h-2v-142zM280 151q-1 1 -1 3q-8 2 -13 1q-17 -2 -33 -5t-33 -5q-4 -1 -5.5 -3t0.5 -3q5 -3 6 -2q20 3 39.5 6.5t39.5 7.5zM56 -3q2 17 2.5 35t1.5 35q0 3 -4 5t-4 -4l-4 -36t8 -35zM231 651q-1 -2 -2 -3t-1 -3l2 -2q1 2 1.5 2.5t1.5 2.5
q0 1 -1 1.5t-1 1.5zM437 830q-4 -34 -19.5 -60t-47.5 -42q-19 -10 -39 -7.5t-36.5 12.5t-26.5 26.5t-9 35.5q1 20 2.5 40t11.5 39q7 14 16.5 25.5t25.5 16.5q7 2 12.5 5.5t11.5 6.5q28 16 54 -2q17 -12 27.5 -27.5t12.5 -36.5l2 -16zM332 753l1 2l-2 -1h9l-2 2zM318 804
v-3.5t1 -4.5q2 -12 11.5 -15.5t19.5 4.5q6 5 10 11t8 13q9 13 7.5 25.5t-10.5 24.5q-9 10 -21 3q-11 -6 -15 -17q-8 -16 -11 -41zM284 766v-4q1 1 1 2t-1 2z" />
    <glyph glyph-name="agrave" unicode="&#xe0;" 
d="M449 -10q-4 4 -4.5 8.5t-0.5 9v9t-3 9.5q-5 -11 -6.5 -20t-1.5 -19q1 -28 -11 -51.5t-23 -46.5q-2 -4 -7 -4.5t-7 3.5q-5 7 -10.5 13.5t-8.5 14.5q-8 18 -14 36.5t-5 38.5q-4 -8 -2.5 -16t-3.5 -15q-5 1 -7.5 4t-4.5 7q-18 37 -26 81q-2 11 -5 13t-15 0
q-18 -3 -35.5 -5.5t-35.5 -5.5q-8 -1 -15 -1.5t-15 0.5t-11.5 -2t-6.5 -9q-3 -7 -6.5 -9t-6.5 9q0 1 -2 1t-3 -1q-4 -4 -5 -9q-9 -47 -41 -80q-4 -4 -6 -9.5t-10 -5.5q-8 -1 -13 3t-9 9q-11 14 -23 27t-19 30q-8 20 -12 40.5t-2 42.5q2 17 4.5 33.5t6.5 33.5
q26 128 74 245.5t111 229.5q3 5 6 10.5t7 10.5t8.5 9.5t12.5 6.5q6 2 12.5 4.5t11.5 7.5q6 6 19 6q19 0 35 8q11 7 24 4.5t25 -4.5q11 -2 17 -8.5t11 -14.5q2 -2 3 -4.5t3 -4.5q17 -11 23.5 -28t11.5 -35q11 -32 16.5 -65.5t8.5 -67.5q3 -32 5 -63t2 -62q2 -66 1.5 -131
t0.5 -131q0 -36 -9 -70l-4 -10zM300 326q-1 15 -2.5 39.5t-3.5 50.5q0 4 -4 4q-3 0 -5 -2t-2 -3t-1 -3q-39 -84 -66 -171q-2 -7 -4 -17q-1 -10 9 -11q16 0 31.5 -1t31.5 -7q15 -6 15 11q1 23 1 49v61zM442 346q-2 -1 -5 -1v-247q0 -4 0.5 -7t0.5 -7q0 -2 2 -2q3 -2 1.5 1
t0.5 -1v264zM339 196q1 0 2 1v141h-2v-142zM280 151q-1 1 -1 3q-8 2 -13 1q-17 -2 -33 -5t-33 -5q-4 -1 -5.5 -3t0.5 -3q5 -3 6 -2q20 3 39.5 6.5t39.5 7.5zM56 -3q2 17 2.5 35t1.5 35q0 3 -4 5t-4 -4l-4 -36t8 -35zM231 651q-1 -2 -2 -3t-1 -3l2 -2q1 2 1.5 2.5t1.5 2.5
q0 1 -1 1.5t-1 1.5zM197 623h2l1 1h-2zM229 833q-2 11 -10 15t-15 10q-7 5 -3 14q5 13 11 18t20 6q17 0 32 -4t29 -14q19 -14 35.5 -31t30.5 -36q13 -18 15 -41q2 -18 3.5 -27.5t-2 -13.5t-13.5 -3t-29 3q-23 3 -46 21q-19 15 -37.5 31t-39.5 30q-7 5 -12 16q-2 4 0 9
q4 4 9 4q5 -1 11 -2.5t11 -3.5v-1z" />
    <glyph glyph-name="aacute" unicode="&#xe1;" 
d="M449 -10q-4 4 -4.5 8.5t-0.5 9v9t-3 9.5q-5 -11 -6.5 -20t-1.5 -19q1 -28 -11 -51.5t-23 -46.5q-2 -4 -7 -4.5t-7 3.5q-5 7 -10.5 13.5t-8.5 14.5q-8 18 -14 36.5t-5 38.5q-4 -8 -2.5 -16t-3.5 -15q-5 1 -7.5 4t-4.5 7q-18 37 -26 81q-2 11 -5 13t-15 0
q-18 -3 -35.5 -5.5t-35.5 -5.5q-8 -1 -15 -1.5t-15 0.5t-11.5 -2t-6.5 -9q-3 -7 -6.5 -9t-6.5 9q0 1 -2 1t-3 -1q-4 -4 -5 -9q-9 -47 -41 -80q-4 -4 -6 -9.5t-10 -5.5q-8 -1 -13 3t-9 9q-11 14 -23 27t-19 30q-8 20 -12 40.5t-2 42.5q2 17 4.5 33.5t6.5 33.5
q26 128 74 245.5t111 229.5q3 5 6 10.5t7 10.5t8.5 9.5t12.5 6.5q6 2 12.5 4.5t11.5 7.5q6 6 19 6q19 0 35 8q11 7 24 4.5t25 -4.5q11 -2 17 -8.5t11 -14.5q2 -2 3 -4.5t3 -4.5q17 -11 23.5 -28t11.5 -35q11 -32 16.5 -65.5t8.5 -67.5q3 -32 5 -63t2 -62q2 -66 1.5 -131
t0.5 -131q0 -36 -9 -70l-4 -10zM300 326q-1 15 -2.5 39.5t-3.5 50.5q0 4 -4 4q-3 0 -5 -2t-2 -3t-1 -3q-39 -84 -66 -171q-2 -7 -4 -17q-1 -10 9 -11q16 0 31.5 -1t31.5 -7q15 -6 15 11q1 23 1 49v61zM442 346q-2 -1 -5 -1v-247q0 -4 0.5 -7t0.5 -7q0 -2 2 -2q3 -2 1.5 1
t0.5 -1v264zM339 196q1 0 2 1v141h-2v-142zM280 151q-1 1 -1 3q-8 2 -13 1q-17 -2 -33 -5t-33 -5q-4 -1 -5.5 -3t0.5 -3q5 -3 6 -2q20 3 39.5 6.5t39.5 7.5zM56 -3q2 17 2.5 35t1.5 35q0 3 -4 5t-4 -4l-4 -36t8 -35zM231 651q-1 -2 -2 -3t-1 -3l2 -2q1 2 1.5 2.5t1.5 2.5
q0 1 -1 1.5t-1 1.5zM291 730q-13 -1 -24 16q-10 17 -7.5 32t10.5 29q17 25 38 45.5t46 37.5q6 5 14.5 7.5t16.5 4.5q12 3 25 -2.5t19 -16.5q5 -8 5.5 -16.5t-6.5 -13.5q-16 -11 -3 -23q3 -3 1.5 -6.5t-4.5 -5.5q-20 -14 -36.5 -30.5t-34.5 -32.5q-16 -14 -29.5 -19.5
t-30.5 -5.5z" />
    <glyph glyph-name="acircumflex" unicode="&#xe2;" 
d="M449 -10q-4 4 -4.5 8.5t-0.5 9v9t-3 9.5q-5 -11 -6.5 -20t-1.5 -19q1 -28 -11 -51.5t-23 -46.5q-2 -4 -7 -4.5t-7 3.5q-5 7 -10.5 13.5t-8.5 14.5q-8 18 -14 36.5t-5 38.5q-4 -8 -2.5 -16t-3.5 -15q-5 1 -7.5 4t-4.5 7q-18 37 -26 81q-2 11 -5 13t-15 0
q-18 -3 -35.5 -5.5t-35.5 -5.5q-8 -1 -15 -1.5t-15 0.5t-11.5 -2t-6.5 -9q-3 -7 -6.5 -9t-6.5 9q0 1 -2 1t-3 -1q-4 -4 -5 -9q-9 -47 -41 -80q-4 -4 -6 -9.5t-10 -5.5q-8 -1 -13 3t-9 9q-11 14 -23 27t-19 30q-8 20 -12 40.5t-2 42.5q2 17 4.5 33.5t6.5 33.5
q26 128 74 245.5t111 229.5q3 5 6 10.5t7 10.5t8.5 9.5t12.5 6.5q6 2 12.5 4.5t11.5 7.5q6 6 19 6q19 0 35 8q11 7 24 4.5t25 -4.5q11 -2 17 -8.5t11 -14.5q2 -2 3 -4.5t3 -4.5q17 -11 23.5 -28t11.5 -35q11 -32 16.5 -65.5t8.5 -67.5q3 -32 5 -63t2 -62q2 -66 1.5 -131
t0.5 -131q0 -36 -9 -70l-4 -10zM300 326q-1 15 -2.5 39.5t-3.5 50.5q0 4 -4 4q-3 0 -5 -2t-2 -3t-1 -3q-39 -84 -66 -171q-2 -7 -4 -17q-1 -10 9 -11q16 0 31.5 -1t31.5 -7q15 -6 15 11q1 23 1 49v61zM442 346q-2 -1 -5 -1v-247q0 -4 0.5 -7t0.5 -7q0 -2 2 -2q3 -2 1.5 1
t0.5 -1v264zM339 196q1 0 2 1v141h-2v-142zM280 151q-1 1 -1 3q-8 2 -13 1q-17 -2 -33 -5t-33 -5q-4 -1 -5.5 -3t0.5 -3q5 -3 6 -2q20 3 39.5 6.5t39.5 7.5zM56 -3q2 17 2.5 35t1.5 35q0 3 -4 5t-4 -4l-4 -36t8 -35zM231 651q-1 -2 -2 -3t-1 -3l2 -2q1 2 1.5 2.5t1.5 2.5
q0 1 -1 1.5t-1 1.5zM200 754q-3 14 1.5 25.5t9.5 22.5q14 28 33 51.5t41 45.5q10 10 24 16t28.5 5.5t28.5 -8t23 -23.5q8 -13 15 -25t13 -25q5 -9 9 -19t9 -18q8 -15 10 -30.5t4 -31.5q1 -5 -1 -10l-4 -10q-6 -11 -19 -11q-37 3 -55 30q-11 17 -23 37q-4 5 -7 10t-7 10
q-3 5 -7 4.5t-7 -4.5q-8 -10 -15.5 -20t-15.5 -20q-5 -8 -9 -14.5t-9 -14.5q-8 -13 -21 -17q-9 -4 -16 1q-2 4 -5 4q-11 3 -17 5t-8.5 5.5t-2.5 9v15.5v4z" />
    <glyph glyph-name="atilde" unicode="&#xe3;" 
d="M449 -10q-4 4 -4.5 8.5t-0.5 9v9t-3 9.5q-5 -11 -6.5 -20t-1.5 -19q1 -28 -11 -51.5t-23 -46.5q-2 -4 -7 -4.5t-7 3.5q-5 7 -10.5 13.5t-8.5 14.5q-8 18 -14 36.5t-5 38.5q-4 -8 -2.5 -16t-3.5 -15q-5 1 -7.5 4t-4.5 7q-18 37 -26 81q-2 11 -5 13t-15 0
q-18 -3 -35.5 -5.5t-35.5 -5.5q-8 -1 -15 -1.5t-15 0.5t-11.5 -2t-6.5 -9q-3 -7 -6.5 -9t-6.5 9q0 1 -2 1t-3 -1q-4 -4 -5 -9q-9 -47 -41 -80q-4 -4 -6 -9.5t-10 -5.5q-8 -1 -13 3t-9 9q-11 14 -23 27t-19 30q-8 20 -12 40.5t-2 42.5q2 17 4.5 33.5t6.5 33.5
q26 128 74 245.5t111 229.5q3 5 6 10.5t7 10.5t8.5 9.5t12.5 6.5q6 2 12.5 4.5t11.5 7.5q6 6 19 6q19 0 35 8q11 7 24 4.5t25 -4.5q11 -2 17 -8.5t11 -14.5q2 -2 3 -4.5t3 -4.5q17 -11 23.5 -28t11.5 -35q11 -32 16.5 -65.5t8.5 -67.5q3 -32 5 -63t2 -62q2 -66 1.5 -131
t0.5 -131q0 -36 -9 -70l-4 -10zM300 326q-1 15 -2.5 39.5t-3.5 50.5q0 4 -4 4q-3 0 -5 -2t-2 -3t-1 -3q-39 -84 -66 -171q-2 -7 -4 -17q-1 -10 9 -11q16 0 31.5 -1t31.5 -7q15 -6 15 11q1 23 1 49v61zM442 346q-2 -1 -5 -1v-247q0 -4 0.5 -7t0.5 -7q0 -2 2 -2q3 -2 1.5 1
t0.5 -1v264zM339 196q1 0 2 1v141h-2v-142zM280 151q-1 1 -1 3q-8 2 -13 1q-17 -2 -33 -5t-33 -5q-4 -1 -5.5 -3t0.5 -3q5 -3 6 -2q20 3 39.5 6.5t39.5 7.5zM56 -3q2 17 2.5 35t1.5 35q0 3 -4 5t-4 -4l-4 -36t8 -35zM231 651q-1 -2 -2 -3t-1 -3l2 -2q1 2 1.5 2.5t1.5 2.5
q0 1 -1 1.5t-1 1.5zM192 783q-2 22 9 37t28 26q15 10 31 8.5t31 -9.5q11 -5 21 -12.5t21 -15.5q7 -6 12.5 -9.5t11 -4t11.5 4t15 15.5q5 6 9 12.5t9 12.5q11 12 22 15q20 3 26.5 1t8.5 -25q3 -21 -5 -36l-12 -22t-13 -22q-9 -14 -22.5 -23t-28.5 -12t-31 0t-29 12
q-12 8 -24.5 17t-24.5 18q-9 6 -15 -1q-4 -3 -7 -7q-7 -14 -18.5 -12.5t-22.5 -0.5q-5 -2 -8.5 3t-5.5 10q-1 5 0 10t1 10zM358 772l3 1l-3 1v-2z" />
    <glyph glyph-name="adieresis" unicode="&#xe4;" 
d="M449 -10q-4 4 -4.5 8.5t-0.5 9v9t-3 9.5q-5 -11 -6.5 -20t-1.5 -19q1 -28 -11 -51.5t-23 -46.5q-2 -4 -7 -4.5t-7 3.5q-5 7 -10.5 13.5t-8.5 14.5q-8 18 -14 36.5t-5 38.5q-4 -8 -2.5 -16t-3.5 -15q-5 1 -7.5 4t-4.5 7q-18 37 -26 81q-2 11 -5 13t-15 0
q-18 -3 -35.5 -5.5t-35.5 -5.5q-8 -1 -15 -1.5t-15 0.5t-11.5 -2t-6.5 -9q-3 -7 -6.5 -9t-6.5 9q0 1 -2 1t-3 -1q-4 -4 -5 -9q-9 -47 -41 -80q-4 -4 -6 -9.5t-10 -5.5q-8 -1 -13 3t-9 9q-11 14 -23 27t-19 30q-8 20 -12 40.5t-2 42.5q2 17 4.5 33.5t6.5 33.5
q26 128 74 245.5t111 229.5q3 5 6 10.5t7 10.5t8.5 9.5t12.5 6.5q6 2 12.5 4.5t11.5 7.5q6 6 19 6q19 0 35 8q11 7 24 4.5t25 -4.5q11 -2 17 -8.5t11 -14.5q2 -2 3 -4.5t3 -4.5q17 -11 23.5 -28t11.5 -35q11 -32 16.5 -65.5t8.5 -67.5q3 -32 5 -63t2 -62q2 -66 1.5 -131
t0.5 -131q0 -36 -9 -70l-4 -10zM300 326q-1 15 -2.5 39.5t-3.5 50.5q0 4 -4 4q-3 0 -5 -2t-2 -3t-1 -3q-39 -84 -66 -171q-2 -7 -4 -17q-1 -10 9 -11q16 0 31.5 -1t31.5 -7q15 -6 15 11q1 23 1 49v61zM442 346q-2 -1 -5 -1v-247q0 -4 0.5 -7t0.5 -7q0 -2 2 -2q3 -2 1.5 1
t0.5 -1v264zM339 196q1 0 2 1v141h-2v-142zM280 151q-1 1 -1 3q-8 2 -13 1q-17 -2 -33 -5t-33 -5q-4 -1 -5.5 -3t0.5 -3q5 -3 6 -2q20 3 39.5 6.5t39.5 7.5zM56 -3q2 17 2.5 35t1.5 35q0 3 -4 5t-4 -4l-4 -36t8 -35zM231 651q-1 -2 -2 -3t-1 -3l2 -2q1 2 1.5 2.5t1.5 2.5
q0 1 -1 1.5t-1 1.5zM236 872q19 4 28 -7q8 -13 24 -16q13 -2 19.5 -11t8.5 -20q8 -32 -5 -55.5t-38 -34.5q-14 -7 -31 -8t-33 12q-32 28 -20 67q2 9 6 17.5t7 17.5q8 19 30 15q5 -1 10 -2.5t10 -2.5q1 -1 2.5 0.5l2.5 2.5q2 4 0 6q-2 8 -8.5 10.5t-12.5 8.5zM376 872
q19 4 28 -7q8 -13 24 -16q13 -2 19.5 -11t8.5 -20q8 -32 -5 -55.5t-38 -34.5q-14 -7 -31 -8t-33 12q-32 28 -20 67q2 9 6 17.5t7 17.5q8 19 30 15q5 -1 10 -2.5t10 -2.5q1 -1 2.5 0.5l2.5 2.5q2 4 0 6q-2 8 -8.5 10.5t-12.5 8.5z" />
    <glyph glyph-name="aring" unicode="&#xe5;" 
d="M449 -10q-4 4 -4.5 8.5t-0.5 9v9t-3 9.5q-5 -11 -6.5 -20t-1.5 -19q1 -28 -11 -51.5t-23 -46.5q-2 -4 -7 -4.5t-7 3.5q-5 7 -10.5 13.5t-8.5 14.5q-8 18 -14 36.5t-5 38.5q-4 -8 -2.5 -16t-3.5 -15q-5 1 -7.5 4t-4.5 7q-18 37 -26 81q-2 11 -5 13t-15 0
q-18 -3 -35.5 -5.5t-35.5 -5.5q-8 -1 -15 -1.5t-15 0.5t-11.5 -2t-6.5 -9q-3 -7 -6.5 -9t-6.5 9q0 1 -2 1t-3 -1q-4 -4 -5 -9q-9 -47 -41 -80q-4 -4 -6 -9.5t-10 -5.5q-8 -1 -13 3t-9 9q-11 14 -23 27t-19 30q-8 20 -12 40.5t-2 42.5q2 17 4.5 33.5t6.5 33.5
q26 128 74 245.5t111 229.5q3 5 6 10.5t7 10.5t8.5 9.5t12.5 6.5q6 2 12.5 4.5t11.5 7.5q6 6 19 6q19 0 35 8q11 7 24 4.5t25 -4.5q11 -2 17 -8.5t11 -14.5q2 -2 3 -4.5t3 -4.5q17 -11 23.5 -28t11.5 -35q11 -32 16.5 -65.5t8.5 -67.5q3 -32 5 -63t2 -62q2 -66 1.5 -131
t0.5 -131q0 -36 -9 -70l-4 -10zM300 326q-1 15 -2.5 39.5t-3.5 50.5q0 4 -4 4q-3 0 -5 -2t-2 -3t-1 -3q-39 -84 -66 -171q-2 -7 -4 -17q-1 -10 9 -11q16 0 31.5 -1t31.5 -7q15 -6 15 11q1 23 1 49v61zM442 346q-2 -1 -5 -1v-247q0 -4 0.5 -7t0.5 -7q0 -2 2 -2q3 -2 1.5 1
t0.5 -1v264zM339 196q1 0 2 1v141h-2v-142zM280 151q-1 1 -1 3q-8 2 -13 1q-17 -2 -33 -5t-33 -5q-4 -1 -5.5 -3t0.5 -3q5 -3 6 -2q20 3 39.5 6.5t39.5 7.5zM56 -3q2 17 2.5 35t1.5 35q0 3 -4 5t-4 -4l-4 -36t8 -35zM231 651q-1 -2 -2 -3t-1 -3l2 -2q1 2 1.5 2.5t1.5 2.5
q0 1 -1 1.5t-1 1.5zM437 830q-4 -34 -19.5 -60t-47.5 -42q-19 -10 -39 -7.5t-36.5 12.5t-26.5 26.5t-9 35.5q1 20 2.5 40t11.5 39q7 14 16.5 25.5t25.5 16.5q7 2 12.5 5.5t11.5 6.5q28 16 54 -2q17 -12 27.5 -27.5t12.5 -36.5l2 -16zM332 753l1 2l-2 -1h9l-2 2zM318 804
v-3.5t1 -4.5q2 -12 11.5 -15.5t19.5 4.5q6 5 10 11t8 13q9 13 7.5 25.5t-10.5 24.5q-9 10 -21 3q-11 -6 -15 -17q-8 -16 -11 -41zM284 766v-4q1 1 1 2t-1 2z" />
    <glyph glyph-name="Egrave" unicode="&#xc8;" horiz-adv-x="506" 
d="M163 640q8 10 9 14q8 16 13 19t18 -6q13 -8 25.5 -10t26.5 0q53 6 104 9q57 3 108 -25q2 -1 4 -3l5 -5q-50 5 -97 0t-93 -15q25 1 49 -3t50 1q8 1 15 0t15 -1l36 -2t36 -1q15 -1 28.5 -7t22.5 -20q6 -8 4.5 -12.5t-9.5 -8.5q-28 -13 -57 -18t-59 -7q-39 -3 -78.5 -6.5
t-79.5 -11.5q-4 -1 -12 -5q-1 -1 -4 -6q3 -3 5 -3h14q38 5 76 8.5t76 7.5q5 0 11.5 1t13.5 -3q-13 -10 -35 -17q-15 -4 -30 -5t-30 -3q-25 -2 -48.5 -5t-46.5 -6q-19 -2 -20 -18q-1 -4 -2.5 -7t-1.5 -7q-1 -13 -6.5 -25t-0.5 -26q14 -4 26 -2l24 4q40 5 77 -1t73 -22l36 -14
t38 -21q-60 2 -116 -5t-117 -15q15 -5 25 -4.5t19 2.5q44 4 87 7.5t87 1.5h6.5t6.5 -1q6 0 9 -3q2 -4 -1 -6t-5 -4q-20 -13 -40.5 -25.5t-41.5 -23.5q-14 -8 -29 -13t-32 -7q-39 -5 -77.5 -8.5t-77.5 -7.5q-13 -4 -13 -13q-5 -40 -5.5 -79.5t5.5 -79.5q1 -9 5.5 -12t13.5 -2
q6 2 12 2t11 2q29 6 56.5 7t55.5 3q8 1 15 0.5t15 -1.5q14 -3 27 -1t27 7q9 4 18.5 7t19.5 6q6 2 10 -2t2 -10q-14 -34 -33.5 -64.5t-50.5 -52.5q-3 -3 -6.5 -5t-6.5 -6q-15 -22 -37 -32t-45 -16q-78 -21 -156 -6q-21 4 -37.5 14.5t-30.5 26.5q-34 39 -47 84t-14 95
q-2 66 5 130t20 127q12 60 27 120q2 8 1.5 14.5t-7.5 13.5q-5 7 -9 14.5t-3 16.5q2 16 8 27t23 16q6 2 8 5.5t-4 8.5q-5 5 1 11q10 10 21 18q16 8 16 23q2 10 11 12q6 1 11 4.5t10 5.5q14 7 15 -8q1 -5 1 -10.5t2 -14.5zM317 -78q-1 2 2 3t1 3q0 -2 -1 -2.5t-1 -2.5l-1 1v-2
zM212 -89q2 -1 2 -3t3 0q-2 1 -3 1t-2 1q8 10 19 2q4 0 6 1q0 1 1 2q-3 1 -4.5 -0.5l-3.5 -3.5q-1 3 -1.5 6.5t-4.5 4.5q-7 1 -13.5 2t-13.5 1q-5 0 -9.5 1t-8.5 -4q-2 -3 3.5 -6.5t13.5 -4.5q4 0 8 0.5t8 -0.5zM98 208q-5 -14 -8 -29.5t4 -35.5q2 19 2.5 34.5t1.5 30.5z
M235 320q0 2 -1 2q-7 2 -14 3.5t-14 3.5q-5 2 -7 -4q0 -6 6 -7q8 1 15 1t15 1zM120 -84q-2 2 -2.5 4t-2.5 4q-1 2 -3 3t-4 -1t-2 -4t2 -4q4 -4 7 -6l2 2q1 1 1.5 1t1.5 1zM200 17q2 -4 8 -2h3q0 5 -6 5q-2 0 -2.5 -1t-2.5 -2zM262 -84v2l-3 1zM159 617h2l1 1h-2zM191 827
q-2 11 -10 15t-15 10q-7 5 -3 14q5 13 11 18t20 6q17 0 32 -4t29 -14q19 -14 35.5 -31t30.5 -36q13 -18 15 -41q2 -18 3.5 -27.5t-2 -13.5t-13.5 -3t-29 3q-23 3 -46 21q-19 15 -37.5 31t-39.5 30q-7 5 -12 16q-2 4 0 9q4 4 9 4q5 -1 11 -2.5t11 -3.5v-1z" />
    <glyph glyph-name="Eacute" unicode="&#xc9;" horiz-adv-x="506" 
d="M163 640q8 10 9 14q8 16 13 19t18 -6q13 -8 25.5 -10t26.5 0q53 6 104 9q57 3 108 -25q2 -1 4 -3l5 -5q-50 5 -97 0t-93 -15q25 1 49 -3t50 1q8 1 15 0t15 -1l36 -2t36 -1q15 -1 28.5 -7t22.5 -20q6 -8 4.5 -12.5t-9.5 -8.5q-28 -13 -57 -18t-59 -7q-39 -3 -78.5 -6.5
t-79.5 -11.5q-4 -1 -12 -5q-1 -1 -4 -6q3 -3 5 -3h14q38 5 76 8.5t76 7.5q5 0 11.5 1t13.5 -3q-13 -10 -35 -17q-15 -4 -30 -5t-30 -3q-25 -2 -48.5 -5t-46.5 -6q-19 -2 -20 -18q-1 -4 -2.5 -7t-1.5 -7q-1 -13 -6.5 -25t-0.5 -26q14 -4 26 -2l24 4q40 5 77 -1t73 -22l36 -14
t38 -21q-60 2 -116 -5t-117 -15q15 -5 25 -4.5t19 2.5q44 4 87 7.5t87 1.5h6.5t6.5 -1q6 0 9 -3q2 -4 -1 -6t-5 -4q-20 -13 -40.5 -25.5t-41.5 -23.5q-14 -8 -29 -13t-32 -7q-39 -5 -77.5 -8.5t-77.5 -7.5q-13 -4 -13 -13q-5 -40 -5.5 -79.5t5.5 -79.5q1 -9 5.5 -12t13.5 -2
q6 2 12 2t11 2q29 6 56.5 7t55.5 3q8 1 15 0.5t15 -1.5q14 -3 27 -1t27 7q9 4 18.5 7t19.5 6q6 2 10 -2t2 -10q-14 -34 -33.5 -64.5t-50.5 -52.5q-3 -3 -6.5 -5t-6.5 -6q-15 -22 -37 -32t-45 -16q-78 -21 -156 -6q-21 4 -37.5 14.5t-30.5 26.5q-34 39 -47 84t-14 95
q-2 66 5 130t20 127q12 60 27 120q2 8 1.5 14.5t-7.5 13.5q-5 7 -9 14.5t-3 16.5q2 16 8 27t23 16q6 2 8 5.5t-4 8.5q-5 5 1 11q10 10 21 18q16 8 16 23q2 10 11 12q6 1 11 4.5t10 5.5q14 7 15 -8q1 -5 1 -10.5t2 -14.5zM317 -78q-1 2 2 3t1 3q0 -2 -1 -2.5t-1 -2.5l-1 1v-2
zM212 -89q2 -1 2 -3t3 0q-2 1 -3 1t-2 1q8 10 19 2q4 0 6 1q0 1 1 2q-3 1 -4.5 -0.5l-3.5 -3.5q-1 3 -1.5 6.5t-4.5 4.5q-7 1 -13.5 2t-13.5 1q-5 0 -9.5 1t-8.5 -4q-2 -3 3.5 -6.5t13.5 -4.5q4 0 8 0.5t8 -0.5zM98 208q-5 -14 -8 -29.5t4 -35.5q2 19 2.5 34.5t1.5 30.5z
M235 320q0 2 -1 2q-7 2 -14 3.5t-14 3.5q-5 2 -7 -4q0 -6 6 -7q8 1 15 1t15 1zM120 -84q-2 2 -2.5 4t-2.5 4q-1 2 -3 3t-4 -1t-2 -4t2 -4q4 -4 7 -6l2 2q1 1 1.5 1t1.5 1zM200 17q2 -4 8 -2h3q0 5 -6 5q-2 0 -2.5 -1t-2.5 -2zM262 -84v2l-3 1zM198 726q-13 -1 -24 16
q-10 17 -7.5 32t10.5 29q17 25 38 45.5t46 37.5q6 5 14.5 7.5t16.5 4.5q12 3 25 -2.5t19 -16.5q5 -8 5.5 -16.5t-6.5 -13.5q-16 -11 -3 -23q3 -3 1.5 -6.5t-4.5 -5.5q-20 -14 -36.5 -30.5t-34.5 -32.5q-16 -14 -29.5 -19.5t-30.5 -5.5z" />
    <glyph glyph-name="Ecircumflex" unicode="&#xca;" horiz-adv-x="506" 
d="M163 640q8 10 9 14q8 16 13 19t18 -6q13 -8 25.5 -10t26.5 0q53 6 104 9q57 3 108 -25q2 -1 4 -3l5 -5q-50 5 -97 0t-93 -15q25 1 49 -3t50 1q8 1 15 0t15 -1l36 -2t36 -1q15 -1 28.5 -7t22.5 -20q6 -8 4.5 -12.5t-9.5 -8.5q-28 -13 -57 -18t-59 -7q-39 -3 -78.5 -6.5
t-79.5 -11.5q-4 -1 -12 -5q-1 -1 -4 -6q3 -3 5 -3h14q38 5 76 8.5t76 7.5q5 0 11.5 1t13.5 -3q-13 -10 -35 -17q-15 -4 -30 -5t-30 -3q-25 -2 -48.5 -5t-46.5 -6q-19 -2 -20 -18q-1 -4 -2.5 -7t-1.5 -7q-1 -13 -6.5 -25t-0.5 -26q14 -4 26 -2l24 4q40 5 77 -1t73 -22l36 -14
t38 -21q-60 2 -116 -5t-117 -15q15 -5 25 -4.5t19 2.5q44 4 87 7.5t87 1.5h6.5t6.5 -1q6 0 9 -3q2 -4 -1 -6t-5 -4q-20 -13 -40.5 -25.5t-41.5 -23.5q-14 -8 -29 -13t-32 -7q-39 -5 -77.5 -8.5t-77.5 -7.5q-13 -4 -13 -13q-5 -40 -5.5 -79.5t5.5 -79.5q1 -9 5.5 -12t13.5 -2
q6 2 12 2t11 2q29 6 56.5 7t55.5 3q8 1 15 0.5t15 -1.5q14 -3 27 -1t27 7q9 4 18.5 7t19.5 6q6 2 10 -2t2 -10q-14 -34 -33.5 -64.5t-50.5 -52.5q-3 -3 -6.5 -5t-6.5 -6q-15 -22 -37 -32t-45 -16q-78 -21 -156 -6q-21 4 -37.5 14.5t-30.5 26.5q-34 39 -47 84t-14 95
q-2 66 5 130t20 127q12 60 27 120q2 8 1.5 14.5t-7.5 13.5q-5 7 -9 14.5t-3 16.5q2 16 8 27t23 16q6 2 8 5.5t-4 8.5q-5 5 1 11q10 10 21 18q16 8 16 23q2 10 11 12q6 1 11 4.5t10 5.5q14 7 15 -8q1 -5 1 -10.5t2 -14.5zM317 -78q-1 2 2 3t1 3q0 -2 -1 -2.5t-1 -2.5l-1 1v-2
zM212 -89q2 -1 2 -3t3 0q-2 1 -3 1t-2 1q8 10 19 2q4 0 6 1q0 1 1 2q-3 1 -4.5 -0.5l-3.5 -3.5q-1 3 -1.5 6.5t-4.5 4.5q-7 1 -13.5 2t-13.5 1q-5 0 -9.5 1t-8.5 -4q-2 -3 3.5 -6.5t13.5 -4.5q4 0 8 0.5t8 -0.5zM98 208q-5 -14 -8 -29.5t4 -35.5q2 19 2.5 34.5t1.5 30.5z
M235 320q0 2 -1 2q-7 2 -14 3.5t-14 3.5q-5 2 -7 -4q0 -6 6 -7q8 1 15 1t15 1zM120 -84q-2 2 -2.5 4t-2.5 4q-1 2 -3 3t-4 -1t-2 -4t2 -4q4 -4 7 -6l2 2q1 1 1.5 1t1.5 1zM200 17q2 -4 8 -2h3q0 5 -6 5q-2 0 -2.5 -1t-2.5 -2zM262 -84v2l-3 1zM130 742q-3 14 1.5 25.5
t9.5 22.5q14 28 33 51.5t41 45.5q10 10 24 16t28.5 5.5t28.5 -8t23 -23.5q8 -13 15 -25t13 -25q5 -9 9 -19t9 -18q8 -15 10 -30.5t4 -31.5q1 -5 -1 -10l-4 -10q-6 -11 -19 -11q-37 3 -55 30q-11 17 -23 37q-4 5 -7 10t-7 10q-3 5 -7 4.5t-7 -4.5q-8 -10 -15.5 -20t-15.5 -20
q-5 -8 -9 -14.5t-9 -14.5q-8 -13 -21 -17q-9 -4 -16 1q-2 4 -5 4q-11 3 -17 5t-8.5 5.5t-2.5 9v15.5v4z" />
    <glyph glyph-name="Edieresis" unicode="&#xcb;" horiz-adv-x="506" 
d="M163 640q8 10 9 14q8 16 13 19t18 -6q13 -8 25.5 -10t26.5 0q53 6 104 9q57 3 108 -25q2 -1 4 -3l5 -5q-50 5 -97 0t-93 -15q25 1 49 -3t50 1q8 1 15 0t15 -1l36 -2t36 -1q15 -1 28.5 -7t22.5 -20q6 -8 4.5 -12.5t-9.5 -8.5q-28 -13 -57 -18t-59 -7q-39 -3 -78.5 -6.5
t-79.5 -11.5q-4 -1 -12 -5q-1 -1 -4 -6q3 -3 5 -3h14q38 5 76 8.5t76 7.5q5 0 11.5 1t13.5 -3q-13 -10 -35 -17q-15 -4 -30 -5t-30 -3q-25 -2 -48.5 -5t-46.5 -6q-19 -2 -20 -18q-1 -4 -2.5 -7t-1.5 -7q-1 -13 -6.5 -25t-0.5 -26q14 -4 26 -2l24 4q40 5 77 -1t73 -22l36 -14
t38 -21q-60 2 -116 -5t-117 -15q15 -5 25 -4.5t19 2.5q44 4 87 7.5t87 1.5h6.5t6.5 -1q6 0 9 -3q2 -4 -1 -6t-5 -4q-20 -13 -40.5 -25.5t-41.5 -23.5q-14 -8 -29 -13t-32 -7q-39 -5 -77.5 -8.5t-77.5 -7.5q-13 -4 -13 -13q-5 -40 -5.5 -79.5t5.5 -79.5q1 -9 5.5 -12t13.5 -2
q6 2 12 2t11 2q29 6 56.5 7t55.5 3q8 1 15 0.5t15 -1.5q14 -3 27 -1t27 7q9 4 18.5 7t19.5 6q6 2 10 -2t2 -10q-14 -34 -33.5 -64.5t-50.5 -52.5q-3 -3 -6.5 -5t-6.5 -6q-15 -22 -37 -32t-45 -16q-78 -21 -156 -6q-21 4 -37.5 14.5t-30.5 26.5q-34 39 -47 84t-14 95
q-2 66 5 130t20 127q12 60 27 120q2 8 1.5 14.5t-7.5 13.5q-5 7 -9 14.5t-3 16.5q2 16 8 27t23 16q6 2 8 5.5t-4 8.5q-5 5 1 11q10 10 21 18q16 8 16 23q2 10 11 12q6 1 11 4.5t10 5.5q14 7 15 -8q1 -5 1 -10.5t2 -14.5zM317 -78q-1 2 2 3t1 3q0 -2 -1 -2.5t-1 -2.5l-1 1v-2
zM212 -89q2 -1 2 -3t3 0q-2 1 -3 1t-2 1q8 10 19 2q4 0 6 1q0 1 1 2q-3 1 -4.5 -0.5l-3.5 -3.5q-1 3 -1.5 6.5t-4.5 4.5q-7 1 -13.5 2t-13.5 1q-5 0 -9.5 1t-8.5 -4q-2 -3 3.5 -6.5t13.5 -4.5q4 0 8 0.5t8 -0.5zM98 208q-5 -14 -8 -29.5t4 -35.5q2 19 2.5 34.5t1.5 30.5z
M235 320q0 2 -1 2q-7 2 -14 3.5t-14 3.5q-5 2 -7 -4q0 -6 6 -7q8 1 15 1t15 1zM120 -84q-2 2 -2.5 4t-2.5 4q-1 2 -3 3t-4 -1t-2 -4t2 -4q4 -4 7 -6l2 2q1 1 1.5 1t1.5 1zM200 17q2 -4 8 -2h3q0 5 -6 5q-2 0 -2.5 -1t-2.5 -2zM262 -84v2l-3 1zM165 854q19 4 28 -7
q8 -13 24 -16q13 -2 19.5 -11t8.5 -20q8 -32 -5 -55.5t-38 -34.5q-14 -7 -31 -8t-33 12q-32 28 -20 67q2 9 6 17.5t7 17.5q8 19 30 15q5 -1 10 -2.5t10 -2.5q1 -1 2.5 0.5l2.5 2.5q2 4 0 6q-2 8 -8.5 10.5t-12.5 8.5zM305 854q19 4 28 -7q8 -13 24 -16q13 -2 19.5 -11
t8.5 -20q8 -32 -5 -55.5t-38 -34.5q-14 -7 -31 -8t-33 12q-32 28 -20 67q2 9 6 17.5t7 17.5q8 19 30 15q5 -1 10 -2.5t10 -2.5q1 -1 2.5 0.5l2.5 2.5q2 4 0 6q-2 8 -8.5 10.5t-12.5 8.5z" />
    <glyph glyph-name="egrave" unicode="&#xe8;" horiz-adv-x="506" 
d="M163 640q8 10 9 14q8 16 13 19t18 -6q13 -8 25.5 -10t26.5 0q53 6 104 9q57 3 108 -25q2 -1 4 -3l5 -5q-50 5 -97 0t-93 -15q25 1 49 -3t50 1q8 1 15 0t15 -1l36 -2t36 -1q15 -1 28.5 -7t22.5 -20q6 -8 4.5 -12.5t-9.5 -8.5q-28 -13 -57 -18t-59 -7q-39 -3 -78.5 -6.5
t-79.5 -11.5q-4 -1 -12 -5q-1 -1 -4 -6q3 -3 5 -3h14q38 5 76 8.5t76 7.5q5 0 11.5 1t13.5 -3q-13 -10 -35 -17q-15 -4 -30 -5t-30 -3q-25 -2 -48.5 -5t-46.5 -6q-19 -2 -20 -18q-1 -4 -2.5 -7t-1.5 -7q-1 -13 -6.5 -25t-0.5 -26q14 -4 26 -2l24 4q40 5 77 -1t73 -22l36 -14
t38 -21q-60 2 -116 -5t-117 -15q15 -5 25 -4.5t19 2.5q44 4 87 7.5t87 1.5h6.5t6.5 -1q6 0 9 -3q2 -4 -1 -6t-5 -4q-20 -13 -40.5 -25.5t-41.5 -23.5q-14 -8 -29 -13t-32 -7q-39 -5 -77.5 -8.5t-77.5 -7.5q-13 -4 -13 -13q-5 -40 -5.5 -79.5t5.5 -79.5q1 -9 5.5 -12t13.5 -2
q6 2 12 2t11 2q29 6 56.5 7t55.5 3q8 1 15 0.5t15 -1.5q14 -3 27 -1t27 7q9 4 18.5 7t19.5 6q6 2 10 -2t2 -10q-14 -34 -33.5 -64.5t-50.5 -52.5q-3 -3 -6.5 -5t-6.5 -6q-15 -22 -37 -32t-45 -16q-78 -21 -156 -6q-21 4 -37.5 14.5t-30.5 26.5q-34 39 -47 84t-14 95
q-2 66 5 130t20 127q12 60 27 120q2 8 1.5 14.5t-7.5 13.5q-5 7 -9 14.5t-3 16.5q2 16 8 27t23 16q6 2 8 5.5t-4 8.5q-5 5 1 11q10 10 21 18q16 8 16 23q2 10 11 12q6 1 11 4.5t10 5.5q14 7 15 -8q1 -5 1 -10.5t2 -14.5zM317 -78q-1 2 2 3t1 3q0 -2 -1 -2.5t-1 -2.5l-1 1v-2
zM212 -89q2 -1 2 -3t3 0q-2 1 -3 1t-2 1q8 10 19 2q4 0 6 1q0 1 1 2q-3 1 -4.5 -0.5l-3.5 -3.5q-1 3 -1.5 6.5t-4.5 4.5q-7 1 -13.5 2t-13.5 1q-5 0 -9.5 1t-8.5 -4q-2 -3 3.5 -6.5t13.5 -4.5q4 0 8 0.5t8 -0.5zM98 208q-5 -14 -8 -29.5t4 -35.5q2 19 2.5 34.5t1.5 30.5z
M235 320q0 2 -1 2q-7 2 -14 3.5t-14 3.5q-5 2 -7 -4q0 -6 6 -7q8 1 15 1t15 1zM120 -84q-2 2 -2.5 4t-2.5 4q-1 2 -3 3t-4 -1t-2 -4t2 -4q4 -4 7 -6l2 2q1 1 1.5 1t1.5 1zM200 17q2 -4 8 -2h3q0 5 -6 5q-2 0 -2.5 -1t-2.5 -2zM262 -84v2l-3 1zM159 611h2l1 1h-2zM191 821
q-2 11 -10 15t-15 10q-7 5 -3 14q5 13 11 18t20 6q17 0 32 -4t29 -14q19 -14 35.5 -31t30.5 -36q13 -18 15 -41q2 -18 3.5 -27.5t-2 -13.5t-13.5 -3t-29 3q-23 3 -46 21q-19 15 -37.5 31t-39.5 30q-7 5 -12 16q-2 4 0 9q4 4 9 4q5 -1 11 -2.5t11 -3.5v-1z" />
    <glyph glyph-name="eacute" unicode="&#xe9;" horiz-adv-x="506" 
d="M163 640q8 10 9 14q8 16 13 19t18 -6q13 -8 25.5 -10t26.5 0q53 6 104 9q57 3 108 -25q2 -1 4 -3l5 -5q-50 5 -97 0t-93 -15q25 1 49 -3t50 1q8 1 15 0t15 -1l36 -2t36 -1q15 -1 28.5 -7t22.5 -20q6 -8 4.5 -12.5t-9.5 -8.5q-28 -13 -57 -18t-59 -7q-39 -3 -78.5 -6.5
t-79.5 -11.5q-4 -1 -12 -5q-1 -1 -4 -6q3 -3 5 -3h14q38 5 76 8.5t76 7.5q5 0 11.5 1t13.5 -3q-13 -10 -35 -17q-15 -4 -30 -5t-30 -3q-25 -2 -48.5 -5t-46.5 -6q-19 -2 -20 -18q-1 -4 -2.5 -7t-1.5 -7q-1 -13 -6.5 -25t-0.5 -26q14 -4 26 -2l24 4q40 5 77 -1t73 -22l36 -14
t38 -21q-60 2 -116 -5t-117 -15q15 -5 25 -4.5t19 2.5q44 4 87 7.5t87 1.5h6.5t6.5 -1q6 0 9 -3q2 -4 -1 -6t-5 -4q-20 -13 -40.5 -25.5t-41.5 -23.5q-14 -8 -29 -13t-32 -7q-39 -5 -77.5 -8.5t-77.5 -7.5q-13 -4 -13 -13q-5 -40 -5.5 -79.5t5.5 -79.5q1 -9 5.5 -12t13.5 -2
q6 2 12 2t11 2q29 6 56.5 7t55.5 3q8 1 15 0.5t15 -1.5q14 -3 27 -1t27 7q9 4 18.5 7t19.5 6q6 2 10 -2t2 -10q-14 -34 -33.5 -64.5t-50.5 -52.5q-3 -3 -6.5 -5t-6.5 -6q-15 -22 -37 -32t-45 -16q-78 -21 -156 -6q-21 4 -37.5 14.5t-30.5 26.5q-34 39 -47 84t-14 95
q-2 66 5 130t20 127q12 60 27 120q2 8 1.5 14.5t-7.5 13.5q-5 7 -9 14.5t-3 16.5q2 16 8 27t23 16q6 2 8 5.5t-4 8.5q-5 5 1 11q10 10 21 18q16 8 16 23q2 10 11 12q6 1 11 4.5t10 5.5q14 7 15 -8q1 -5 1 -10.5t2 -14.5zM317 -78q-1 2 2 3t1 3q0 -2 -1 -2.5t-1 -2.5l-1 1v-2
zM212 -89q2 -1 2 -3t3 0q-2 1 -3 1t-2 1q8 10 19 2q4 0 6 1q0 1 1 2q-3 1 -4.5 -0.5l-3.5 -3.5q-1 3 -1.5 6.5t-4.5 4.5q-7 1 -13.5 2t-13.5 1q-5 0 -9.5 1t-8.5 -4q-2 -3 3.5 -6.5t13.5 -4.5q4 0 8 0.5t8 -0.5zM98 208q-5 -14 -8 -29.5t4 -35.5q2 19 2.5 34.5t1.5 30.5z
M235 320q0 2 -1 2q-7 2 -14 3.5t-14 3.5q-5 2 -7 -4q0 -6 6 -7q8 1 15 1t15 1zM120 -84q-2 2 -2.5 4t-2.5 4q-1 2 -3 3t-4 -1t-2 -4t2 -4q4 -4 7 -6l2 2q1 1 1.5 1t1.5 1zM200 17q2 -4 8 -2h3q0 5 -6 5q-2 0 -2.5 -1t-2.5 -2zM262 -84v2l-3 1zM198 720q-13 -1 -24 16
q-10 17 -7.5 32t10.5 29q17 25 38 45.5t46 37.5q6 5 14.5 7.5t16.5 4.5q12 3 25 -2.5t19 -16.5q5 -8 5.5 -16.5t-6.5 -13.5q-16 -11 -3 -23q3 -3 1.5 -6.5t-4.5 -5.5q-20 -14 -36.5 -30.5t-34.5 -32.5q-16 -14 -29.5 -19.5t-30.5 -5.5z" />
    </font>
</defs>
</svg>
